<svg width="872" height="140" viewBox="0 0 872 140" fill="none" xmlns="http://www.w3.org/2000/svg">
<path d="M21.9336 60.6846C21.9336 62.2171 21.6758 63.5563 21.1602 64.7021C20.6445 65.8408 19.9141 66.7109 18.9688 67.3125C18.0234 67.9141 16.9206 68.2148 15.6602 68.2148C14.4284 68.2148 13.3363 67.9141 12.3838 67.3125C11.4313 66.7038 10.6901 65.8408 10.1602 64.7236C9.63737 63.5993 9.36882 62.2995 9.35449 60.8242V59.6963C9.35449 58.1924 9.61589 56.8639 10.1387 55.7109C10.6615 54.5579 11.3991 53.6771 12.3516 53.0684C13.3112 52.4525 14.4069 52.1445 15.6387 52.1445C16.8919 52.1445 17.9948 52.4489 18.9473 53.0576C19.9069 53.6592 20.6445 54.5365 21.1602 55.6895C21.6758 56.8353 21.9336 58.1709 21.9336 59.6963V60.6846ZM19.8818 59.6748C19.8818 57.82 19.5094 56.3984 18.7646 55.4102C18.0199 54.4147 16.9779 53.917 15.6387 53.917C14.3353 53.917 13.3076 54.4147 12.5557 55.4102C11.8109 56.3984 11.4277 57.7734 11.4062 59.5352V60.6846C11.4062 62.4821 11.7822 63.8965 12.5342 64.9277C13.2933 65.9518 14.3353 66.4639 15.6602 66.4639C16.9922 66.4639 18.0234 65.9805 18.7539 65.0137C19.4844 64.0397 19.8604 62.6468 19.8818 60.835V59.6748ZM39.9912 62.3174C39.9912 64.0863 39.5866 65.5114 38.7773 66.5928C37.9681 67.6742 36.8724 68.2148 35.4902 68.2148C34.0794 68.2148 32.9694 67.7673 32.1602 66.8721V72.4688H30.1729V56.377H31.9883L32.085 57.666C32.8942 56.6634 34.0186 56.1621 35.458 56.1621C36.8545 56.1621 37.9574 56.6885 38.7666 57.7412C39.583 58.7939 39.9912 60.2585 39.9912 62.1348V62.3174ZM38.0039 62.0918C38.0039 60.7812 37.7246 59.7464 37.166 58.9873C36.6074 58.2282 35.8411 57.8486 34.8672 57.8486C33.6641 57.8486 32.7617 58.3822 32.1602 59.4492V65.0029C32.7546 66.0628 33.6641 66.5928 34.8887 66.5928C35.8411 66.5928 36.5967 66.2168 37.1553 65.4648C37.721 64.7057 38.0039 63.5814 38.0039 62.0918ZM48.1445 58.1602C47.8438 58.11 47.5179 58.085 47.167 58.085C45.8636 58.085 44.9792 58.64 44.5137 59.75V68H42.5264V56.377H44.46L44.4922 57.7197C45.1439 56.6813 46.0677 56.1621 47.2637 56.1621C47.6504 56.1621 47.944 56.2122 48.1445 56.3125V58.1602ZM49.2402 62.0811C49.2402 60.9424 49.4622 59.9183 49.9062 59.0088C50.3574 58.0993 50.9805 57.3975 51.7754 56.9033C52.5775 56.4092 53.4906 56.1621 54.5146 56.1621C56.0973 56.1621 57.3757 56.71 58.3496 57.8057C59.3307 58.9014 59.8213 60.3587 59.8213 62.1777V62.3174C59.8213 63.4489 59.6029 64.4658 59.166 65.3682C58.7363 66.2633 58.1169 66.9616 57.3076 67.4629C56.5055 67.9642 55.5817 68.2148 54.5361 68.2148C52.9606 68.2148 51.6823 67.667 50.7012 66.5713C49.7272 65.4756 49.2402 64.0254 49.2402 62.2207V62.0811ZM51.2383 62.3174C51.2383 63.6064 51.5355 64.6413 52.1299 65.4219C52.7314 66.2025 53.5335 66.5928 54.5361 66.5928C55.5459 66.5928 56.348 66.1989 56.9424 65.4111C57.5368 64.6162 57.834 63.5062 57.834 62.0811C57.834 60.8063 57.5296 59.7751 56.9209 58.9873C56.3193 58.1924 55.5173 57.7949 54.5146 57.7949C53.5335 57.7949 52.7422 58.1852 52.1406 58.9658C51.5391 59.7464 51.2383 60.8636 51.2383 62.3174ZM61.8408 62.0918C61.8408 60.2799 62.2598 58.8405 63.0977 57.7734C63.9355 56.6992 65.0456 56.1621 66.4277 56.1621C67.8457 56.1621 68.9521 56.6634 69.7471 57.666L69.8438 56.377H71.6592V67.7207C71.6592 69.2246 71.2116 70.4098 70.3164 71.2764C69.4284 72.1429 68.2324 72.5762 66.7285 72.5762C65.8906 72.5762 65.0706 72.3971 64.2686 72.0391C63.4665 71.681 62.8542 71.1904 62.4316 70.5674L63.4629 69.375C64.3151 70.4277 65.3571 70.9541 66.5889 70.9541C67.5557 70.9541 68.3076 70.682 68.8447 70.1377C69.389 69.5934 69.6611 68.8271 69.6611 67.8389V66.8398C68.8662 67.7565 67.7812 68.2148 66.4062 68.2148C65.0456 68.2148 63.9427 67.667 63.0977 66.5713C62.2598 65.4756 61.8408 63.9824 61.8408 62.0918ZM63.8389 62.3174C63.8389 63.6279 64.1074 64.6592 64.6445 65.4111C65.1816 66.1559 65.9336 66.5283 66.9004 66.5283C68.1536 66.5283 69.0739 65.959 69.6611 64.8203V59.5137C69.0524 58.4036 68.1393 57.8486 66.9219 57.8486C65.9551 57.8486 65.1995 58.2246 64.6553 58.9766C64.111 59.7285 63.8389 60.8421 63.8389 62.3174ZM80.2852 58.1602C79.9844 58.11 79.6585 58.085 79.3076 58.085C78.0042 58.085 77.1198 58.64 76.6543 59.75V68H74.667V56.377H76.6006L76.6328 57.7197C77.2845 56.6813 78.2083 56.1621 79.4043 56.1621C79.791 56.1621 80.0846 56.2122 80.2852 56.3125V58.1602ZM88.8682 68C88.7536 67.7708 88.6605 67.3626 88.5889 66.7754C87.665 67.735 86.5622 68.2148 85.2803 68.2148C84.1344 68.2148 83.1927 67.8926 82.4551 67.248C81.7246 66.5964 81.3594 65.7728 81.3594 64.7773C81.3594 63.5671 81.8177 62.6289 82.7344 61.9629C83.6582 61.2897 84.9544 60.9531 86.623 60.9531H88.5566V60.04C88.5566 59.3454 88.349 58.7939 87.9336 58.3857C87.5182 57.9704 86.9059 57.7627 86.0967 57.7627C85.3877 57.7627 84.7933 57.9417 84.3135 58.2998C83.8337 58.6579 83.5938 59.0911 83.5938 59.5996H81.5957C81.5957 59.0195 81.7998 58.4609 82.208 57.9238C82.6234 57.3796 83.182 56.9499 83.8838 56.6348C84.5928 56.3197 85.3698 56.1621 86.2148 56.1621C87.554 56.1621 88.6032 56.4987 89.3623 57.1719C90.1214 57.8379 90.5153 58.7581 90.5439 59.9326V65.2822C90.5439 66.3493 90.68 67.1979 90.9521 67.8281V68H88.8682ZM85.5703 66.4854C86.1934 66.4854 86.7842 66.3242 87.3428 66.002C87.9014 65.6797 88.306 65.2607 88.5566 64.7451V62.3604H86.999C84.5641 62.3604 83.3467 63.0729 83.3467 64.498C83.3467 65.1211 83.5544 65.6081 83.9697 65.959C84.3851 66.3099 84.9186 66.4854 85.5703 66.4854ZM95.5283 56.377L95.582 57.666C96.4342 56.6634 97.5837 56.1621 99.0303 56.1621C100.656 56.1621 101.762 56.7852 102.35 58.0312C102.736 57.4727 103.238 57.0215 103.854 56.6777C104.477 56.334 105.211 56.1621 106.056 56.1621C108.605 56.1621 109.901 57.512 109.944 60.2119V68H107.957V60.3301C107.957 59.4993 107.767 58.8799 107.388 58.4717C107.008 58.0563 106.371 57.8486 105.476 57.8486C104.738 57.8486 104.126 58.0706 103.639 58.5146C103.152 58.9515 102.869 59.5423 102.79 60.2871V68H100.792V60.3838C100.792 58.6937 99.9648 57.8486 98.3105 57.8486C97.0072 57.8486 96.1156 58.4036 95.6357 59.5137V68H93.6484V56.377H95.5283ZM120.128 68C120.013 67.7708 119.92 67.3626 119.849 66.7754C118.925 67.735 117.822 68.2148 116.54 68.2148C115.394 68.2148 114.452 67.8926 113.715 67.248C112.984 66.5964 112.619 65.7728 112.619 64.7773C112.619 63.5671 113.077 62.6289 113.994 61.9629C114.918 61.2897 116.214 60.9531 117.883 60.9531H119.816V60.04C119.816 59.3454 119.609 58.7939 119.193 58.3857C118.778 57.9704 118.166 57.7627 117.356 57.7627C116.647 57.7627 116.053 57.9417 115.573 58.2998C115.093 58.6579 114.854 59.0911 114.854 59.5996H112.855C112.855 59.0195 113.06 58.4609 113.468 57.9238C113.883 57.3796 114.442 56.9499 115.144 56.6348C115.853 56.3197 116.63 56.1621 117.475 56.1621C118.814 56.1621 119.863 56.4987 120.622 57.1719C121.381 57.8379 121.775 58.7581 121.804 59.9326V65.2822C121.804 66.3493 121.94 67.1979 122.212 67.8281V68H120.128ZM116.83 66.4854C117.453 66.4854 118.044 66.3242 118.603 66.002C119.161 65.6797 119.566 65.2607 119.816 64.7451V62.3604H118.259C115.824 62.3604 114.606 63.0729 114.606 64.498C114.606 65.1211 114.814 65.6081 115.229 65.959C115.645 66.3099 116.178 66.4854 116.83 66.4854ZM129.893 62.0918C129.893 60.3086 130.315 58.8763 131.16 57.7949C132.005 56.7064 133.112 56.1621 134.479 56.1621C135.84 56.1621 136.918 56.6276 137.713 57.5586V51.5H139.7V68H137.874L137.777 66.7539C136.982 67.7279 135.876 68.2148 134.458 68.2148C133.112 68.2148 132.012 67.6634 131.16 66.5605C130.315 65.4577 129.893 64.0182 129.893 62.2422V62.0918ZM131.88 62.3174C131.88 63.6351 132.152 64.6663 132.696 65.4111C133.241 66.1559 133.993 66.5283 134.952 66.5283C136.213 66.5283 137.133 65.9626 137.713 64.8311V59.4922C137.118 58.3965 136.205 57.8486 134.974 57.8486C134 57.8486 133.241 58.2246 132.696 58.9766C132.152 59.7285 131.88 60.8421 131.88 62.3174ZM147.617 68.2148C146.042 68.2148 144.76 67.6992 143.771 66.668C142.783 65.6296 142.289 64.2438 142.289 62.5107V62.1455C142.289 60.9925 142.507 59.9648 142.944 59.0625C143.388 58.153 144.004 57.444 144.792 56.9355C145.587 56.4199 146.446 56.1621 147.37 56.1621C148.881 56.1621 150.056 56.6598 150.894 57.6553C151.731 58.6507 152.15 60.0758 152.15 61.9307V62.7578H144.276C144.305 63.9036 144.638 64.8311 145.275 65.54C145.92 66.2419 146.736 66.5928 147.725 66.5928C148.426 66.5928 149.021 66.4495 149.508 66.1631C149.995 65.8766 150.421 65.4971 150.786 65.0244L152 65.9697C151.026 67.4665 149.565 68.2148 147.617 68.2148ZM147.37 57.7949C146.568 57.7949 145.895 58.0885 145.351 58.6758C144.806 59.2559 144.47 60.0723 144.341 61.125H150.163V60.9746C150.106 59.9648 149.834 59.1842 149.347 58.6328C148.86 58.0742 148.201 57.7949 147.37 57.7949ZM164.579 66.5928C165.288 66.5928 165.908 66.3779 166.438 65.9482C166.967 65.5186 167.261 64.9814 167.318 64.3369H169.198C169.162 65.0029 168.933 65.6367 168.511 66.2383C168.088 66.8398 167.522 67.3197 166.813 67.6777C166.112 68.0358 165.367 68.2148 164.579 68.2148C162.996 68.2148 161.736 67.6885 160.798 66.6357C159.867 65.5758 159.401 64.1292 159.401 62.2959V61.9629C159.401 60.8314 159.609 59.8252 160.024 58.9443C160.44 58.0635 161.034 57.3796 161.808 56.8926C162.588 56.4056 163.508 56.1621 164.568 56.1621C165.872 56.1621 166.953 56.5524 167.812 57.333C168.679 58.1136 169.141 59.127 169.198 60.373H167.318C167.261 59.6211 166.975 59.0052 166.459 58.5254C165.951 58.0384 165.32 57.7949 164.568 57.7949C163.559 57.7949 162.774 58.1602 162.216 58.8906C161.664 59.6139 161.389 60.6631 161.389 62.0381V62.4141C161.389 63.7533 161.664 64.7845 162.216 65.5078C162.767 66.2311 163.555 66.5928 164.579 66.5928ZM170.906 62.0811C170.906 60.9424 171.128 59.9183 171.572 59.0088C172.023 58.0993 172.646 57.3975 173.441 56.9033C174.243 56.4092 175.157 56.1621 176.181 56.1621C177.763 56.1621 179.042 56.71 180.016 57.8057C180.997 58.9014 181.487 60.3587 181.487 62.1777V62.3174C181.487 63.4489 181.269 64.4658 180.832 65.3682C180.402 66.2633 179.783 66.9616 178.974 67.4629C178.172 67.9642 177.248 68.2148 176.202 68.2148C174.627 68.2148 173.348 67.667 172.367 66.5713C171.393 65.4756 170.906 64.0254 170.906 62.2207V62.0811ZM172.904 62.3174C172.904 63.6064 173.201 64.6413 173.796 65.4219C174.397 66.2025 175.2 66.5928 176.202 66.5928C177.212 66.5928 178.014 66.1989 178.608 65.4111C179.203 64.6162 179.5 63.5062 179.5 62.0811C179.5 60.8063 179.196 59.7751 178.587 58.9873C177.985 58.1924 177.183 57.7949 176.181 57.7949C175.2 57.7949 174.408 58.1852 173.807 58.9658C173.205 59.7464 172.904 60.8636 172.904 62.3174ZM185.859 56.377L185.924 57.8379C186.812 56.7207 187.972 56.1621 189.404 56.1621C191.861 56.1621 193.1 57.5479 193.121 60.3193V68H191.134V60.3086C191.127 59.4707 190.933 58.8512 190.554 58.4502C190.181 58.0492 189.598 57.8486 188.803 57.8486C188.158 57.8486 187.592 58.0205 187.105 58.3643C186.618 58.708 186.239 59.1592 185.967 59.7178V68H183.979V56.377H185.859ZM197.096 68V57.9131H195.259V56.377H197.096V55.1846C197.096 53.9385 197.429 52.9753 198.095 52.2949C198.761 51.6146 199.702 51.2744 200.92 51.2744C201.378 51.2744 201.833 51.3353 202.284 51.457L202.177 53.0684C201.84 53.0039 201.482 52.9717 201.103 52.9717C200.458 52.9717 199.96 53.1615 199.609 53.541C199.258 53.9134 199.083 54.4505 199.083 55.1523V56.377H201.564V57.9131H199.083V68H197.096ZM203.24 62.0811C203.24 60.9424 203.462 59.9183 203.906 59.0088C204.357 58.0993 204.98 57.3975 205.775 56.9033C206.577 56.4092 207.491 56.1621 208.515 56.1621C210.097 56.1621 211.376 56.71 212.35 57.8057C213.331 58.9014 213.821 60.3587 213.821 62.1777V62.3174C213.821 63.4489 213.603 64.4658 213.166 65.3682C212.736 66.2633 212.117 66.9616 211.308 67.4629C210.506 67.9642 209.582 68.2148 208.536 68.2148C206.961 68.2148 205.682 67.667 204.701 66.5713C203.727 65.4756 203.24 64.0254 203.24 62.2207V62.0811ZM205.238 62.3174C205.238 63.6064 205.535 64.6413 206.13 65.4219C206.731 66.2025 207.534 66.5928 208.536 66.5928C209.546 66.5928 210.348 66.1989 210.942 65.4111C211.537 64.6162 211.834 63.5062 211.834 62.0811C211.834 60.8063 211.53 59.7751 210.921 58.9873C210.319 58.1924 209.517 57.7949 208.515 57.7949C207.534 57.7949 206.742 58.1852 206.141 58.9658C205.539 59.7464 205.238 60.8636 205.238 62.3174ZM221.932 58.1602C221.631 58.11 221.305 58.085 220.954 58.085C219.651 58.085 218.766 58.64 218.301 59.75V68H216.313V56.377H218.247L218.279 57.7197C218.931 56.6813 219.855 56.1621 221.051 56.1621C221.438 56.1621 221.731 56.2122 221.932 56.3125V58.1602ZM225.638 56.377L225.691 57.666C226.544 56.6634 227.693 56.1621 229.14 56.1621C230.765 56.1621 231.872 56.7852 232.459 58.0312C232.846 57.4727 233.347 57.0215 233.963 56.6777C234.586 56.334 235.32 56.1621 236.165 56.1621C238.715 56.1621 240.011 57.512 240.054 60.2119V68H238.066V60.3301C238.066 59.4993 237.877 58.8799 237.497 58.4717C237.118 58.0563 236.48 57.8486 235.585 57.8486C234.847 57.8486 234.235 58.0706 233.748 58.5146C233.261 58.9515 232.978 59.5423 232.899 60.2871V68H230.901V60.3838C230.901 58.6937 230.074 57.8486 228.42 57.8486C227.117 57.8486 226.225 58.4036 225.745 59.5137V68H223.758V56.377H225.638ZM245.221 68H243.233V56.377H245.221V68ZM243.072 53.2939C243.072 52.9717 243.169 52.6995 243.362 52.4775C243.563 52.2555 243.856 52.1445 244.243 52.1445C244.63 52.1445 244.924 52.2555 245.124 52.4775C245.325 52.6995 245.425 52.9717 245.425 53.2939C245.425 53.6162 245.325 53.8848 245.124 54.0996C244.924 54.3145 244.63 54.4219 244.243 54.4219C243.856 54.4219 243.563 54.3145 243.362 54.0996C243.169 53.8848 243.072 53.6162 243.072 53.2939ZM247.928 62.0918C247.928 60.3086 248.35 58.8763 249.195 57.7949C250.04 56.7064 251.147 56.1621 252.515 56.1621C253.875 56.1621 254.953 56.6276 255.748 57.5586V51.5H257.735V68H255.909L255.812 66.7539C255.018 67.7279 253.911 68.2148 252.493 68.2148C251.147 68.2148 250.048 67.6634 249.195 66.5605C248.35 65.4577 247.928 64.0182 247.928 62.2422V62.0918ZM249.915 62.3174C249.915 63.6351 250.187 64.6663 250.731 65.4111C251.276 66.1559 252.028 66.5283 252.987 66.5283C254.248 66.5283 255.168 65.9626 255.748 64.8311V59.4922C255.154 58.3965 254.241 57.8486 253.009 57.8486C252.035 57.8486 251.276 58.2246 250.731 58.9766C250.187 59.7285 249.915 60.8421 249.915 62.3174ZM268.005 68C267.89 67.7708 267.797 67.3626 267.726 66.7754C266.802 67.735 265.699 68.2148 264.417 68.2148C263.271 68.2148 262.329 67.8926 261.592 67.248C260.861 66.5964 260.496 65.7728 260.496 64.7773C260.496 63.5671 260.954 62.6289 261.871 61.9629C262.795 61.2897 264.091 60.9531 265.76 60.9531H267.693V60.04C267.693 59.3454 267.486 58.7939 267.07 58.3857C266.655 57.9704 266.043 57.7627 265.233 57.7627C264.524 57.7627 263.93 57.9417 263.45 58.2998C262.97 58.6579 262.73 59.0911 262.73 59.5996H260.732C260.732 59.0195 260.937 58.4609 261.345 57.9238C261.76 57.3796 262.319 56.9499 263.021 56.6348C263.729 56.3197 264.507 56.1621 265.352 56.1621C266.691 56.1621 267.74 56.4987 268.499 57.1719C269.258 57.8379 269.652 58.7581 269.681 59.9326V65.2822C269.681 66.3493 269.817 67.1979 270.089 67.8281V68H268.005ZM264.707 66.4854C265.33 66.4854 265.921 66.3242 266.479 66.002C267.038 65.6797 267.443 65.2607 267.693 64.7451V62.3604H266.136C263.701 62.3604 262.483 63.0729 262.483 64.498C262.483 65.1211 262.691 65.6081 263.106 65.959C263.522 66.3099 264.055 66.4854 264.707 66.4854ZM272.312 62.0918C272.312 60.3086 272.735 58.8763 273.58 57.7949C274.425 56.7064 275.532 56.1621 276.899 56.1621C278.26 56.1621 279.338 56.6276 280.133 57.5586V51.5H282.12V68H280.294L280.197 66.7539C279.402 67.7279 278.296 68.2148 276.878 68.2148C275.532 68.2148 274.432 67.6634 273.58 66.5605C272.735 65.4577 272.312 64.0182 272.312 62.2422V62.0918ZM274.3 62.3174C274.3 63.6351 274.572 64.6663 275.116 65.4111C275.66 66.1559 276.412 66.5283 277.372 66.5283C278.632 66.5283 279.553 65.9626 280.133 64.8311V59.4922C279.538 58.3965 278.625 57.8486 277.394 57.8486C276.42 57.8486 275.66 58.2246 275.116 58.9766C274.572 59.7285 274.3 60.8421 274.3 62.3174ZM290.037 68.2148C288.462 68.2148 287.18 67.6992 286.191 66.668C285.203 65.6296 284.709 64.2438 284.709 62.5107V62.1455C284.709 60.9925 284.927 59.9648 285.364 59.0625C285.808 58.153 286.424 57.444 287.212 56.9355C288.007 56.4199 288.866 56.1621 289.79 56.1621C291.301 56.1621 292.476 56.6598 293.313 57.6553C294.151 58.6507 294.57 60.0758 294.57 61.9307V62.7578H286.696C286.725 63.9036 287.058 64.8311 287.695 65.54C288.34 66.2419 289.156 66.5928 290.145 66.5928C290.846 66.5928 291.441 66.4495 291.928 66.1631C292.415 65.8766 292.841 65.4971 293.206 65.0244L294.42 65.9697C293.446 67.4665 291.985 68.2148 290.037 68.2148ZM289.79 57.7949C288.988 57.7949 288.315 58.0885 287.771 58.6758C287.226 59.2559 286.89 60.0723 286.761 61.125H292.583V60.9746C292.526 59.9648 292.254 59.1842 291.767 58.6328C291.28 58.0742 290.621 57.7949 289.79 57.7949ZM304.722 66.3135H312.134V68H302.648V52.3594H304.722V66.3135ZM325.325 65.9482C324.795 66.7074 324.054 67.2767 323.102 67.6562C322.156 68.0286 321.053 68.2148 319.793 68.2148C318.518 68.2148 317.387 67.9176 316.398 67.3232C315.41 66.7217 314.644 65.8695 314.1 64.7666C313.562 63.6637 313.287 62.3854 313.272 60.9316V59.5674C313.272 57.2113 313.82 55.3851 314.916 54.0889C316.019 52.7926 317.566 52.1445 319.557 52.1445C321.189 52.1445 322.504 52.5635 323.499 53.4014C324.494 54.2321 325.103 55.4137 325.325 56.9463H323.263C322.876 54.8766 321.644 53.8418 319.567 53.8418C318.185 53.8418 317.136 54.3288 316.42 55.3027C315.711 56.2695 315.353 57.6732 315.346 59.5137V60.792C315.346 62.5465 315.747 63.943 316.549 64.9814C317.351 66.0127 318.436 66.5283 319.804 66.5283C320.577 66.5283 321.254 66.4424 321.834 66.2705C322.414 66.0986 322.894 65.8086 323.273 65.4004V61.8877H319.653V60.2119H325.325V65.9482ZM330.836 61.877V68H328.773V52.3594H334.542C336.254 52.3594 337.593 52.7962 338.56 53.6699C339.534 54.5436 340.021 55.7002 340.021 57.1396C340.021 58.6579 339.544 59.8288 338.592 60.6523C337.646 61.4688 336.289 61.877 334.521 61.877H330.836ZM330.836 60.1904H334.542C335.645 60.1904 336.49 59.9326 337.077 59.417C337.664 58.8942 337.958 58.1423 337.958 57.1611C337.958 56.2301 337.664 55.4854 337.077 54.9268C336.49 54.3682 335.684 54.0781 334.66 54.0566H330.836V60.1904ZM342.652 68V52.3594H347.067C348.428 52.3594 349.631 52.6602 350.677 53.2617C351.722 53.8633 352.528 54.7191 353.094 55.8291C353.667 56.9391 353.957 58.2139 353.964 59.6533V60.6523C353.964 62.1276 353.677 63.4202 353.104 64.5303C352.539 65.6403 351.726 66.4925 350.666 67.0869C349.613 67.6813 348.385 67.9857 346.981 68H342.652ZM344.715 54.0566V66.3135H346.885C348.475 66.3135 349.71 65.8193 350.591 64.8311C351.479 63.8428 351.923 62.4355 351.923 60.6094V59.6963C351.923 57.9202 351.504 56.5417 350.666 55.5605C349.835 54.5723 348.654 54.071 347.121 54.0566H344.715ZM366.07 65.3037L368.949 56.377H370.979L366.812 68H365.297L361.086 56.377H363.116L366.07 65.3037ZM375.051 68H373.063V56.377H375.051V68ZM372.902 53.2939C372.902 52.9717 372.999 52.6995 373.192 52.4775C373.393 52.2555 373.687 52.1445 374.073 52.1445C374.46 52.1445 374.754 52.2555 374.954 52.4775C375.155 52.6995 375.255 52.9717 375.255 53.2939C375.255 53.6162 375.155 53.8848 374.954 54.0996C374.754 54.3145 374.46 54.4219 374.073 54.4219C373.687 54.4219 373.393 54.3145 373.192 54.0996C372.999 53.8848 372.902 53.6162 372.902 53.2939ZM385.009 64.917C385.009 64.3799 384.805 63.9645 384.396 63.6709C383.995 63.3701 383.29 63.1123 382.28 62.8975C381.278 62.6826 380.479 62.4248 379.885 62.124C379.298 61.8232 378.861 61.4652 378.574 61.0498C378.295 60.6344 378.155 60.1403 378.155 59.5674C378.155 58.6149 378.556 57.8092 379.358 57.1504C380.168 56.4915 381.199 56.1621 382.452 56.1621C383.77 56.1621 384.837 56.5023 385.653 57.1826C386.477 57.863 386.889 58.7331 386.889 59.793H384.891C384.891 59.2487 384.658 58.7796 384.192 58.3857C383.734 57.9919 383.154 57.7949 382.452 57.7949C381.729 57.7949 381.163 57.9525 380.755 58.2676C380.347 58.5827 380.143 58.9945 380.143 59.5029C380.143 59.9827 380.332 60.3444 380.712 60.5879C381.091 60.8314 381.775 61.0641 382.764 61.2861C383.759 61.5081 384.565 61.7731 385.181 62.0811C385.797 62.389 386.251 62.7614 386.545 63.1982C386.846 63.6279 386.996 64.1543 386.996 64.7773C386.996 65.8158 386.581 66.6501 385.75 67.2803C384.919 67.9033 383.841 68.2148 382.517 68.2148C381.586 68.2148 380.762 68.0501 380.046 67.7207C379.33 67.3913 378.768 66.9329 378.359 66.3457C377.958 65.7513 377.758 65.1104 377.758 64.4229H379.745C379.781 65.0889 380.046 65.6188 380.54 66.0127C381.041 66.3994 381.7 66.5928 382.517 66.5928C383.269 66.5928 383.87 66.4424 384.321 66.1416C384.78 65.8337 385.009 65.4255 385.009 64.917ZM396.761 68C396.646 67.7708 396.553 67.3626 396.481 66.7754C395.558 67.735 394.455 68.2148 393.173 68.2148C392.027 68.2148 391.085 67.8926 390.348 67.248C389.617 66.5964 389.252 65.7728 389.252 64.7773C389.252 63.5671 389.71 62.6289 390.627 61.9629C391.551 61.2897 392.847 60.9531 394.516 60.9531H396.449V60.04C396.449 59.3454 396.242 58.7939 395.826 58.3857C395.411 57.9704 394.799 57.7627 393.989 57.7627C393.28 57.7627 392.686 57.9417 392.206 58.2998C391.726 58.6579 391.486 59.0911 391.486 59.5996H389.488C389.488 59.0195 389.692 58.4609 390.101 57.9238C390.516 57.3796 391.075 56.9499 391.776 56.6348C392.485 56.3197 393.262 56.1621 394.107 56.1621C395.447 56.1621 396.496 56.4987 397.255 57.1719C398.014 57.8379 398.408 58.7581 398.437 59.9326V65.2822C398.437 66.3493 398.573 67.1979 398.845 67.8281V68H396.761ZM393.463 66.4854C394.086 66.4854 394.677 66.3242 395.235 66.002C395.794 65.6797 396.199 65.2607 396.449 64.7451V62.3604H394.892C392.457 62.3604 391.239 63.0729 391.239 64.498C391.239 65.1211 391.447 65.6081 391.862 65.959C392.278 66.3099 392.811 66.4854 393.463 66.4854ZM414.185 68C414.07 67.7708 413.977 67.3626 413.905 66.7754C412.981 67.735 411.879 68.2148 410.597 68.2148C409.451 68.2148 408.509 67.8926 407.771 67.248C407.041 66.5964 406.676 65.7728 406.676 64.7773C406.676 63.5671 407.134 62.6289 408.051 61.9629C408.975 61.2897 410.271 60.9531 411.939 60.9531H413.873V60.04C413.873 59.3454 413.665 58.7939 413.25 58.3857C412.835 57.9704 412.222 57.7627 411.413 57.7627C410.704 57.7627 410.11 57.9417 409.63 58.2998C409.15 58.6579 408.91 59.0911 408.91 59.5996H406.912C406.912 59.0195 407.116 58.4609 407.524 57.9238C407.94 57.3796 408.498 56.9499 409.2 56.6348C409.909 56.3197 410.686 56.1621 411.531 56.1621C412.87 56.1621 413.92 56.4987 414.679 57.1719C415.438 57.8379 415.832 58.7581 415.86 59.9326V65.2822C415.86 66.3493 415.996 67.1979 416.269 67.8281V68H414.185ZM410.887 66.4854C411.51 66.4854 412.101 66.3242 412.659 66.002C413.218 65.6797 413.622 65.2607 413.873 64.7451V62.3604H412.315C409.881 62.3604 408.663 63.0729 408.663 64.498C408.663 65.1211 408.871 65.6081 409.286 65.959C409.701 66.3099 410.235 66.4854 410.887 66.4854ZM421.027 56.377V69.3428C421.027 71.5771 420.014 72.6943 417.987 72.6943C417.55 72.6943 417.146 72.6299 416.773 72.501V70.9111C417.003 70.9684 417.303 70.9971 417.676 70.9971C418.12 70.9971 418.456 70.8753 418.686 70.6318C418.922 70.3955 419.04 69.9801 419.04 69.3857V56.377H421.027ZM418.836 53.2939C418.836 52.9788 418.933 52.7103 419.126 52.4883C419.326 52.2591 419.617 52.1445 419.996 52.1445C420.383 52.1445 420.676 52.2555 420.877 52.4775C421.077 52.6995 421.178 52.9717 421.178 53.2939C421.178 53.6162 421.077 53.8848 420.877 54.0996C420.676 54.3145 420.383 54.4219 419.996 54.4219C419.609 54.4219 419.319 54.3145 419.126 54.0996C418.933 53.8848 418.836 53.6162 418.836 53.2939ZM431.415 66.8506C430.642 67.7601 429.507 68.2148 428.01 68.2148C426.771 68.2148 425.826 67.8568 425.174 67.1406C424.529 66.4173 424.203 65.3503 424.196 63.9395V56.377H426.184V63.8857C426.184 65.6475 426.9 66.5283 428.332 66.5283C429.85 66.5283 430.86 65.9626 431.361 64.8311V56.377H433.349V68H431.458L431.415 66.8506ZM435.895 62.0918C435.895 60.3086 436.317 58.8763 437.162 57.7949C438.007 56.7064 439.114 56.1621 440.481 56.1621C441.842 56.1621 442.92 56.6276 443.715 57.5586V51.5H445.702V68H443.876L443.779 66.7539C442.984 67.7279 441.878 68.2148 440.46 68.2148C439.114 68.2148 438.014 67.6634 437.162 66.5605C436.317 65.4577 435.895 64.0182 435.895 62.2422V62.0918ZM437.882 62.3174C437.882 63.6351 438.154 64.6663 438.698 65.4111C439.243 66.1559 439.994 66.5283 440.954 66.5283C442.215 66.5283 443.135 65.9626 443.715 64.8311V59.4922C443.12 58.3965 442.207 57.8486 440.976 57.8486C440.002 57.8486 439.243 58.2246 438.698 58.9766C438.154 59.7285 437.882 60.8421 437.882 62.3174ZM455.972 68C455.857 67.7708 455.764 67.3626 455.692 66.7754C454.769 67.735 453.666 68.2148 452.384 68.2148C451.238 68.2148 450.296 67.8926 449.559 67.248C448.828 66.5964 448.463 65.7728 448.463 64.7773C448.463 63.5671 448.921 62.6289 449.838 61.9629C450.762 61.2897 452.058 60.9531 453.727 60.9531H455.66V60.04C455.66 59.3454 455.452 58.7939 455.037 58.3857C454.622 57.9704 454.009 57.7627 453.2 57.7627C452.491 57.7627 451.897 57.9417 451.417 58.2998C450.937 58.6579 450.697 59.0911 450.697 59.5996H448.699C448.699 59.0195 448.903 58.4609 449.312 57.9238C449.727 57.3796 450.285 56.9499 450.987 56.6348C451.696 56.3197 452.473 56.1621 453.318 56.1621C454.658 56.1621 455.707 56.4987 456.466 57.1719C457.225 57.8379 457.619 58.7581 457.647 59.9326V65.2822C457.647 66.3493 457.784 67.1979 458.056 67.8281V68H455.972ZM452.674 66.4854C453.297 66.4854 453.888 66.3242 454.446 66.002C455.005 65.6797 455.41 65.2607 455.66 64.7451V62.3604H454.103C451.668 62.3604 450.45 63.0729 450.45 64.498C450.45 65.1211 450.658 65.6081 451.073 65.959C451.489 66.3099 452.022 66.4854 452.674 66.4854ZM466.381 58.1602C466.08 58.11 465.754 58.085 465.403 58.085C464.1 58.085 463.215 58.64 462.75 59.75V68H460.763V56.377H462.696L462.729 57.7197C463.38 56.6813 464.304 56.1621 465.5 56.1621C465.887 56.1621 466.18 56.2122 466.381 56.3125V58.1602ZM480.851 68C480.736 67.7708 480.643 67.3626 480.571 66.7754C479.647 67.735 478.545 68.2148 477.263 68.2148C476.117 68.2148 475.175 67.8926 474.438 67.248C473.707 66.5964 473.342 65.7728 473.342 64.7773C473.342 63.5671 473.8 62.6289 474.717 61.9629C475.641 61.2897 476.937 60.9531 478.605 60.9531H480.539V60.04C480.539 59.3454 480.331 58.7939 479.916 58.3857C479.501 57.9704 478.888 57.7627 478.079 57.7627C477.37 57.7627 476.776 57.9417 476.296 58.2998C475.816 58.6579 475.576 59.0911 475.576 59.5996H473.578C473.578 59.0195 473.782 58.4609 474.19 57.9238C474.606 57.3796 475.164 56.9499 475.866 56.6348C476.575 56.3197 477.352 56.1621 478.197 56.1621C479.536 56.1621 480.586 56.4987 481.345 57.1719C482.104 57.8379 482.498 58.7581 482.526 59.9326V65.2822C482.526 66.3493 482.662 67.1979 482.935 67.8281V68H480.851ZM477.553 66.4854C478.176 66.4854 478.767 66.3242 479.325 66.002C479.884 65.6797 480.288 65.2607 480.539 64.7451V62.3604H478.981C476.547 62.3604 475.329 63.0729 475.329 64.498C475.329 65.1211 475.537 65.6081 475.952 65.959C476.368 66.3099 476.901 66.4854 477.553 66.4854ZM492.409 64.917C492.409 64.3799 492.205 63.9645 491.797 63.6709C491.396 63.3701 490.69 63.1123 489.681 62.8975C488.678 62.6826 487.88 62.4248 487.285 62.124C486.698 61.8232 486.261 61.4652 485.975 61.0498C485.695 60.6344 485.556 60.1403 485.556 59.5674C485.556 58.6149 485.957 57.8092 486.759 57.1504C487.568 56.4915 488.599 56.1621 489.853 56.1621C491.17 56.1621 492.237 56.5023 493.054 57.1826C493.877 57.863 494.289 58.7331 494.289 59.793H492.291C492.291 59.2487 492.058 58.7796 491.593 58.3857C491.134 57.9919 490.554 57.7949 489.853 57.7949C489.129 57.7949 488.563 57.9525 488.155 58.2676C487.747 58.5827 487.543 58.9945 487.543 59.5029C487.543 59.9827 487.733 60.3444 488.112 60.5879C488.492 60.8314 489.176 61.0641 490.164 61.2861C491.16 61.5081 491.965 61.7731 492.581 62.0811C493.197 62.389 493.652 62.7614 493.945 63.1982C494.246 63.6279 494.396 64.1543 494.396 64.7773C494.396 65.8158 493.981 66.6501 493.15 67.2803C492.32 67.9033 491.242 68.2148 489.917 68.2148C488.986 68.2148 488.162 68.0501 487.446 67.7207C486.73 67.3913 486.168 66.9329 485.76 66.3457C485.359 65.7513 485.158 65.1104 485.158 64.4229H487.146C487.181 65.0889 487.446 65.6188 487.94 66.0127C488.442 66.3994 489.101 66.5928 489.917 66.5928C490.669 66.5928 491.271 66.4424 491.722 66.1416C492.18 65.8337 492.409 65.4255 492.409 64.917ZM507.266 68.2148C505.69 68.2148 504.408 67.6992 503.42 66.668C502.432 65.6296 501.938 64.2438 501.938 62.5107V62.1455C501.938 60.9925 502.156 59.9648 502.593 59.0625C503.037 58.153 503.653 57.444 504.44 56.9355C505.235 56.4199 506.095 56.1621 507.019 56.1621C508.53 56.1621 509.704 56.6598 510.542 57.6553C511.38 58.6507 511.799 60.0758 511.799 61.9307V62.7578H503.925C503.953 63.9036 504.286 64.8311 504.924 65.54C505.568 66.2419 506.385 66.5928 507.373 66.5928C508.075 66.5928 508.669 66.4495 509.156 66.1631C509.643 65.8766 510.069 65.4971 510.435 65.0244L511.648 65.9697C510.674 67.4665 509.214 68.2148 507.266 68.2148ZM507.019 57.7949C506.216 57.7949 505.543 58.0885 504.999 58.6758C504.455 59.2559 504.118 60.0723 503.989 61.125H509.812V60.9746C509.754 59.9648 509.482 59.1842 508.995 58.6328C508.508 58.0742 507.849 57.7949 507.019 57.7949ZM515.978 56.377L516.031 57.666C516.883 56.6634 518.033 56.1621 519.479 56.1621C521.105 56.1621 522.212 56.7852 522.799 58.0312C523.186 57.4727 523.687 57.0215 524.303 56.6777C524.926 56.334 525.66 56.1621 526.505 56.1621C529.054 56.1621 530.351 57.512 530.394 60.2119V68H528.406V60.3301C528.406 59.4993 528.216 58.8799 527.837 58.4717C527.457 58.0563 526.82 57.8486 525.925 57.8486C525.187 57.8486 524.575 58.0706 524.088 58.5146C523.601 58.9515 523.318 59.5423 523.239 60.2871V68H521.241V60.3838C521.241 58.6937 520.414 57.8486 518.76 57.8486C517.456 57.8486 516.565 58.4036 516.085 59.5137V68H514.098V56.377H515.978ZM543.22 62.3174C543.22 64.0863 542.815 65.5114 542.006 66.5928C541.197 67.6742 540.101 68.2148 538.719 68.2148C537.308 68.2148 536.198 67.7673 535.389 66.8721V72.4688H533.401V56.377H535.217L535.313 57.666C536.123 56.6634 537.247 56.1621 538.687 56.1621C540.083 56.1621 541.186 56.6885 541.995 57.7412C542.812 58.7939 543.22 60.2585 543.22 62.1348V62.3174ZM541.232 62.0918C541.232 60.7812 540.953 59.7464 540.395 58.9873C539.836 58.2282 539.07 57.8486 538.096 57.8486C536.893 57.8486 535.99 58.3822 535.389 59.4492V65.0029C535.983 66.0628 536.893 66.5928 538.117 66.5928C539.07 66.5928 539.825 66.2168 540.384 65.4648C540.95 64.7057 541.232 63.5814 541.232 62.0918ZM551.373 58.1602C551.072 58.11 550.746 58.085 550.396 58.085C549.092 58.085 548.208 58.64 547.742 59.75V68H545.755V56.377H547.688L547.721 57.7197C548.372 56.6813 549.296 56.1621 550.492 56.1621C550.879 56.1621 551.173 56.2122 551.373 56.3125V58.1602ZM557.818 68.2148C556.243 68.2148 554.961 67.6992 553.973 66.668C552.984 65.6296 552.49 64.2438 552.49 62.5107V62.1455C552.49 60.9925 552.709 59.9648 553.146 59.0625C553.59 58.153 554.205 57.444 554.993 56.9355C555.788 56.4199 556.647 56.1621 557.571 56.1621C559.082 56.1621 560.257 56.6598 561.095 57.6553C561.933 58.6507 562.352 60.0758 562.352 61.9307V62.7578H554.478C554.506 63.9036 554.839 64.8311 555.477 65.54C556.121 66.2419 556.938 66.5928 557.926 66.5928C558.628 66.5928 559.222 66.4495 559.709 66.1631C560.196 65.8766 560.622 65.4971 560.987 65.0244L562.201 65.9697C561.227 67.4665 559.766 68.2148 557.818 68.2148ZM557.571 57.7949C556.769 57.7949 556.096 58.0885 555.552 58.6758C555.007 59.2559 554.671 60.0723 554.542 61.125H560.364V60.9746C560.307 59.9648 560.035 59.1842 559.548 58.6328C559.061 58.0742 558.402 57.7949 557.571 57.7949ZM571.429 64.917C571.429 64.3799 571.225 63.9645 570.816 63.6709C570.415 63.3701 569.71 63.1123 568.7 62.8975C567.698 62.6826 566.899 62.4248 566.305 62.124C565.717 61.8232 565.281 61.4652 564.994 61.0498C564.715 60.6344 564.575 60.1403 564.575 59.5674C564.575 58.6149 564.976 57.8092 565.778 57.1504C566.588 56.4915 567.619 56.1621 568.872 56.1621C570.19 56.1621 571.257 56.5023 572.073 57.1826C572.897 57.863 573.309 58.7331 573.309 59.793H571.311C571.311 59.2487 571.078 58.7796 570.612 58.3857C570.154 57.9919 569.574 57.7949 568.872 57.7949C568.149 57.7949 567.583 57.9525 567.175 58.2676C566.767 58.5827 566.562 58.9945 566.562 59.5029C566.562 59.9827 566.752 60.3444 567.132 60.5879C567.511 60.8314 568.195 61.0641 569.184 61.2861C570.179 61.5081 570.985 61.7731 571.601 62.0811C572.216 62.389 572.671 62.7614 572.965 63.1982C573.266 63.6279 573.416 64.1543 573.416 64.7773C573.416 65.8158 573.001 66.6501 572.17 67.2803C571.339 67.9033 570.261 68.2148 568.937 68.2148C568.006 68.2148 567.182 68.0501 566.466 67.7207C565.75 67.3913 565.188 66.9329 564.779 66.3457C564.378 65.7513 564.178 65.1104 564.178 64.4229H566.165C566.201 65.0889 566.466 65.6188 566.96 66.0127C567.461 66.3994 568.12 66.5928 568.937 66.5928C569.688 66.5928 570.29 66.4424 570.741 66.1416C571.2 65.8337 571.429 65.4255 571.429 64.917ZM583.181 68C583.066 67.7708 582.973 67.3626 582.901 66.7754C581.978 67.735 580.875 68.2148 579.593 68.2148C578.447 68.2148 577.505 67.8926 576.768 67.248C576.037 66.5964 575.672 65.7728 575.672 64.7773C575.672 63.5671 576.13 62.6289 577.047 61.9629C577.971 61.2897 579.267 60.9531 580.936 60.9531H582.869V60.04C582.869 59.3454 582.661 58.7939 582.246 58.3857C581.831 57.9704 581.218 57.7627 580.409 57.7627C579.7 57.7627 579.106 57.9417 578.626 58.2998C578.146 58.6579 577.906 59.0911 577.906 59.5996H575.908C575.908 59.0195 576.112 58.4609 576.521 57.9238C576.936 57.3796 577.494 56.9499 578.196 56.6348C578.905 56.3197 579.682 56.1621 580.527 56.1621C581.867 56.1621 582.916 56.4987 583.675 57.1719C584.434 57.8379 584.828 58.7581 584.856 59.9326V65.2822C584.856 66.3493 584.993 67.1979 585.265 67.8281V68H583.181ZM579.883 66.4854C580.506 66.4854 581.097 66.3242 581.655 66.002C582.214 65.6797 582.618 65.2607 582.869 64.7451V62.3604H581.312C578.877 62.3604 577.659 63.0729 577.659 64.498C577.659 65.1211 577.867 65.6081 578.282 65.959C578.698 66.3099 579.231 66.4854 579.883 66.4854ZM594.739 64.917C594.739 64.3799 594.535 63.9645 594.127 63.6709C593.726 63.3701 593.021 63.1123 592.011 62.8975C591.008 62.6826 590.21 62.4248 589.615 62.124C589.028 61.8232 588.591 61.4652 588.305 61.0498C588.025 60.6344 587.886 60.1403 587.886 59.5674C587.886 58.6149 588.287 57.8092 589.089 57.1504C589.898 56.4915 590.929 56.1621 592.183 56.1621C593.5 56.1621 594.567 56.5023 595.384 57.1826C596.207 57.863 596.619 58.7331 596.619 59.793H594.621C594.621 59.2487 594.388 58.7796 593.923 58.3857C593.465 57.9919 592.884 57.7949 592.183 57.7949C591.459 57.7949 590.894 57.9525 590.485 58.2676C590.077 58.5827 589.873 58.9945 589.873 59.5029C589.873 59.9827 590.063 60.3444 590.442 60.5879C590.822 60.8314 591.506 61.0641 592.494 61.2861C593.49 61.5081 594.295 61.7731 594.911 62.0811C595.527 62.389 595.982 62.7614 596.275 63.1982C596.576 63.6279 596.727 64.1543 596.727 64.7773C596.727 65.8158 596.311 66.6501 595.48 67.2803C594.65 67.9033 593.572 68.2148 592.247 68.2148C591.316 68.2148 590.493 68.0501 589.776 67.7207C589.06 67.3913 588.498 66.9329 588.09 66.3457C587.689 65.7513 587.488 65.1104 587.488 64.4229H589.476C589.511 65.0889 589.776 65.6188 590.271 66.0127C590.772 66.3994 591.431 66.5928 592.247 66.5928C592.999 66.5928 593.601 66.4424 594.052 66.1416C594.51 65.8337 594.739 65.4255 594.739 64.917ZM611.948 68C611.834 67.7708 611.741 67.3626 611.669 66.7754C610.745 67.735 609.642 68.2148 608.36 68.2148C607.215 68.2148 606.273 67.8926 605.535 67.248C604.805 66.5964 604.439 65.7728 604.439 64.7773C604.439 63.5671 604.898 62.6289 605.814 61.9629C606.738 61.2897 608.035 60.9531 609.703 60.9531H611.637V60.04C611.637 59.3454 611.429 58.7939 611.014 58.3857C610.598 57.9704 609.986 57.7627 609.177 57.7627C608.468 57.7627 607.873 57.9417 607.394 58.2998C606.914 58.6579 606.674 59.0911 606.674 59.5996H604.676C604.676 59.0195 604.88 58.4609 605.288 57.9238C605.703 57.3796 606.262 56.9499 606.964 56.6348C607.673 56.3197 608.45 56.1621 609.295 56.1621C610.634 56.1621 611.683 56.4987 612.442 57.1719C613.201 57.8379 613.595 58.7581 613.624 59.9326V65.2822C613.624 66.3493 613.76 67.1979 614.032 67.8281V68H611.948ZM608.65 66.4854C609.273 66.4854 609.864 66.3242 610.423 66.002C610.981 65.6797 611.386 65.2607 611.637 64.7451V62.3604H610.079C607.644 62.3604 606.427 63.0729 606.427 64.498C606.427 65.1211 606.634 65.6081 607.05 65.959C607.465 66.3099 607.999 66.4854 608.65 66.4854ZM629.372 68C629.257 67.7708 629.164 67.3626 629.093 66.7754C628.169 67.735 627.066 68.2148 625.784 68.2148C624.638 68.2148 623.697 67.8926 622.959 67.248C622.229 66.5964 621.863 65.7728 621.863 64.7773C621.863 63.5671 622.322 62.6289 623.238 61.9629C624.162 61.2897 625.458 60.9531 627.127 60.9531H629.061V60.04C629.061 59.3454 628.853 58.7939 628.438 58.3857C628.022 57.9704 627.41 57.7627 626.601 57.7627C625.892 57.7627 625.297 57.9417 624.817 58.2998C624.338 58.6579 624.098 59.0911 624.098 59.5996H622.1C622.1 59.0195 622.304 58.4609 622.712 57.9238C623.127 57.3796 623.686 56.9499 624.388 56.6348C625.097 56.3197 625.874 56.1621 626.719 56.1621C628.058 56.1621 629.107 56.4987 629.866 57.1719C630.625 57.8379 631.019 58.7581 631.048 59.9326V65.2822C631.048 66.3493 631.184 67.1979 631.456 67.8281V68H629.372ZM626.074 66.4854C626.697 66.4854 627.288 66.3242 627.847 66.002C628.405 65.6797 628.81 65.2607 629.061 64.7451V62.3604H627.503C625.068 62.3604 623.851 63.0729 623.851 64.498C623.851 65.1211 624.058 65.6081 624.474 65.959C624.889 66.3099 625.423 66.4854 626.074 66.4854ZM643.981 62.3174C643.981 64.0863 643.577 65.5114 642.768 66.5928C641.958 67.6742 640.863 68.2148 639.48 68.2148C638.07 68.2148 636.96 67.7673 636.15 66.8721V72.4688H634.163V56.377H635.979L636.075 57.666C636.884 56.6634 638.009 56.1621 639.448 56.1621C640.845 56.1621 641.948 56.6885 642.757 57.7412C643.573 58.7939 643.981 60.2585 643.981 62.1348V62.3174ZM641.994 62.0918C641.994 60.7812 641.715 59.7464 641.156 58.9873C640.598 58.2282 639.831 57.8486 638.857 57.8486C637.654 57.8486 636.752 58.3822 636.15 59.4492V65.0029C636.745 66.0628 637.654 66.5928 638.879 66.5928C639.831 66.5928 640.587 66.2168 641.146 65.4648C641.711 64.7057 641.994 63.5814 641.994 62.0918ZM652.135 58.1602C651.834 58.11 651.508 58.085 651.157 58.085C649.854 58.085 648.969 58.64 648.504 59.75V68H646.517V56.377H648.45L648.482 57.7197C649.134 56.6813 650.058 56.1621 651.254 56.1621C651.641 56.1621 651.934 56.2122 652.135 56.3125V58.1602ZM656.131 68H654.144V56.377H656.131V68ZM653.982 53.2939C653.982 52.9717 654.079 52.6995 654.272 52.4775C654.473 52.2555 654.767 52.1445 655.153 52.1445C655.54 52.1445 655.834 52.2555 656.034 52.4775C656.235 52.6995 656.335 52.9717 656.335 53.2939C656.335 53.6162 656.235 53.8848 656.034 54.0996C655.834 54.3145 655.54 54.4219 655.153 54.4219C654.767 54.4219 654.473 54.3145 654.272 54.0996C654.079 53.8848 653.982 53.6162 653.982 53.2939ZM661.19 56.377L661.244 57.666C662.096 56.6634 663.246 56.1621 664.692 56.1621C666.318 56.1621 667.424 56.7852 668.012 58.0312C668.398 57.4727 668.9 57.0215 669.516 56.6777C670.139 56.334 670.873 56.1621 671.718 56.1621C674.267 56.1621 675.563 57.512 675.606 60.2119V68H673.619V60.3301C673.619 59.4993 673.429 58.8799 673.05 58.4717C672.67 58.0563 672.033 57.8486 671.138 57.8486C670.4 57.8486 669.788 58.0706 669.301 58.5146C668.814 58.9515 668.531 59.5423 668.452 60.2871V68H666.454V60.3838C666.454 58.6937 665.627 57.8486 663.973 57.8486C662.669 57.8486 661.778 58.4036 661.298 59.5137V68H659.311V56.377H661.19ZM678.088 62.0811C678.088 60.9424 678.31 59.9183 678.754 59.0088C679.205 58.0993 679.828 57.3975 680.623 56.9033C681.425 56.4092 682.338 56.1621 683.362 56.1621C684.945 56.1621 686.223 56.71 687.197 57.8057C688.178 58.9014 688.669 60.3587 688.669 62.1777V62.3174C688.669 63.4489 688.451 64.4658 688.014 65.3682C687.584 66.2633 686.965 66.9616 686.155 67.4629C685.353 67.9642 684.429 68.2148 683.384 68.2148C681.808 68.2148 680.53 67.667 679.549 66.5713C678.575 65.4756 678.088 64.0254 678.088 62.2207V62.0811ZM680.086 62.3174C680.086 63.6064 680.383 64.6413 680.978 65.4219C681.579 66.2025 682.381 66.5928 683.384 66.5928C684.394 66.5928 685.196 66.1989 685.79 65.4111C686.384 64.6162 686.682 63.5062 686.682 62.0811C686.682 60.8063 686.377 59.7751 685.769 58.9873C685.167 58.1924 684.365 57.7949 683.362 57.7949C682.381 57.7949 681.59 58.1852 680.988 58.9658C680.387 59.7464 680.086 60.8636 680.086 62.3174ZM696.779 58.1602C696.479 58.11 696.153 58.085 695.802 58.085C694.498 58.085 693.614 58.64 693.148 59.75V68H691.161V56.377H693.095L693.127 57.7197C693.779 56.6813 694.702 56.1621 695.898 56.1621C696.285 56.1621 696.579 56.2122 696.779 56.3125V58.1602ZM705.362 68C705.248 67.7708 705.155 67.3626 705.083 66.7754C704.159 67.735 703.056 68.2148 701.774 68.2148C700.629 68.2148 699.687 67.8926 698.949 67.248C698.219 66.5964 697.854 65.7728 697.854 64.7773C697.854 63.5671 698.312 62.6289 699.229 61.9629C700.152 61.2897 701.449 60.9531 703.117 60.9531H705.051V60.04C705.051 59.3454 704.843 58.7939 704.428 58.3857C704.012 57.9704 703.4 57.7627 702.591 57.7627C701.882 57.7627 701.287 57.9417 700.808 58.2998C700.328 58.6579 700.088 59.0911 700.088 59.5996H698.09C698.09 59.0195 698.294 58.4609 698.702 57.9238C699.118 57.3796 699.676 56.9499 700.378 56.6348C701.087 56.3197 701.864 56.1621 702.709 56.1621C704.048 56.1621 705.097 56.4987 705.856 57.1719C706.616 57.8379 707.009 58.7581 707.038 59.9326V65.2822C707.038 66.3493 707.174 67.1979 707.446 67.8281V68H705.362ZM702.064 66.4854C702.688 66.4854 703.278 66.3242 703.837 66.002C704.396 65.6797 704.8 65.2607 705.051 64.7451V62.3604H703.493C701.058 62.3604 699.841 63.0729 699.841 64.498C699.841 65.1211 700.049 65.6081 700.464 65.959C700.879 66.3099 701.413 66.4854 702.064 66.4854ZM715.771 58.1602C715.471 58.11 715.145 58.085 714.794 58.085C713.491 58.085 712.606 58.64 712.141 59.75V68H710.153V56.377H712.087L712.119 57.7197C712.771 56.6813 713.695 56.1621 714.891 56.1621C715.277 56.1621 715.571 56.2122 715.771 56.3125V58.1602ZM729.833 64.917C729.833 64.3799 729.629 63.9645 729.221 63.6709C728.82 63.3701 728.114 63.1123 727.104 62.8975C726.102 62.6826 725.303 62.4248 724.709 62.124C724.122 61.8232 723.685 61.4652 723.398 61.0498C723.119 60.6344 722.979 60.1403 722.979 59.5674C722.979 58.6149 723.381 57.8092 724.183 57.1504C724.992 56.4915 726.023 56.1621 727.276 56.1621C728.594 56.1621 729.661 56.5023 730.478 57.1826C731.301 57.863 731.713 58.7331 731.713 59.793H729.715C729.715 59.2487 729.482 58.7796 729.017 58.3857C728.558 57.9919 727.978 57.7949 727.276 57.7949C726.553 57.7949 725.987 57.9525 725.579 58.2676C725.171 58.5827 724.967 58.9945 724.967 59.5029C724.967 59.9827 725.157 60.3444 725.536 60.5879C725.916 60.8314 726.6 61.0641 727.588 61.2861C728.583 61.5081 729.389 61.7731 730.005 62.0811C730.621 62.389 731.076 62.7614 731.369 63.1982C731.67 63.6279 731.82 64.1543 731.82 64.7773C731.82 65.8158 731.405 66.6501 730.574 67.2803C729.743 67.9033 728.666 68.2148 727.341 68.2148C726.41 68.2148 725.586 68.0501 724.87 67.7207C724.154 67.3913 723.592 66.9329 723.184 66.3457C722.783 65.7513 722.582 65.1104 722.582 64.4229H724.569C724.605 65.0889 724.87 65.6188 725.364 66.0127C725.866 66.3994 726.524 66.5928 727.341 66.5928C728.093 66.5928 728.694 66.4424 729.146 66.1416C729.604 65.8337 729.833 65.4255 729.833 64.917ZM739.232 68.2148C737.657 68.2148 736.375 67.6992 735.387 66.668C734.398 65.6296 733.904 64.2438 733.904 62.5107V62.1455C733.904 60.9925 734.123 59.9648 734.56 59.0625C735.004 58.153 735.619 57.444 736.407 56.9355C737.202 56.4199 738.062 56.1621 738.985 56.1621C740.496 56.1621 741.671 56.6598 742.509 57.6553C743.347 58.6507 743.766 60.0758 743.766 61.9307V62.7578H735.892C735.92 63.9036 736.253 64.8311 736.891 65.54C737.535 66.2419 738.352 66.5928 739.34 66.5928C740.042 66.5928 740.636 66.4495 741.123 66.1631C741.61 65.8766 742.036 65.4971 742.401 65.0244L743.615 65.9697C742.641 67.4665 741.18 68.2148 739.232 68.2148ZM738.985 57.7949C738.183 57.7949 737.51 58.0885 736.966 58.6758C736.422 59.2559 736.085 60.0723 735.956 61.125H741.778V60.9746C741.721 59.9648 741.449 59.1842 740.962 58.6328C740.475 58.0742 739.816 57.7949 738.985 57.7949ZM753.251 66.8506C752.478 67.7601 751.342 68.2148 749.846 68.2148C748.607 68.2148 747.661 67.8568 747.01 67.1406C746.365 66.4173 746.039 65.3503 746.032 63.9395V56.377H748.02V63.8857C748.02 65.6475 748.736 66.5283 750.168 66.5283C751.686 66.5283 752.696 65.9626 753.197 64.8311V56.377H755.185V68H753.294L753.251 66.8506ZM773.489 62.3174C773.489 64.0863 773.085 65.5114 772.275 66.5928C771.466 67.6742 770.37 68.2148 768.988 68.2148C767.577 68.2148 766.467 67.7673 765.658 66.8721V72.4688H763.671V56.377H765.486L765.583 57.666C766.392 56.6634 767.517 56.1621 768.956 56.1621C770.353 56.1621 771.455 56.6885 772.265 57.7412C773.081 58.7939 773.489 60.2585 773.489 62.1348V62.3174ZM771.502 62.0918C771.502 60.7812 771.223 59.7464 770.664 58.9873C770.105 58.2282 769.339 57.8486 768.365 57.8486C767.162 57.8486 766.26 58.3822 765.658 59.4492V65.0029C766.253 66.0628 767.162 66.5928 768.387 66.5928C769.339 66.5928 770.095 66.2168 770.653 65.4648C771.219 64.7057 771.502 63.5814 771.502 62.0918ZM781.643 58.1602C781.342 58.11 781.016 58.085 780.665 58.085C779.362 58.085 778.477 58.64 778.012 59.75V68H776.024V56.377H777.958L777.99 57.7197C778.642 56.6813 779.566 56.1621 780.762 56.1621C781.148 56.1621 781.442 56.2122 781.643 56.3125V58.1602ZM782.738 62.0811C782.738 60.9424 782.96 59.9183 783.404 59.0088C783.855 58.0993 784.479 57.3975 785.273 56.9033C786.076 56.4092 786.989 56.1621 788.013 56.1621C789.595 56.1621 790.874 56.71 791.848 57.8057C792.829 58.9014 793.319 60.3587 793.319 62.1777V62.3174C793.319 63.4489 793.101 64.4658 792.664 65.3682C792.234 66.2633 791.615 66.9616 790.806 67.4629C790.004 67.9642 789.08 68.2148 788.034 68.2148C786.459 68.2148 785.18 67.667 784.199 66.5713C783.225 65.4756 782.738 64.0254 782.738 62.2207V62.0811ZM784.736 62.3174C784.736 63.6064 785.034 64.6413 785.628 65.4219C786.229 66.2025 787.032 66.5928 788.034 66.5928C789.044 66.5928 789.846 66.1989 790.44 65.4111C791.035 64.6162 791.332 63.5062 791.332 62.0811C791.332 60.8063 791.028 59.7751 790.419 58.9873C789.817 58.1924 789.015 57.7949 788.013 57.7949C787.032 57.7949 786.24 58.1852 785.639 58.9658C785.037 59.7464 784.736 60.8636 784.736 62.3174ZM795.339 62.0918C795.339 60.2799 795.758 58.8405 796.596 57.7734C797.434 56.6992 798.544 56.1621 799.926 56.1621C801.344 56.1621 802.45 56.6634 803.245 57.666L803.342 56.377H805.157V67.7207C805.157 69.2246 804.71 70.4098 803.814 71.2764C802.926 72.1429 801.73 72.5762 800.227 72.5762C799.389 72.5762 798.569 72.3971 797.767 72.0391C796.965 71.681 796.352 71.1904 795.93 70.5674L796.961 69.375C797.813 70.4277 798.855 70.9541 800.087 70.9541C801.054 70.9541 801.806 70.682 802.343 70.1377C802.887 69.5934 803.159 68.8271 803.159 67.8389V66.8398C802.364 67.7565 801.279 68.2148 799.904 68.2148C798.544 68.2148 797.441 67.667 796.596 66.5713C795.758 65.4756 795.339 63.9824 795.339 62.0918ZM797.337 62.3174C797.337 63.6279 797.605 64.6592 798.143 65.4111C798.68 66.1559 799.432 66.5283 800.398 66.5283C801.652 66.5283 802.572 65.959 803.159 64.8203V59.5137C802.55 58.4036 801.637 57.8486 800.42 57.8486C799.453 57.8486 798.698 58.2246 798.153 58.9766C797.609 59.7285 797.337 60.8421 797.337 62.3174ZM813.783 58.1602C813.482 58.11 813.157 58.085 812.806 58.085C811.502 58.085 810.618 58.64 810.152 59.75V68H808.165V56.377H810.099L810.131 57.7197C810.783 56.6813 811.706 56.1621 812.902 56.1621C813.289 56.1621 813.583 56.2122 813.783 56.3125V58.1602ZM822.366 68C822.252 67.7708 822.159 67.3626 822.087 66.7754C821.163 67.735 820.06 68.2148 818.778 68.2148C817.632 68.2148 816.691 67.8926 815.953 67.248C815.223 66.5964 814.857 65.7728 814.857 64.7773C814.857 63.5671 815.316 62.6289 816.232 61.9629C817.156 61.2897 818.452 60.9531 820.121 60.9531H822.055V60.04C822.055 59.3454 821.847 58.7939 821.432 58.3857C821.016 57.9704 820.404 57.7627 819.595 57.7627C818.886 57.7627 818.291 57.9417 817.812 58.2998C817.332 58.6579 817.092 59.0911 817.092 59.5996H815.094C815.094 59.0195 815.298 58.4609 815.706 57.9238C816.121 57.3796 816.68 56.9499 817.382 56.6348C818.091 56.3197 818.868 56.1621 819.713 56.1621C821.052 56.1621 822.101 56.4987 822.86 57.1719C823.619 57.8379 824.013 58.7581 824.042 59.9326V65.2822C824.042 66.3493 824.178 67.1979 824.45 67.8281V68H822.366ZM819.068 66.4854C819.691 66.4854 820.282 66.3242 820.841 66.002C821.399 65.6797 821.804 65.2607 822.055 64.7451V62.3604H820.497C818.062 62.3604 816.845 63.0729 816.845 64.498C816.845 65.1211 817.052 65.6081 817.468 65.959C817.883 66.3099 818.417 66.4854 819.068 66.4854ZM829.026 56.377L829.08 57.666C829.932 56.6634 831.082 56.1621 832.528 56.1621C834.154 56.1621 835.26 56.7852 835.848 58.0312C836.234 57.4727 836.736 57.0215 837.352 56.6777C837.975 56.334 838.709 56.1621 839.554 56.1621C842.103 56.1621 843.399 57.512 843.442 60.2119V68H841.455V60.3301C841.455 59.4993 841.265 58.8799 840.886 58.4717C840.506 58.0563 839.869 57.8486 838.974 57.8486C838.236 57.8486 837.624 58.0706 837.137 58.5146C836.65 58.9515 836.367 59.5423 836.288 60.2871V68H834.29V60.3838C834.29 58.6937 833.463 57.8486 831.809 57.8486C830.505 57.8486 829.614 58.4036 829.134 59.5137V68H827.146V56.377H829.026ZM853.626 68C853.511 67.7708 853.418 67.3626 853.347 66.7754C852.423 67.735 851.32 68.2148 850.038 68.2148C848.892 68.2148 847.951 67.8926 847.213 67.248C846.482 66.5964 846.117 65.7728 846.117 64.7773C846.117 63.5671 846.576 62.6289 847.492 61.9629C848.416 61.2897 849.712 60.9531 851.381 60.9531H853.314V60.04C853.314 59.3454 853.107 58.7939 852.691 58.3857C852.276 57.9704 851.664 57.7627 850.854 57.7627C850.146 57.7627 849.551 57.9417 849.071 58.2998C848.591 58.6579 848.352 59.0911 848.352 59.5996H846.354C846.354 59.0195 846.558 58.4609 846.966 57.9238C847.381 57.3796 847.94 56.9499 848.642 56.6348C849.351 56.3197 850.128 56.1621 850.973 56.1621C852.312 56.1621 853.361 56.4987 854.12 57.1719C854.879 57.8379 855.273 58.7581 855.302 59.9326V65.2822C855.302 66.3493 855.438 67.1979 855.71 67.8281V68H853.626ZM850.328 66.4854C850.951 66.4854 851.542 66.3242 852.101 66.002C852.659 65.6797 853.064 65.2607 853.314 64.7451V62.3604H851.757C849.322 62.3604 848.104 63.0729 848.104 64.498C848.104 65.1211 848.312 65.6081 848.728 65.959C849.143 66.3099 849.676 66.4854 850.328 66.4854ZM58.8115 88.0918C58.8115 86.3086 59.234 84.8763 60.0791 83.7949C60.9242 82.7064 62.0306 82.1621 63.3984 82.1621C64.7591 82.1621 65.8369 82.6276 66.6318 83.5586V77.5H68.6191V94H66.793L66.6963 92.7539C65.9014 93.7279 64.7949 94.2148 63.377 94.2148C62.0306 94.2148 60.9313 93.6634 60.0791 92.5605C59.234 91.4577 58.8115 90.0182 58.8115 88.2422V88.0918ZM60.7988 88.3174C60.7988 89.6351 61.071 90.6663 61.6152 91.4111C62.1595 92.1559 62.9115 92.5283 63.8711 92.5283C65.1315 92.5283 66.0518 91.9626 66.6318 90.8311V85.4922C66.0374 84.3965 65.1243 83.8486 63.8926 83.8486C62.9186 83.8486 62.1595 84.2246 61.6152 84.9766C61.071 85.7285 60.7988 86.8421 60.7988 88.3174ZM76.5361 94.2148C74.9606 94.2148 73.6787 93.6992 72.6904 92.668C71.7021 91.6296 71.208 90.2438 71.208 88.5107V88.1455C71.208 86.9925 71.4264 85.9648 71.8633 85.0625C72.3073 84.153 72.9232 83.444 73.7109 82.9355C74.5059 82.4199 75.3652 82.1621 76.2891 82.1621C77.8001 82.1621 78.9746 82.6598 79.8125 83.6553C80.6504 84.6507 81.0693 86.0758 81.0693 87.9307V88.7578H73.1953C73.224 89.9036 73.557 90.8311 74.1943 91.54C74.8389 92.2419 75.6553 92.5928 76.6436 92.5928C77.3454 92.5928 77.9398 92.4495 78.4268 92.1631C78.9137 91.8766 79.3398 91.4971 79.7051 91.0244L80.9189 91.9697C79.945 93.4665 78.484 94.2148 76.5361 94.2148ZM76.2891 83.7949C75.487 83.7949 74.8138 84.0885 74.2695 84.6758C73.7253 85.2559 73.3887 86.0723 73.2598 87.125H79.082V86.9746C79.0247 85.9648 78.7526 85.1842 78.2656 84.6328C77.7786 84.0742 77.1198 83.7949 76.2891 83.7949ZM95.6035 90.917C95.6035 90.3799 95.3994 89.9645 94.9912 89.6709C94.5902 89.3701 93.8848 89.1123 92.875 88.8975C91.8724 88.6826 91.0739 88.4248 90.4795 88.124C89.8923 87.8232 89.4554 87.4652 89.1689 87.0498C88.8896 86.6344 88.75 86.1403 88.75 85.5674C88.75 84.6149 89.151 83.8092 89.9531 83.1504C90.7624 82.4915 91.7936 82.1621 93.0469 82.1621C94.3646 82.1621 95.4316 82.5023 96.248 83.1826C97.0716 83.863 97.4834 84.7331 97.4834 85.793H95.4854C95.4854 85.2487 95.2526 84.7796 94.7871 84.3857C94.3288 83.9919 93.7487 83.7949 93.0469 83.7949C92.3236 83.7949 91.7578 83.9525 91.3496 84.2676C90.9414 84.5827 90.7373 84.9945 90.7373 85.5029C90.7373 85.9827 90.9271 86.3444 91.3066 86.5879C91.6862 86.8314 92.3701 87.0641 93.3584 87.2861C94.3538 87.5081 95.1595 87.7731 95.7754 88.0811C96.3913 88.389 96.846 88.7614 97.1396 89.1982C97.4404 89.6279 97.5908 90.1543 97.5908 90.7773C97.5908 91.8158 97.1755 92.6501 96.3447 93.2803C95.514 93.9033 94.4362 94.2148 93.1113 94.2148C92.1803 94.2148 91.3568 94.0501 90.6406 93.7207C89.9245 93.3913 89.3623 92.9329 88.9541 92.3457C88.5531 91.7513 88.3525 91.1104 88.3525 90.4229H90.3398C90.3757 91.0889 90.6406 91.6188 91.1348 92.0127C91.6361 92.3994 92.2949 92.5928 93.1113 92.5928C93.8633 92.5928 94.4648 92.4424 94.916 92.1416C95.3743 91.8337 95.6035 91.4255 95.6035 90.917ZM105.003 94.2148C103.427 94.2148 102.146 93.6992 101.157 92.668C100.169 91.6296 99.6748 90.2438 99.6748 88.5107V88.1455C99.6748 86.9925 99.8932 85.9648 100.33 85.0625C100.774 84.153 101.39 83.444 102.178 82.9355C102.973 82.4199 103.832 82.1621 104.756 82.1621C106.267 82.1621 107.441 82.6598 108.279 83.6553C109.117 84.6507 109.536 86.0758 109.536 87.9307V88.7578H101.662C101.691 89.9036 102.024 90.8311 102.661 91.54C103.306 92.2419 104.122 92.5928 105.11 92.5928C105.812 92.5928 106.407 92.4495 106.894 92.1631C107.381 91.8766 107.807 91.4971 108.172 91.0244L109.386 91.9697C108.412 93.4665 106.951 94.2148 105.003 94.2148ZM104.756 83.7949C103.954 83.7949 103.281 84.0885 102.736 84.6758C102.192 85.2559 101.855 86.0723 101.727 87.125H107.549V86.9746C107.492 85.9648 107.219 85.1842 106.732 84.6328C106.245 84.0742 105.587 83.7949 104.756 83.7949ZM111.373 88.0918C111.373 86.2799 111.792 84.8405 112.63 83.7734C113.468 82.6992 114.578 82.1621 115.96 82.1621C117.378 82.1621 118.484 82.6634 119.279 83.666L119.376 82.377H121.191V93.7207C121.191 95.2246 120.744 96.4098 119.849 97.2764C118.961 98.1429 117.765 98.5762 116.261 98.5762C115.423 98.5762 114.603 98.3971 113.801 98.0391C112.999 97.681 112.386 97.1904 111.964 96.5674L112.995 95.375C113.847 96.4277 114.889 96.9541 116.121 96.9541C117.088 96.9541 117.84 96.682 118.377 96.1377C118.921 95.5934 119.193 94.8271 119.193 93.8389V92.8398C118.398 93.7565 117.313 94.2148 115.938 94.2148C114.578 94.2148 113.475 93.667 112.63 92.5713C111.792 91.4756 111.373 89.9824 111.373 88.0918ZM113.371 88.3174C113.371 89.6279 113.64 90.6592 114.177 91.4111C114.714 92.1559 115.466 92.5283 116.433 92.5283C117.686 92.5283 118.606 91.959 119.193 90.8203V85.5137C118.585 84.4036 117.672 83.8486 116.454 83.8486C115.487 83.8486 114.732 84.2246 114.188 84.9766C113.643 85.7285 113.371 86.8421 113.371 88.3174ZM131.375 92.8506C130.602 93.7601 129.466 94.2148 127.97 94.2148C126.731 94.2148 125.785 93.8568 125.134 93.1406C124.489 92.4173 124.163 91.3503 124.156 89.9395V82.377H126.144V89.8857C126.144 91.6475 126.86 92.5283 128.292 92.5283C129.81 92.5283 130.82 91.9626 131.321 90.8311V82.377H133.309V94H131.418L131.375 92.8506ZM141.956 84.1602C141.655 84.11 141.329 84.085 140.979 84.085C139.675 84.085 138.791 84.64 138.325 85.75V94H136.338V82.377H138.271L138.304 83.7197C138.955 82.6813 139.879 82.1621 141.075 82.1621C141.462 82.1621 141.756 82.2122 141.956 82.3125V84.1602ZM150.539 94C150.424 93.7708 150.331 93.3626 150.26 92.7754C149.336 93.735 148.233 94.2148 146.951 94.2148C145.805 94.2148 144.864 93.8926 144.126 93.248C143.396 92.5964 143.03 91.7728 143.03 90.7773C143.03 89.5671 143.489 88.6289 144.405 87.9629C145.329 87.2897 146.625 86.9531 148.294 86.9531H150.228V86.04C150.228 85.3454 150.02 84.7939 149.604 84.3857C149.189 83.9704 148.577 83.7627 147.768 83.7627C147.059 83.7627 146.464 83.9417 145.984 84.2998C145.505 84.6579 145.265 85.0911 145.265 85.5996H143.267C143.267 85.0195 143.471 84.4609 143.879 83.9238C144.294 83.3796 144.853 82.9499 145.555 82.6348C146.264 82.3197 147.041 82.1621 147.886 82.1621C149.225 82.1621 150.274 82.4987 151.033 83.1719C151.792 83.8379 152.186 84.7581 152.215 85.9326V91.2822C152.215 92.3493 152.351 93.1979 152.623 93.8281V94H150.539ZM147.241 92.4854C147.864 92.4854 148.455 92.3242 149.014 92.002C149.572 91.6797 149.977 91.2607 150.228 90.7451V88.3604H148.67C146.235 88.3604 145.018 89.0729 145.018 90.498C145.018 91.1211 145.225 91.6081 145.641 91.959C146.056 92.3099 146.59 92.4854 147.241 92.4854ZM157.21 82.377L157.274 83.8379C158.162 82.7207 159.323 82.1621 160.755 82.1621C163.211 82.1621 164.45 83.5479 164.472 86.3193V94H162.484V86.3086C162.477 85.4707 162.284 84.8512 161.904 84.4502C161.532 84.0492 160.948 83.8486 160.153 83.8486C159.509 83.8486 158.943 84.0205 158.456 84.3643C157.969 84.708 157.59 85.1592 157.317 85.7178V94H155.33V82.377H157.21ZM172.131 92.5928C172.84 92.5928 173.459 92.3779 173.989 91.9482C174.519 91.5186 174.813 90.9814 174.87 90.3369H176.75C176.714 91.0029 176.485 91.6367 176.062 92.2383C175.64 92.8398 175.074 93.3197 174.365 93.6777C173.663 94.0358 172.919 94.2148 172.131 94.2148C170.548 94.2148 169.288 93.6885 168.35 92.6357C167.419 91.5758 166.953 90.1292 166.953 88.2959V87.9629C166.953 86.8314 167.161 85.8252 167.576 84.9443C167.992 84.0635 168.586 83.3796 169.359 82.8926C170.14 82.4056 171.06 82.1621 172.12 82.1621C173.424 82.1621 174.505 82.5524 175.364 83.333C176.231 84.1136 176.693 85.127 176.75 86.373H174.87C174.813 85.6211 174.526 85.0052 174.011 84.5254C173.502 84.0384 172.872 83.7949 172.12 83.7949C171.11 83.7949 170.326 84.1602 169.768 84.8906C169.216 85.6139 168.94 86.6631 168.94 88.0381V88.4141C168.94 89.7533 169.216 90.7845 169.768 91.5078C170.319 92.2311 171.107 92.5928 172.131 92.5928ZM172.453 94.0967L172.324 94.6553C173.42 94.8486 173.968 95.4681 173.968 96.5137C173.968 97.2083 173.681 97.7562 173.108 98.1572C172.535 98.5654 171.737 98.7695 170.713 98.7695L170.638 97.6201C171.203 97.6201 171.64 97.527 171.948 97.3408C172.263 97.1546 172.421 96.8932 172.421 96.5566C172.421 96.2415 172.306 96.0088 172.077 95.8584C171.848 95.708 171.382 95.6006 170.681 95.5361L171.024 94.0967H172.453ZM186.16 94C186.046 93.7708 185.952 93.3626 185.881 92.7754C184.957 93.735 183.854 94.2148 182.572 94.2148C181.426 94.2148 180.485 93.8926 179.747 93.248C179.017 92.5964 178.651 91.7728 178.651 90.7773C178.651 89.5671 179.11 88.6289 180.026 87.9629C180.95 87.2897 182.246 86.9531 183.915 86.9531H185.849V86.04C185.849 85.3454 185.641 84.7939 185.226 84.3857C184.81 83.9704 184.198 83.7627 183.389 83.7627C182.68 83.7627 182.085 83.9417 181.605 84.2998C181.126 84.6579 180.886 85.0911 180.886 85.5996H178.888C178.888 85.0195 179.092 84.4609 179.5 83.9238C179.915 83.3796 180.474 82.9499 181.176 82.6348C181.885 82.3197 182.662 82.1621 183.507 82.1621C184.846 82.1621 185.895 82.4987 186.654 83.1719C187.413 83.8379 187.807 84.7581 187.836 85.9326V91.2822C187.836 92.3493 187.972 93.1979 188.244 93.8281V94H186.16ZM182.862 92.4854C183.485 92.4854 184.076 92.3242 184.635 92.002C185.193 91.6797 185.598 91.2607 185.849 90.7451V88.3604H184.291C181.856 88.3604 180.639 89.0729 180.639 90.498C180.639 91.1211 180.846 91.6081 181.262 91.959C181.677 92.3099 182.211 92.4854 182.862 92.4854ZM201.07 92.5928C201.779 92.5928 202.399 92.3779 202.929 91.9482C203.459 91.5186 203.752 90.9814 203.81 90.3369H205.689C205.654 91.0029 205.424 91.6367 205.002 92.2383C204.579 92.8398 204.014 93.3197 203.305 93.6777C202.603 94.0358 201.858 94.2148 201.07 94.2148C199.488 94.2148 198.227 93.6885 197.289 92.6357C196.358 91.5758 195.893 90.1292 195.893 88.2959V87.9629C195.893 86.8314 196.1 85.8252 196.516 84.9443C196.931 84.0635 197.525 83.3796 198.299 82.8926C199.079 82.4056 200 82.1621 201.06 82.1621C202.363 82.1621 203.444 82.5524 204.304 83.333C205.17 84.1136 205.632 85.127 205.689 86.373H203.81C203.752 85.6211 203.466 85.0052 202.95 84.5254C202.442 84.0384 201.812 83.7949 201.06 83.7949C200.05 83.7949 199.266 84.1602 198.707 84.8906C198.156 85.6139 197.88 86.6631 197.88 88.0381V88.4141C197.88 89.7533 198.156 90.7845 198.707 91.5078C199.258 92.2311 200.046 92.5928 201.07 92.5928ZM210.083 94H208.096V82.377H210.083V94ZM207.935 79.2939C207.935 78.9717 208.031 78.6995 208.225 78.4775C208.425 78.2555 208.719 78.1445 209.105 78.1445C209.492 78.1445 209.786 78.2555 209.986 78.4775C210.187 78.6995 210.287 78.9717 210.287 79.2939C210.287 79.6162 210.187 79.8848 209.986 80.0996C209.786 80.3145 209.492 80.4219 209.105 80.4219C208.719 80.4219 208.425 80.3145 208.225 80.0996C208.031 79.8848 207.935 79.6162 207.935 79.2939ZM223.113 88.3174C223.113 90.0934 222.705 91.5221 221.889 92.6035C221.072 93.6777 219.977 94.2148 218.602 94.2148C217.133 94.2148 215.998 93.6956 215.196 92.6572L215.1 94H213.273V77.5H215.261V83.6553C216.063 82.6598 217.169 82.1621 218.58 82.1621C219.991 82.1621 221.097 82.6956 221.899 83.7627C222.709 84.8298 223.113 86.2907 223.113 88.1455V88.3174ZM221.126 88.0918C221.126 86.7383 220.865 85.6927 220.342 84.9551C219.819 84.2174 219.067 83.8486 218.086 83.8486C216.775 83.8486 215.834 84.4574 215.261 85.6748V90.7021C215.869 91.9196 216.818 92.5283 218.107 92.5283C219.06 92.5283 219.801 92.1595 220.331 91.4219C220.861 90.6842 221.126 89.5742 221.126 88.0918ZM230.45 94.2148C228.875 94.2148 227.593 93.6992 226.604 92.668C225.616 91.6296 225.122 90.2438 225.122 88.5107V88.1455C225.122 86.9925 225.34 85.9648 225.777 85.0625C226.221 84.153 226.837 83.444 227.625 82.9355C228.42 82.4199 229.279 82.1621 230.203 82.1621C231.714 82.1621 232.889 82.6598 233.727 83.6553C234.564 84.6507 234.983 86.0758 234.983 87.9307V88.7578H227.109C227.138 89.9036 227.471 90.8311 228.108 91.54C228.753 92.2419 229.569 92.5928 230.558 92.5928C231.259 92.5928 231.854 92.4495 232.341 92.1631C232.828 91.8766 233.254 91.4971 233.619 91.0244L234.833 91.9697C233.859 93.4665 232.398 94.2148 230.45 94.2148ZM230.203 83.7949C229.401 83.7949 228.728 84.0885 228.184 84.6758C227.639 85.2559 227.303 86.0723 227.174 87.125H232.996V86.9746C232.939 85.9648 232.667 85.1842 232.18 84.6328C231.693 84.0742 231.034 83.7949 230.203 83.7949ZM242.911 84.1602C242.61 84.11 242.285 84.085 241.934 84.085C240.63 84.085 239.746 84.64 239.28 85.75V94H237.293V82.377H239.227L239.259 83.7197C239.91 82.6813 240.834 82.1621 242.03 82.1621C242.417 82.1621 242.711 82.2122 242.911 82.3125V84.1602ZM246.628 82.377L246.692 83.8379C247.58 82.7207 248.741 82.1621 250.173 82.1621C252.629 82.1621 253.868 83.5479 253.89 86.3193V94H251.902V86.3086C251.895 85.4707 251.702 84.8512 251.322 84.4502C250.95 84.0492 250.366 83.8486 249.571 83.8486C248.927 83.8486 248.361 84.0205 247.874 84.3643C247.387 84.708 247.007 85.1592 246.735 85.7178V94H244.748V82.377H246.628ZM261.71 94.2148C260.134 94.2148 258.853 93.6992 257.864 92.668C256.876 91.6296 256.382 90.2438 256.382 88.5107V88.1455C256.382 86.9925 256.6 85.9648 257.037 85.0625C257.481 84.153 258.097 83.444 258.885 82.9355C259.68 82.4199 260.539 82.1621 261.463 82.1621C262.974 82.1621 264.148 82.6598 264.986 83.6553C265.824 84.6507 266.243 86.0758 266.243 87.9307V88.7578H258.369C258.398 89.9036 258.731 90.8311 259.368 91.54C260.013 92.2419 260.829 92.5928 261.817 92.5928C262.519 92.5928 263.114 92.4495 263.601 92.1631C264.088 91.8766 264.514 91.4971 264.879 91.0244L266.093 91.9697C265.119 93.4665 263.658 94.2148 261.71 94.2148ZM261.463 83.7949C260.661 83.7949 259.988 84.0885 259.443 84.6758C258.899 85.2559 258.562 86.0723 258.434 87.125H264.256V86.9746C264.199 85.9648 263.926 85.1842 263.439 84.6328C262.952 84.0742 262.294 83.7949 261.463 83.7949ZM262.43 77.5H264.836L261.957 80.6582H260.356L262.43 77.5ZM271.249 79.5625V82.377H273.419V83.9131H271.249V91.1211C271.249 91.5866 271.346 91.9375 271.539 92.1738C271.732 92.403 272.062 92.5176 272.527 92.5176C272.757 92.5176 273.072 92.4746 273.473 92.3887V94C272.95 94.1432 272.441 94.2148 271.947 94.2148C271.059 94.2148 270.39 93.9463 269.938 93.4092C269.487 92.8721 269.262 92.1094 269.262 91.1211V83.9131H267.146V82.377H269.262V79.5625H271.249ZM277.909 94H275.922V82.377H277.909V94ZM275.761 79.2939C275.761 78.9717 275.857 78.6995 276.051 78.4775C276.251 78.2555 276.545 78.1445 276.932 78.1445C277.318 78.1445 277.612 78.2555 277.812 78.4775C278.013 78.6995 278.113 78.9717 278.113 79.2939C278.113 79.6162 278.013 79.8848 277.812 80.0996C277.612 80.3145 277.318 80.4219 276.932 80.4219C276.545 80.4219 276.251 80.3145 276.051 80.0996C275.857 79.8848 275.761 79.6162 275.761 79.2939ZM285.762 92.5928C286.471 92.5928 287.09 92.3779 287.62 91.9482C288.15 91.5186 288.444 90.9814 288.501 90.3369H290.381C290.345 91.0029 290.116 91.6367 289.693 92.2383C289.271 92.8398 288.705 93.3197 287.996 93.6777C287.294 94.0358 286.549 94.2148 285.762 94.2148C284.179 94.2148 282.919 93.6885 281.98 92.6357C281.049 91.5758 280.584 90.1292 280.584 88.2959V87.9629C280.584 86.8314 280.792 85.8252 281.207 84.9443C281.622 84.0635 282.217 83.3796 282.99 82.8926C283.771 82.4056 284.691 82.1621 285.751 82.1621C287.054 82.1621 288.136 82.5524 288.995 83.333C289.862 84.1136 290.324 85.127 290.381 86.373H288.501C288.444 85.6211 288.157 85.0052 287.642 84.5254C287.133 84.0384 286.503 83.7949 285.751 83.7949C284.741 83.7949 283.957 84.1602 283.398 84.8906C282.847 85.6139 282.571 86.6631 282.571 88.0381V88.4141C282.571 89.7533 282.847 90.7845 283.398 91.5078C283.95 92.2311 284.738 92.5928 285.762 92.5928ZM299.791 94C299.676 93.7708 299.583 93.3626 299.512 92.7754C298.588 93.735 297.485 94.2148 296.203 94.2148C295.057 94.2148 294.116 93.8926 293.378 93.248C292.647 92.5964 292.282 91.7728 292.282 90.7773C292.282 89.5671 292.741 88.6289 293.657 87.9629C294.581 87.2897 295.877 86.9531 297.546 86.9531H299.479V86.04C299.479 85.3454 299.272 84.7939 298.856 84.3857C298.441 83.9704 297.829 83.7627 297.02 83.7627C296.311 83.7627 295.716 83.9417 295.236 84.2998C294.757 84.6579 294.517 85.0911 294.517 85.5996H292.519C292.519 85.0195 292.723 84.4609 293.131 83.9238C293.546 83.3796 294.105 82.9499 294.807 82.6348C295.516 82.3197 296.293 82.1621 297.138 82.1621C298.477 82.1621 299.526 82.4987 300.285 83.1719C301.044 83.8379 301.438 84.7581 301.467 85.9326V91.2822C301.467 92.3493 301.603 93.1979 301.875 93.8281V94H299.791ZM296.493 92.4854C297.116 92.4854 297.707 92.3242 298.266 92.002C298.824 91.6797 299.229 91.2607 299.479 90.7451V88.3604H297.922C295.487 88.3604 294.27 89.0729 294.27 90.498C294.27 91.1211 294.477 91.6081 294.893 91.959C295.308 92.3099 295.841 92.4854 296.493 92.4854ZM304.518 97.1152L303.39 96.3418C304.063 95.4036 304.414 94.4368 304.442 93.4414V91.6475H306.387V93.2051C306.387 93.9284 306.208 94.6517 305.85 95.375C305.499 96.0983 305.055 96.6784 304.518 97.1152ZM316.517 94H314.529V82.377H316.517V94ZM314.368 79.2939C314.368 78.9717 314.465 78.6995 314.658 78.4775C314.859 78.2555 315.152 78.1445 315.539 78.1445C315.926 78.1445 316.219 78.2555 316.42 78.4775C316.62 78.6995 316.721 78.9717 316.721 79.2939C316.721 79.6162 316.62 79.8848 316.42 80.0996C316.219 80.3145 315.926 80.4219 315.539 80.4219C315.152 80.4219 314.859 80.3145 314.658 80.0996C314.465 79.8848 314.368 79.6162 314.368 79.2939ZM321.587 82.377L321.651 83.8379C322.539 82.7207 323.7 82.1621 325.132 82.1621C327.588 82.1621 328.827 83.5479 328.849 86.3193V94H326.861V86.3086C326.854 85.4707 326.661 84.8512 326.281 84.4502C325.909 84.0492 325.325 83.8486 324.53 83.8486C323.886 83.8486 323.32 84.0205 322.833 84.3643C322.346 84.708 321.966 85.1592 321.694 85.7178V94H319.707V82.377H321.587ZM331.362 88.0918C331.362 86.3086 331.785 84.8763 332.63 83.7949C333.475 82.7064 334.581 82.1621 335.949 82.1621C337.31 82.1621 338.388 82.6276 339.183 83.5586V77.5H341.17V94H339.344L339.247 92.7539C338.452 93.7279 337.346 94.2148 335.928 94.2148C334.581 94.2148 333.482 93.6634 332.63 92.5605C331.785 91.4577 331.362 90.0182 331.362 88.2422V88.0918ZM333.35 88.3174C333.35 89.6351 333.622 90.6663 334.166 91.4111C334.71 92.1559 335.462 92.5283 336.422 92.5283C337.682 92.5283 338.603 91.9626 339.183 90.8311V85.4922C338.588 84.3965 337.675 83.8486 336.443 83.8486C335.469 83.8486 334.71 84.2246 334.166 84.9766C333.622 85.7285 333.35 86.8421 333.35 88.3174ZM349.087 94.2148C347.511 94.2148 346.229 93.6992 345.241 92.668C344.253 91.6296 343.759 90.2438 343.759 88.5107V88.1455C343.759 86.9925 343.977 85.9648 344.414 85.0625C344.858 84.153 345.474 83.444 346.262 82.9355C347.057 82.4199 347.916 82.1621 348.84 82.1621C350.351 82.1621 351.525 82.6598 352.363 83.6553C353.201 84.6507 353.62 86.0758 353.62 87.9307V88.7578H345.746C345.775 89.9036 346.108 90.8311 346.745 91.54C347.39 92.2419 348.206 92.5928 349.194 92.5928C349.896 92.5928 350.491 92.4495 350.978 92.1631C351.465 91.8766 351.891 91.4971 352.256 91.0244L353.47 91.9697C352.496 93.4665 351.035 94.2148 349.087 94.2148ZM348.84 83.7949C348.038 83.7949 347.365 84.0885 346.82 84.6758C346.276 85.2559 345.939 86.0723 345.811 87.125H351.633V86.9746C351.576 85.9648 351.303 85.1842 350.816 84.6328C350.329 84.0742 349.671 83.7949 348.84 83.7949ZM365.748 88.3174C365.748 90.0863 365.343 91.5114 364.534 92.5928C363.725 93.6742 362.629 94.2148 361.247 94.2148C359.836 94.2148 358.726 93.7673 357.917 92.8721V98.4688H355.93V82.377H357.745L357.842 83.666C358.651 82.6634 359.775 82.1621 361.215 82.1621C362.611 82.1621 363.714 82.6885 364.523 83.7412C365.34 84.7939 365.748 86.2585 365.748 88.1348V88.3174ZM363.761 88.0918C363.761 86.7812 363.481 85.7464 362.923 84.9873C362.364 84.2282 361.598 83.8486 360.624 83.8486C359.421 83.8486 358.519 84.3822 357.917 85.4492V91.0029C358.511 92.0628 359.421 92.5928 360.646 92.5928C361.598 92.5928 362.354 92.2168 362.912 91.4648C363.478 90.7057 363.761 89.5814 363.761 88.0918ZM373.106 94.2148C371.531 94.2148 370.249 93.6992 369.261 92.668C368.272 91.6296 367.778 90.2438 367.778 88.5107V88.1455C367.778 86.9925 367.997 85.9648 368.434 85.0625C368.878 84.153 369.493 83.444 370.281 82.9355C371.076 82.4199 371.936 82.1621 372.859 82.1621C374.37 82.1621 375.545 82.6598 376.383 83.6553C377.221 84.6507 377.64 86.0758 377.64 87.9307V88.7578H369.766C369.794 89.9036 370.127 90.8311 370.765 91.54C371.409 92.2419 372.226 92.5928 373.214 92.5928C373.916 92.5928 374.51 92.4495 374.997 92.1631C375.484 91.8766 375.91 91.4971 376.275 91.0244L377.489 91.9697C376.515 93.4665 375.054 94.2148 373.106 94.2148ZM372.859 83.7949C372.057 83.7949 371.384 84.0885 370.84 84.6758C370.296 85.2559 369.959 86.0723 369.83 87.125H375.652V86.9746C375.595 85.9648 375.323 85.1842 374.836 84.6328C374.349 84.0742 373.69 83.7949 372.859 83.7949ZM381.829 82.377L381.894 83.8379C382.782 82.7207 383.942 82.1621 385.374 82.1621C387.83 82.1621 389.069 83.5479 389.091 86.3193V94H387.104V86.3086C387.096 85.4707 386.903 84.8512 386.523 84.4502C386.151 84.0492 385.567 83.8486 384.772 83.8486C384.128 83.8486 383.562 84.0205 383.075 84.3643C382.588 84.708 382.209 85.1592 381.937 85.7178V94H379.949V82.377H381.829ZM391.604 88.0918C391.604 86.3086 392.027 84.8763 392.872 83.7949C393.717 82.7064 394.824 82.1621 396.191 82.1621C397.552 82.1621 398.63 82.6276 399.425 83.5586V77.5H401.412V94H399.586L399.489 92.7539C398.694 93.7279 397.588 94.2148 396.17 94.2148C394.824 94.2148 393.724 93.6634 392.872 92.5605C392.027 91.4577 391.604 90.0182 391.604 88.2422V88.0918ZM393.592 88.3174C393.592 89.6351 393.864 90.6663 394.408 91.4111C394.952 92.1559 395.704 92.5283 396.664 92.5283C397.924 92.5283 398.845 91.9626 399.425 90.8311V85.4922C398.83 84.3965 397.917 83.8486 396.686 83.8486C395.712 83.8486 394.952 84.2246 394.408 84.9766C393.864 85.7285 393.592 86.8421 393.592 88.3174ZM409.329 94.2148C407.754 94.2148 406.472 93.6992 405.483 92.668C404.495 91.6296 404.001 90.2438 404.001 88.5107V88.1455C404.001 86.9925 404.219 85.9648 404.656 85.0625C405.1 84.153 405.716 83.444 406.504 82.9355C407.299 82.4199 408.158 82.1621 409.082 82.1621C410.593 82.1621 411.768 82.6598 412.605 83.6553C413.443 84.6507 413.862 86.0758 413.862 87.9307V88.7578H405.988C406.017 89.9036 406.35 90.8311 406.987 91.54C407.632 92.2419 408.448 92.5928 409.437 92.5928C410.138 92.5928 410.733 92.4495 411.22 92.1631C411.707 91.8766 412.133 91.4971 412.498 91.0244L413.712 91.9697C412.738 93.4665 411.277 94.2148 409.329 94.2148ZM409.082 83.7949C408.28 83.7949 407.607 84.0885 407.062 84.6758C406.518 85.2559 406.182 86.0723 406.053 87.125H411.875V86.9746C411.818 85.9648 411.546 85.1842 411.059 84.6328C410.572 84.0742 409.913 83.7949 409.082 83.7949ZM418.052 82.377L418.116 83.8379C419.004 82.7207 420.164 82.1621 421.597 82.1621C424.053 82.1621 425.292 83.5479 425.313 86.3193V94H423.326V86.3086C423.319 85.4707 423.126 84.8512 422.746 84.4502C422.374 84.0492 421.79 83.8486 420.995 83.8486C420.351 83.8486 419.785 84.0205 419.298 84.3643C418.811 84.708 418.431 85.1592 418.159 85.7178V94H416.172V82.377H418.052ZM431.007 79.5625V82.377H433.177V83.9131H431.007V91.1211C431.007 91.5866 431.104 91.9375 431.297 92.1738C431.49 92.403 431.82 92.5176 432.285 92.5176C432.514 92.5176 432.829 92.4746 433.23 92.3887V94C432.708 94.1432 432.199 94.2148 431.705 94.2148C430.817 94.2148 430.147 93.9463 429.696 93.4092C429.245 92.8721 429.02 92.1094 429.02 91.1211V83.9131H426.903V82.377H429.02V79.5625H431.007ZM440.331 94.2148C438.756 94.2148 437.474 93.6992 436.485 92.668C435.497 91.6296 435.003 90.2438 435.003 88.5107V88.1455C435.003 86.9925 435.221 85.9648 435.658 85.0625C436.102 84.153 436.718 83.444 437.506 82.9355C438.301 82.4199 439.16 82.1621 440.084 82.1621C441.595 82.1621 442.77 82.6598 443.607 83.6553C444.445 84.6507 444.864 86.0758 444.864 87.9307V88.7578H436.99C437.019 89.9036 437.352 90.8311 437.989 91.54C438.634 92.2419 439.45 92.5928 440.438 92.5928C441.14 92.5928 441.735 92.4495 442.222 92.1631C442.709 91.8766 443.135 91.4971 443.5 91.0244L444.714 91.9697C443.74 93.4665 442.279 94.2148 440.331 94.2148ZM440.084 83.7949C439.282 83.7949 438.609 84.0885 438.064 84.6758C437.52 85.2559 437.184 86.0723 437.055 87.125H442.877V86.9746C442.82 85.9648 442.548 85.1842 442.061 84.6328C441.574 84.0742 440.915 83.7949 440.084 83.7949ZM449.043 82.377L449.097 83.666C449.949 82.6634 451.098 82.1621 452.545 82.1621C454.171 82.1621 455.277 82.7852 455.864 84.0312C456.251 83.4727 456.752 83.0215 457.368 82.6777C457.991 82.334 458.725 82.1621 459.57 82.1621C462.12 82.1621 463.416 83.512 463.459 86.2119V94H461.472V86.3301C461.472 85.4993 461.282 84.8799 460.902 84.4717C460.523 84.0563 459.885 83.8486 458.99 83.8486C458.253 83.8486 457.64 84.0706 457.153 84.5146C456.666 84.9515 456.383 85.5423 456.305 86.2871V94H454.307V86.3838C454.307 84.6937 453.479 83.8486 451.825 83.8486C450.522 83.8486 449.63 84.4036 449.15 85.5137V94H447.163V82.377H449.043ZM471.29 94.2148C469.715 94.2148 468.433 93.6992 467.444 92.668C466.456 91.6296 465.962 90.2438 465.962 88.5107V88.1455C465.962 86.9925 466.18 85.9648 466.617 85.0625C467.061 84.153 467.677 83.444 468.465 82.9355C469.26 82.4199 470.119 82.1621 471.043 82.1621C472.554 82.1621 473.729 82.6598 474.566 83.6553C475.404 84.6507 475.823 86.0758 475.823 87.9307V88.7578H467.949C467.978 89.9036 468.311 90.8311 468.948 91.54C469.593 92.2419 470.409 92.5928 471.397 92.5928C472.099 92.5928 472.694 92.4495 473.181 92.1631C473.668 91.8766 474.094 91.4971 474.459 91.0244L475.673 91.9697C474.699 93.4665 473.238 94.2148 471.29 94.2148ZM471.043 83.7949C470.241 83.7949 469.568 84.0885 469.023 84.6758C468.479 85.2559 468.143 86.0723 468.014 87.125H473.836V86.9746C473.779 85.9648 473.507 85.1842 473.02 84.6328C472.533 84.0742 471.874 83.7949 471.043 83.7949ZM480.013 82.377L480.077 83.8379C480.965 82.7207 482.125 82.1621 483.558 82.1621C486.014 82.1621 487.253 83.5479 487.274 86.3193V94H485.287V86.3086C485.28 85.4707 485.087 84.8512 484.707 84.4502C484.335 84.0492 483.751 83.8486 482.956 83.8486C482.312 83.8486 481.746 84.0205 481.259 84.3643C480.772 84.708 480.392 85.1592 480.12 85.7178V94H478.133V82.377H480.013ZM492.968 79.5625V82.377H495.138V83.9131H492.968V91.1211C492.968 91.5866 493.064 91.9375 493.258 92.1738C493.451 92.403 493.781 92.5176 494.246 92.5176C494.475 92.5176 494.79 92.4746 495.191 92.3887V94C494.669 94.1432 494.16 94.2148 493.666 94.2148C492.778 94.2148 492.108 93.9463 491.657 93.4092C491.206 92.8721 490.98 92.1094 490.98 91.1211V83.9131H488.864V82.377H490.98V79.5625H492.968ZM502.292 94.2148C500.716 94.2148 499.435 93.6992 498.446 92.668C497.458 91.6296 496.964 90.2438 496.964 88.5107V88.1455C496.964 86.9925 497.182 85.9648 497.619 85.0625C498.063 84.153 498.679 83.444 499.467 82.9355C500.262 82.4199 501.121 82.1621 502.045 82.1621C503.556 82.1621 504.73 82.6598 505.568 83.6553C506.406 84.6507 506.825 86.0758 506.825 87.9307V88.7578H498.951C498.98 89.9036 499.313 90.8311 499.95 91.54C500.595 92.2419 501.411 92.5928 502.399 92.5928C503.101 92.5928 503.696 92.4495 504.183 92.1631C504.67 91.8766 505.096 91.4971 505.461 91.0244L506.675 91.9697C505.701 93.4665 504.24 94.2148 502.292 94.2148ZM502.045 83.7949C501.243 83.7949 500.57 84.0885 500.025 84.6758C499.481 85.2559 499.145 86.0723 499.016 87.125H504.838V86.9746C504.781 85.9648 504.508 85.1842 504.021 84.6328C503.535 84.0742 502.876 83.7949 502.045 83.7949ZM514.108 88.0918C514.108 86.3086 514.531 84.8763 515.376 83.7949C516.221 82.7064 517.327 82.1621 518.695 82.1621C520.056 82.1621 521.134 82.6276 521.929 83.5586V77.5H523.916V94H522.09L521.993 92.7539C521.198 93.7279 520.092 94.2148 518.674 94.2148C517.327 94.2148 516.228 93.6634 515.376 92.5605C514.531 91.4577 514.108 90.0182 514.108 88.2422V88.0918ZM516.096 88.3174C516.096 89.6351 516.368 90.6663 516.912 91.4111C517.456 92.1559 518.208 92.5283 519.168 92.5283C520.428 92.5283 521.349 91.9626 521.929 90.8311V85.4922C521.334 84.3965 520.421 83.8486 519.189 83.8486C518.215 83.8486 517.456 84.2246 516.912 84.9766C516.368 85.7285 516.096 86.8421 516.096 88.3174ZM531.833 94.2148C530.257 94.2148 528.976 93.6992 527.987 92.668C526.999 91.6296 526.505 90.2438 526.505 88.5107V88.1455C526.505 86.9925 526.723 85.9648 527.16 85.0625C527.604 84.153 528.22 83.444 529.008 82.9355C529.803 82.4199 530.662 82.1621 531.586 82.1621C533.097 82.1621 534.271 82.6598 535.109 83.6553C535.947 84.6507 536.366 86.0758 536.366 87.9307V88.7578H528.492C528.521 89.9036 528.854 90.8311 529.491 91.54C530.136 92.2419 530.952 92.5928 531.94 92.5928C532.642 92.5928 533.237 92.4495 533.724 92.1631C534.211 91.8766 534.637 91.4971 535.002 91.0244L536.216 91.9697C535.242 93.4665 533.781 94.2148 531.833 94.2148ZM531.586 83.7949C530.784 83.7949 530.111 84.0885 529.566 84.6758C529.022 85.2559 528.686 86.0723 528.557 87.125H534.379V86.9746C534.322 85.9648 534.049 85.1842 533.562 84.6328C533.076 84.0742 532.417 83.7949 531.586 83.7949ZM543.606 88.0811C543.606 86.9424 543.828 85.9183 544.272 85.0088C544.724 84.0993 545.347 83.3975 546.142 82.9033C546.944 82.4092 547.857 82.1621 548.881 82.1621C550.464 82.1621 551.742 82.71 552.716 83.8057C553.697 84.9014 554.188 86.3587 554.188 88.1777V88.3174C554.188 89.4489 553.969 90.4658 553.532 91.3682C553.103 92.2633 552.483 92.9616 551.674 93.4629C550.872 93.9642 549.948 94.2148 548.902 94.2148C547.327 94.2148 546.049 93.667 545.067 92.5713C544.093 91.4756 543.606 90.0254 543.606 88.2207V88.0811ZM545.604 88.3174C545.604 89.6064 545.902 90.6413 546.496 91.4219C547.098 92.2025 547.9 92.5928 548.902 92.5928C549.912 92.5928 550.714 92.1989 551.309 91.4111C551.903 90.6162 552.2 89.5062 552.2 88.0811C552.2 86.8063 551.896 85.7751 551.287 84.9873C550.686 84.1924 549.883 83.7949 548.881 83.7949C547.9 83.7949 547.108 84.1852 546.507 84.9658C545.905 85.7464 545.604 86.8636 545.604 88.3174ZM558.56 82.377L558.624 83.8379C559.512 82.7207 560.672 82.1621 562.104 82.1621C564.561 82.1621 565.8 83.5479 565.821 86.3193V94H563.834V86.3086C563.827 85.4707 563.633 84.8512 563.254 84.4502C562.882 84.0492 562.298 83.8486 561.503 83.8486C560.858 83.8486 560.293 84.0205 559.806 84.3643C559.319 84.708 558.939 85.1592 558.667 85.7178V94H556.68V82.377H558.56ZM568.335 88.0918C568.335 86.3086 568.757 84.8763 569.603 83.7949C570.448 82.7064 571.554 82.1621 572.922 82.1621C574.283 82.1621 575.36 82.6276 576.155 83.5586V77.5H578.143V94H576.316L576.22 92.7539C575.425 93.7279 574.318 94.2148 572.9 94.2148C571.554 94.2148 570.455 93.6634 569.603 92.5605C568.757 91.4577 568.335 90.0182 568.335 88.2422V88.0918ZM570.322 88.3174C570.322 89.6351 570.594 90.6663 571.139 91.4111C571.683 92.1559 572.435 92.5283 573.395 92.5283C574.655 92.5283 575.575 91.9626 576.155 90.8311V85.4922C575.561 84.3965 574.648 83.8486 573.416 83.8486C572.442 83.8486 571.683 84.2246 571.139 84.9766C570.594 85.7285 570.322 86.8421 570.322 88.3174ZM586.06 94.2148C584.484 94.2148 583.202 93.6992 582.214 92.668C581.226 91.6296 580.731 90.2438 580.731 88.5107V88.1455C580.731 86.9925 580.95 85.9648 581.387 85.0625C581.831 84.153 582.447 83.444 583.234 82.9355C584.029 82.4199 584.889 82.1621 585.812 82.1621C587.324 82.1621 588.498 82.6598 589.336 83.6553C590.174 84.6507 590.593 86.0758 590.593 87.9307V88.7578H582.719C582.747 89.9036 583.08 90.8311 583.718 91.54C584.362 92.2419 585.179 92.5928 586.167 92.5928C586.869 92.5928 587.463 92.4495 587.95 92.1631C588.437 91.8766 588.863 91.4971 589.229 91.0244L590.442 91.9697C589.468 93.4665 588.007 94.2148 586.06 94.2148ZM585.812 83.7949C585.01 83.7949 584.337 84.0885 583.793 84.6758C583.249 85.2559 582.912 86.0723 582.783 87.125H588.605V86.9746C588.548 85.9648 588.276 85.1842 587.789 84.6328C587.302 84.0742 586.643 83.7949 585.812 83.7949ZM603.183 94.2148C601.607 94.2148 600.325 93.6992 599.337 92.668C598.349 91.6296 597.854 90.2438 597.854 88.5107V88.1455C597.854 86.9925 598.073 85.9648 598.51 85.0625C598.954 84.153 599.57 83.444 600.357 82.9355C601.152 82.4199 602.012 82.1621 602.936 82.1621C604.447 82.1621 605.621 82.6598 606.459 83.6553C607.297 84.6507 607.716 86.0758 607.716 87.9307V88.7578H599.842C599.87 89.9036 600.203 90.8311 600.841 91.54C601.485 92.2419 602.302 92.5928 603.29 92.5928C603.992 92.5928 604.586 92.4495 605.073 92.1631C605.56 91.8766 605.986 91.4971 606.352 91.0244L607.565 91.9697C606.591 93.4665 605.131 94.2148 603.183 94.2148ZM602.936 83.7949C602.133 83.7949 601.46 84.0885 600.916 84.6758C600.372 85.2559 600.035 86.0723 599.906 87.125H605.729V86.9746C605.671 85.9648 605.399 85.1842 604.912 84.6328C604.425 84.0742 603.766 83.7949 602.936 83.7949ZM616.793 90.917C616.793 90.3799 616.589 89.9645 616.181 89.6709C615.78 89.3701 615.074 89.1123 614.064 88.8975C613.062 88.6826 612.263 88.4248 611.669 88.124C611.082 87.8232 610.645 87.4652 610.358 87.0498C610.079 86.6344 609.939 86.1403 609.939 85.5674C609.939 84.6149 610.34 83.8092 611.143 83.1504C611.952 82.4915 612.983 82.1621 614.236 82.1621C615.554 82.1621 616.621 82.5023 617.438 83.1826C618.261 83.863 618.673 84.7331 618.673 85.793H616.675C616.675 85.2487 616.442 84.7796 615.977 84.3857C615.518 83.9919 614.938 83.7949 614.236 83.7949C613.513 83.7949 612.947 83.9525 612.539 84.2676C612.131 84.5827 611.927 84.9945 611.927 85.5029C611.927 85.9827 612.117 86.3444 612.496 86.5879C612.876 86.8314 613.56 87.0641 614.548 87.2861C615.543 87.5081 616.349 87.7731 616.965 88.0811C617.581 88.389 618.035 88.7614 618.329 89.1982C618.63 89.6279 618.78 90.1543 618.78 90.7773C618.78 91.8158 618.365 92.6501 617.534 93.2803C616.703 93.9033 615.626 94.2148 614.301 94.2148C613.37 94.2148 612.546 94.0501 611.83 93.7207C611.114 93.3913 610.552 92.9329 610.144 92.3457C609.743 91.7513 609.542 91.1104 609.542 90.4229H611.529C611.565 91.0889 611.83 91.6188 612.324 92.0127C612.826 92.3994 613.484 92.5928 614.301 92.5928C615.053 92.5928 615.654 92.4424 616.105 92.1416C616.564 91.8337 616.793 91.4255 616.793 90.917ZM624.065 79.5625V82.377H626.235V83.9131H624.065V91.1211C624.065 91.5866 624.162 91.9375 624.355 92.1738C624.549 92.403 624.878 92.5176 625.344 92.5176C625.573 92.5176 625.888 92.4746 626.289 92.3887V94C625.766 94.1432 625.258 94.2148 624.764 94.2148C623.876 94.2148 623.206 93.9463 622.755 93.4092C622.304 92.8721 622.078 92.1094 622.078 91.1211V83.9131H619.962V82.377H622.078V79.5625H624.065ZM633.39 94.2148C631.814 94.2148 630.532 93.6992 629.544 92.668C628.556 91.6296 628.062 90.2438 628.062 88.5107V88.1455C628.062 86.9925 628.28 85.9648 628.717 85.0625C629.161 84.153 629.777 83.444 630.564 82.9355C631.359 82.4199 632.219 82.1621 633.143 82.1621C634.654 82.1621 635.828 82.6598 636.666 83.6553C637.504 84.6507 637.923 86.0758 637.923 87.9307V88.7578H630.049C630.077 89.9036 630.41 90.8311 631.048 91.54C631.692 92.2419 632.509 92.5928 633.497 92.5928C634.199 92.5928 634.793 92.4495 635.28 92.1631C635.767 91.8766 636.193 91.4971 636.559 91.0244L637.772 91.9697C636.799 93.4665 635.338 94.2148 633.39 94.2148ZM633.143 83.7949C632.34 83.7949 631.667 84.0885 631.123 84.6758C630.579 85.2559 630.242 86.0723 630.113 87.125H635.936V86.9746C635.878 85.9648 635.606 85.1842 635.119 84.6328C634.632 84.0742 633.973 83.7949 633.143 83.7949ZM642.284 82.377V95.3428C642.284 97.5771 641.271 98.6943 639.244 98.6943C638.807 98.6943 638.403 98.6299 638.03 98.501V96.9111C638.259 96.9684 638.56 96.9971 638.933 96.9971C639.377 96.9971 639.713 96.8753 639.942 96.6318C640.179 96.3955 640.297 95.9801 640.297 95.3857V82.377H642.284ZM640.093 79.2939C640.093 78.9788 640.189 78.7103 640.383 78.4883C640.583 78.2591 640.873 78.1445 641.253 78.1445C641.64 78.1445 641.933 78.2555 642.134 78.4775C642.334 78.6995 642.435 78.9717 642.435 79.2939C642.435 79.6162 642.334 79.8848 642.134 80.0996C641.933 80.3145 641.64 80.4219 641.253 80.4219C640.866 80.4219 640.576 80.3145 640.383 80.0996C640.189 79.8848 640.093 79.6162 640.093 79.2939ZM652.672 94C652.557 93.7708 652.464 93.3626 652.393 92.7754C651.469 93.735 650.366 94.2148 649.084 94.2148C647.938 94.2148 646.996 93.8926 646.259 93.248C645.528 92.5964 645.163 91.7728 645.163 90.7773C645.163 89.5671 645.621 88.6289 646.538 87.9629C647.462 87.2897 648.758 86.9531 650.427 86.9531H652.36V86.04C652.36 85.3454 652.153 84.7939 651.737 84.3857C651.322 83.9704 650.71 83.7627 649.9 83.7627C649.191 83.7627 648.597 83.9417 648.117 84.2998C647.637 84.6579 647.397 85.0911 647.397 85.5996H645.399C645.399 85.0195 645.604 84.4609 646.012 83.9238C646.427 83.3796 646.986 82.9499 647.688 82.6348C648.396 82.3197 649.174 82.1621 650.019 82.1621C651.358 82.1621 652.407 82.4987 653.166 83.1719C653.925 83.8379 654.319 84.7581 654.348 85.9326V91.2822C654.348 92.3493 654.484 93.1979 654.756 93.8281V94H652.672ZM649.374 92.4854C649.997 92.4854 650.588 92.3242 651.146 92.002C651.705 91.6797 652.11 91.2607 652.36 90.7451V88.3604H650.803C648.368 88.3604 647.15 89.0729 647.15 90.498C647.15 91.1211 647.358 91.6081 647.773 91.959C648.189 92.3099 648.722 92.4854 649.374 92.4854ZM659.332 82.377L659.386 83.666C660.238 82.6634 661.387 82.1621 662.834 82.1621C664.46 82.1621 665.566 82.7852 666.153 84.0312C666.54 83.4727 667.041 83.0215 667.657 82.6777C668.28 82.334 669.014 82.1621 669.859 82.1621C672.409 82.1621 673.705 83.512 673.748 86.2119V94H671.761V86.3301C671.761 85.4993 671.571 84.8799 671.191 84.4717C670.812 84.0563 670.174 83.8486 669.279 83.8486C668.542 83.8486 667.929 84.0706 667.442 84.5146C666.955 84.9515 666.673 85.5423 666.594 86.2871V94H664.596V86.3838C664.596 84.6937 663.769 83.8486 662.114 83.8486C660.811 83.8486 659.919 84.4036 659.439 85.5137V94H657.452V82.377H659.332ZM684.093 82.377L684.157 83.8379C685.045 82.7207 686.205 82.1621 687.638 82.1621C690.094 82.1621 691.333 83.5479 691.354 86.3193V94H689.367V86.3086C689.36 85.4707 689.167 84.8512 688.787 84.4502C688.415 84.0492 687.831 83.8486 687.036 83.8486C686.392 83.8486 685.826 84.0205 685.339 84.3643C684.852 84.708 684.472 85.1592 684.2 85.7178V94H682.213V82.377H684.093ZM693.825 88.0811C693.825 86.9424 694.047 85.9183 694.491 85.0088C694.942 84.0993 695.565 83.3975 696.36 82.9033C697.162 82.4092 698.076 82.1621 699.1 82.1621C700.682 82.1621 701.961 82.71 702.935 83.8057C703.916 84.9014 704.406 86.3587 704.406 88.1777V88.3174C704.406 89.4489 704.188 90.4658 703.751 91.3682C703.321 92.2633 702.702 92.9616 701.893 93.4629C701.09 93.9642 700.167 94.2148 699.121 94.2148C697.546 94.2148 696.267 93.667 695.286 92.5713C694.312 91.4756 693.825 90.0254 693.825 88.2207V88.0811ZM695.823 88.3174C695.823 89.6064 696.12 90.6413 696.715 91.4219C697.316 92.2025 698.118 92.5928 699.121 92.5928C700.131 92.5928 700.933 92.1989 701.527 91.4111C702.122 90.6162 702.419 89.5062 702.419 88.0811C702.419 86.8063 702.115 85.7751 701.506 84.9873C700.904 84.1924 700.102 83.7949 699.1 83.7949C698.118 83.7949 697.327 84.1852 696.726 84.9658C696.124 85.7464 695.823 86.8636 695.823 88.3174ZM722.174 88.3174C722.174 90.0863 721.769 91.5114 720.96 92.5928C720.151 93.6742 719.055 94.2148 717.673 94.2148C716.262 94.2148 715.152 93.7673 714.343 92.8721V98.4688H712.355V82.377H714.171L714.268 83.666C715.077 82.6634 716.201 82.1621 717.641 82.1621C719.037 82.1621 720.14 82.6885 720.949 83.7412C721.766 84.7939 722.174 86.2585 722.174 88.1348V88.3174ZM720.187 88.0918C720.187 86.7812 719.907 85.7464 719.349 84.9873C718.79 84.2282 718.024 83.8486 717.05 83.8486C715.847 83.8486 714.944 84.3822 714.343 85.4492V91.0029C714.937 92.0628 715.847 92.5928 717.071 92.5928C718.024 92.5928 718.779 92.2168 719.338 91.4648C719.904 90.7057 720.187 89.5814 720.187 88.0918ZM730.327 84.1602C730.026 84.11 729.701 84.085 729.35 84.085C728.046 84.085 727.162 84.64 726.696 85.75V94H724.709V82.377H726.643L726.675 83.7197C727.326 82.6813 728.25 82.1621 729.446 82.1621C729.833 82.1621 730.127 82.2122 730.327 82.3125V84.1602ZM731.423 88.0811C731.423 86.9424 731.645 85.9183 732.089 85.0088C732.54 84.0993 733.163 83.3975 733.958 82.9033C734.76 82.4092 735.673 82.1621 736.697 82.1621C738.28 82.1621 739.558 82.71 740.532 83.8057C741.513 84.9014 742.004 86.3587 742.004 88.1777V88.3174C742.004 89.4489 741.785 90.4658 741.349 91.3682C740.919 92.2633 740.299 92.9616 739.49 93.4629C738.688 93.9642 737.764 94.2148 736.719 94.2148C735.143 94.2148 733.865 93.667 732.884 92.5713C731.91 91.4756 731.423 90.0254 731.423 88.2207V88.0811ZM733.421 88.3174C733.421 89.6064 733.718 90.6413 734.312 91.4219C734.914 92.2025 735.716 92.5928 736.719 92.5928C737.729 92.5928 738.531 92.1989 739.125 91.4111C739.719 90.6162 740.017 89.5062 740.017 88.0811C740.017 86.8063 739.712 85.7751 739.104 84.9873C738.502 84.1924 737.7 83.7949 736.697 83.7949C735.716 83.7949 734.925 84.1852 734.323 84.9658C733.722 85.7464 733.421 86.8636 733.421 88.3174ZM749.158 92.5928C749.867 92.5928 750.487 92.3779 751.017 91.9482C751.547 91.5186 751.84 90.9814 751.897 90.3369H753.777C753.742 91.0029 753.512 91.6367 753.09 92.2383C752.667 92.8398 752.102 93.3197 751.393 93.6777C750.691 94.0358 749.946 94.2148 749.158 94.2148C747.576 94.2148 746.315 93.6885 745.377 92.6357C744.446 91.5758 743.98 90.1292 743.98 88.2959V87.9629C743.98 86.8314 744.188 85.8252 744.604 84.9443C745.019 84.0635 745.613 83.3796 746.387 82.8926C747.167 82.4056 748.088 82.1621 749.147 82.1621C750.451 82.1621 751.532 82.5524 752.392 83.333C753.258 84.1136 753.72 85.127 753.777 86.373H751.897C751.84 85.6211 751.554 85.0052 751.038 84.5254C750.53 84.0384 749.899 83.7949 749.147 83.7949C748.138 83.7949 747.354 84.1602 746.795 84.8906C746.243 85.6139 745.968 86.6631 745.968 88.0381V88.4141C745.968 89.7533 746.243 90.7845 746.795 91.5078C747.346 92.2311 748.134 92.5928 749.158 92.5928ZM760.835 94.2148C759.259 94.2148 757.978 93.6992 756.989 92.668C756.001 91.6296 755.507 90.2438 755.507 88.5107V88.1455C755.507 86.9925 755.725 85.9648 756.162 85.0625C756.606 84.153 757.222 83.444 758.01 82.9355C758.805 82.4199 759.664 82.1621 760.588 82.1621C762.099 82.1621 763.273 82.6598 764.111 83.6553C764.949 84.6507 765.368 86.0758 765.368 87.9307V88.7578H757.494C757.523 89.9036 757.856 90.8311 758.493 91.54C759.138 92.2419 759.954 92.5928 760.942 92.5928C761.644 92.5928 762.239 92.4495 762.726 92.1631C763.213 91.8766 763.639 91.4971 764.004 91.0244L765.218 91.9697C764.244 93.4665 762.783 94.2148 760.835 94.2148ZM760.588 83.7949C759.786 83.7949 759.113 84.0885 758.568 84.6758C758.024 85.2559 757.688 86.0723 757.559 87.125H763.381V86.9746C763.324 85.9648 763.051 85.1842 762.564 84.6328C762.077 84.0742 761.419 83.7949 760.588 83.7949ZM774.445 90.917C774.445 90.3799 774.241 89.9645 773.833 89.6709C773.432 89.3701 772.727 89.1123 771.717 88.8975C770.714 88.6826 769.916 88.4248 769.321 88.124C768.734 87.8232 768.297 87.4652 768.011 87.0498C767.731 86.6344 767.592 86.1403 767.592 85.5674C767.592 84.6149 767.993 83.8092 768.795 83.1504C769.604 82.4915 770.635 82.1621 771.889 82.1621C773.206 82.1621 774.273 82.5023 775.09 83.1826C775.913 83.863 776.325 84.7331 776.325 85.793H774.327C774.327 85.2487 774.094 84.7796 773.629 84.3857C773.171 83.9919 772.59 83.7949 771.889 83.7949C771.165 83.7949 770.6 83.9525 770.191 84.2676C769.783 84.5827 769.579 84.9945 769.579 85.5029C769.579 85.9827 769.769 86.3444 770.148 86.5879C770.528 86.8314 771.212 87.0641 772.2 87.2861C773.196 87.5081 774.001 87.7731 774.617 88.0811C775.233 88.389 775.688 88.7614 775.981 89.1982C776.282 89.6279 776.433 90.1543 776.433 90.7773C776.433 91.8158 776.017 92.6501 775.187 93.2803C774.356 93.9033 773.278 94.2148 771.953 94.2148C771.022 94.2148 770.199 94.0501 769.482 93.7207C768.766 93.3913 768.204 92.9329 767.796 92.3457C767.395 91.7513 767.194 91.1104 767.194 90.4229H769.182C769.217 91.0889 769.482 91.6188 769.977 92.0127C770.478 92.3994 771.137 92.5928 771.953 92.5928C772.705 92.5928 773.307 92.4424 773.758 92.1416C774.216 91.8337 774.445 91.4255 774.445 90.917ZM785.789 90.917C785.789 90.3799 785.585 89.9645 785.177 89.6709C784.776 89.3701 784.07 89.1123 783.061 88.8975C782.058 88.6826 781.259 88.4248 780.665 88.124C780.078 87.8232 779.641 87.4652 779.354 87.0498C779.075 86.6344 778.936 86.1403 778.936 85.5674C778.936 84.6149 779.337 83.8092 780.139 83.1504C780.948 82.4915 781.979 82.1621 783.232 82.1621C784.55 82.1621 785.617 82.5023 786.434 83.1826C787.257 83.863 787.669 84.7331 787.669 85.793H785.671C785.671 85.2487 785.438 84.7796 784.973 84.3857C784.514 83.9919 783.934 83.7949 783.232 83.7949C782.509 83.7949 781.943 83.9525 781.535 84.2676C781.127 84.5827 780.923 84.9945 780.923 85.5029C780.923 85.9827 781.113 86.3444 781.492 86.5879C781.872 86.8314 782.556 87.0641 783.544 87.2861C784.539 87.5081 785.345 87.7731 785.961 88.0811C786.577 88.389 787.032 88.7614 787.325 89.1982C787.626 89.6279 787.776 90.1543 787.776 90.7773C787.776 91.8158 787.361 92.6501 786.53 93.2803C785.7 93.9033 784.622 94.2148 783.297 94.2148C782.366 94.2148 781.542 94.0501 780.826 93.7207C780.11 93.3913 779.548 92.9329 779.14 92.3457C778.739 91.7513 778.538 91.1104 778.538 90.4229H780.525C780.561 91.0889 780.826 91.6188 781.32 92.0127C781.822 92.3994 782.48 92.5928 783.297 92.5928C784.049 92.5928 784.65 92.4424 785.102 92.1416C785.56 91.8337 785.789 91.4255 785.789 90.917ZM789.839 88.0811C789.839 86.9424 790.061 85.9183 790.505 85.0088C790.956 84.0993 791.579 83.3975 792.374 82.9033C793.176 82.4092 794.089 82.1621 795.113 82.1621C796.696 82.1621 797.974 82.71 798.948 83.8057C799.929 84.9014 800.42 86.3587 800.42 88.1777V88.3174C800.42 89.4489 800.201 90.4658 799.765 91.3682C799.335 92.2633 798.715 92.9616 797.906 93.4629C797.104 93.9642 796.18 94.2148 795.135 94.2148C793.559 94.2148 792.281 93.667 791.3 92.5713C790.326 91.4756 789.839 90.0254 789.839 88.2207V88.0811ZM791.837 88.3174C791.837 89.6064 792.134 90.6413 792.729 91.4219C793.33 92.2025 794.132 92.5928 795.135 92.5928C796.145 92.5928 796.947 92.1989 797.541 91.4111C798.135 90.6162 798.433 89.5062 798.433 88.0811C798.433 86.8063 798.128 85.7751 797.52 84.9873C796.918 84.1924 796.116 83.7949 795.113 83.7949C794.132 83.7949 793.341 84.1852 792.739 84.9658C792.138 85.7464 791.837 86.8636 791.837 88.3174ZM802.955 92.958C802.955 92.6143 803.055 92.3278 803.256 92.0986C803.464 91.8695 803.771 91.7549 804.18 91.7549C804.588 91.7549 804.896 91.8695 805.104 92.0986C805.318 92.3278 805.426 92.6143 805.426 92.958C805.426 93.2874 805.318 93.5632 805.104 93.7852C804.896 94.0072 804.588 94.1182 804.18 94.1182C803.771 94.1182 803.464 94.0072 803.256 93.7852C803.055 93.5632 802.955 93.2874 802.955 92.958Z" fill="#38373A"/>
<line y1="2" x2="872" y2="2" stroke="#00498D" stroke-width="4"/>
<line y1="138" x2="872" y2="138" stroke="#00498D" stroke-width="4"/>
</svg>
