<svg width="47" height="24" viewBox="0 0 47 24" fill="none" xmlns="http://www.w3.org/2000/svg">
<path d="M1.30035 5.78784H0.550354V0.100342H1.30035V5.78784ZM3.24567 1.56128L3.2691 2.09253C3.59202 1.68628 4.0139 1.48315 4.53473 1.48315C5.42796 1.48315 5.87848 1.98706 5.88629 2.99487V5.78784H5.16364V2.99097C5.16103 2.68628 5.09072 2.46102 4.9527 2.31519C4.81728 2.16935 4.60504 2.09644 4.31598 2.09644C4.0816 2.09644 3.87587 2.15894 3.69879 2.28394C3.52171 2.40894 3.38369 2.573 3.28473 2.77612V5.78784H2.56207V1.56128H3.24567ZM4.67926 12.9832C4.60895 13.5847 4.38629 14.0496 4.01129 14.3777C3.6389 14.7032 3.1428 14.866 2.52301 14.866C1.85114 14.866 1.31207 14.6251 0.905823 14.1433C0.502177 13.6615 0.300354 13.017 0.300354 12.2097V11.6628C0.300354 11.1342 0.394104 10.6694 0.581604 10.2683C0.771708 9.86727 1.03994 9.55998 1.38629 9.34644C1.73265 9.13029 2.13369 9.02222 2.58942 9.02222C3.19358 9.02222 3.67796 9.19149 4.04254 9.53003C4.40712 9.86597 4.61936 10.3321 4.67926 10.9285H3.92535C3.86025 10.4753 3.71832 10.1472 3.49957 9.94409C3.28343 9.74097 2.98004 9.6394 2.58942 9.6394C2.11025 9.6394 1.73395 9.81649 1.46051 10.1707C1.18968 10.5248 1.05426 11.0287 1.05426 11.6824V12.2332C1.05426 12.8503 1.18317 13.3412 1.44098 13.7058C1.69879 14.0704 2.05947 14.2527 2.52301 14.2527C2.93968 14.2527 3.25869 14.1589 3.48004 13.9714C3.704 13.7813 3.85244 13.4519 3.92535 12.9832H4.67926ZM5.40192 12.6355C5.40192 12.2214 5.48265 11.849 5.6441 11.5183C5.80817 11.1876 6.03473 10.9324 6.32379 10.7527C6.61546 10.573 6.94749 10.4832 7.31989 10.4832C7.89541 10.4832 8.36025 10.6824 8.71442 11.0808C9.07119 11.4792 9.24957 12.0092 9.24957 12.6707V12.7214C9.24957 13.1329 9.17015 13.5027 9.01129 13.8308C8.85504 14.1563 8.62978 14.4102 8.33551 14.5925C8.04384 14.7748 7.70791 14.866 7.3277 14.866C6.75478 14.866 6.28994 14.6667 5.93317 14.2683C5.579 13.8699 5.40192 13.3425 5.40192 12.6863V12.6355ZM6.12848 12.7214C6.12848 13.1902 6.23655 13.5665 6.4527 13.8503C6.67145 14.1342 6.96311 14.2761 7.3277 14.2761C7.69489 14.2761 7.98655 14.1329 8.2027 13.8464C8.41884 13.5574 8.52692 13.1537 8.52692 12.6355C8.52692 12.172 8.41624 11.797 8.19489 11.5105C7.97614 11.2214 7.68447 11.0769 7.31989 11.0769C6.96311 11.0769 6.67535 11.2188 6.4566 11.5027C6.23785 11.7865 6.12848 12.1928 6.12848 12.7214ZM10.941 14.7878H10.2183V8.78784H10.941V14.7878ZM12.8863 14.7878H12.1636V8.78784H12.8863V14.7878ZM16.6558 14.7878C16.6142 14.7045 16.5803 14.5561 16.5543 14.3425C16.2183 14.6915 15.8173 14.866 15.3511 14.866C14.9345 14.866 14.592 14.7488 14.3238 14.5144C14.0582 14.2774 13.9254 13.9779 13.9254 13.616C13.9254 13.1759 14.092 12.8347 14.4254 12.5925C14.7613 12.3477 15.2326 12.2253 15.8394 12.2253H16.5425V11.8933C16.5425 11.6407 16.467 11.4402 16.316 11.2917C16.1649 11.1407 15.9423 11.0652 15.648 11.0652C15.3902 11.0652 15.1741 11.1303 14.9996 11.2605C14.8251 11.3907 14.7379 11.5483 14.7379 11.7332H14.0113C14.0113 11.5222 14.0855 11.3191 14.2339 11.1238C14.385 10.9259 14.5881 10.7696 14.8433 10.655C15.1011 10.5404 15.3837 10.4832 15.691 10.4832C16.178 10.4832 16.5595 10.6056 16.8355 10.8503C17.1116 11.0925 17.2548 11.4272 17.2652 11.8542V13.7996C17.2652 14.1876 17.3147 14.4962 17.4136 14.7253V14.7878H16.6558ZM15.4566 14.2371C15.6832 14.2371 15.898 14.1785 16.1011 14.0613C16.3043 13.9441 16.4514 13.7917 16.5425 13.6042V12.7371H15.9761C15.0907 12.7371 14.648 12.9962 14.648 13.5144C14.648 13.741 14.7235 13.9181 14.8746 14.0457C15.0256 14.1733 15.2196 14.2371 15.4566 14.2371ZM21.9761 12.7214C21.9761 13.3673 21.8277 13.8868 21.5308 14.28C21.2339 14.6707 20.8355 14.866 20.3355 14.866C19.8017 14.866 19.3889 14.6772 19.0972 14.2996L19.0621 14.7878H18.398V8.78784H19.1207V11.0261C19.4123 10.6641 19.8147 10.4832 20.3277 10.4832C20.8407 10.4832 21.2431 10.6772 21.5347 11.0652C21.829 11.4532 21.9761 11.9845 21.9761 12.6589V12.7214ZM21.2535 12.6394C21.2535 12.1472 21.1584 11.767 20.9683 11.4988C20.7782 11.2306 20.5048 11.0964 20.148 11.0964C19.6714 11.0964 19.329 11.3178 19.1207 11.7605V13.5886C19.342 14.0313 19.6871 14.2527 20.1558 14.2527C20.5022 14.2527 20.7717 14.1186 20.9644 13.8503C21.1571 13.5821 21.2535 13.1785 21.2535 12.6394ZM22.6988 12.6355C22.6988 12.2214 22.7795 11.849 22.941 11.5183C23.105 11.1876 23.3316 10.9324 23.6207 10.7527C23.9123 10.573 24.2444 10.4832 24.6168 10.4832C25.1923 10.4832 25.6571 10.6824 26.0113 11.0808C26.3681 11.4792 26.5464 12.0092 26.5464 12.6707V12.7214C26.5464 13.1329 26.467 13.5027 26.3082 13.8308C26.1519 14.1563 25.9267 14.4102 25.6324 14.5925C25.3407 14.7748 25.0048 14.866 24.6246 14.866C24.0517 14.866 23.5868 14.6667 23.23 14.2683C22.8759 13.8699 22.6988 13.3425 22.6988 12.6863V12.6355ZM23.4254 12.7214C23.4254 13.1902 23.5334 13.5665 23.7496 13.8503C23.9683 14.1342 24.26 14.2761 24.6246 14.2761C24.9918 14.2761 25.2834 14.1329 25.4996 13.8464C25.7157 13.5574 25.8238 13.1537 25.8238 12.6355C25.8238 12.172 25.7131 11.797 25.4918 11.5105C25.273 11.2214 24.9813 11.0769 24.6168 11.0769C24.26 11.0769 23.9722 11.2188 23.7535 11.5027C23.5347 11.7865 23.4254 12.1928 23.4254 12.7214ZM29.4957 11.2097C29.3863 11.1915 29.2678 11.1824 29.1402 11.1824C28.6662 11.1824 28.3446 11.3842 28.1754 11.7878V14.7878H27.4527V10.5613H28.1558L28.1675 11.0496C28.4045 10.672 28.7405 10.4832 29.1754 10.4832C29.316 10.4832 29.4227 10.5014 29.4957 10.5378V11.2097ZM32.6168 14.7878C32.5751 14.7045 32.5412 14.5561 32.5152 14.3425C32.1793 14.6915 31.7782 14.866 31.3121 14.866C30.8954 14.866 30.553 14.7488 30.2847 14.5144C30.0191 14.2774 29.8863 13.9779 29.8863 13.616C29.8863 13.1759 30.053 12.8347 30.3863 12.5925C30.7222 12.3477 31.1936 12.2253 31.8004 12.2253H32.5035V11.8933C32.5035 11.6407 32.428 11.4402 32.2769 11.2917C32.1259 11.1407 31.9032 11.0652 31.6089 11.0652C31.3511 11.0652 31.135 11.1303 30.9605 11.2605C30.786 11.3907 30.6988 11.5483 30.6988 11.7332H29.9722C29.9722 11.5222 30.0464 11.3191 30.1949 11.1238C30.3459 10.9259 30.5491 10.7696 30.8043 10.655C31.0621 10.5404 31.3446 10.4832 31.6519 10.4832C32.1389 10.4832 32.5204 10.6056 32.7964 10.8503C33.0725 11.0925 33.2157 11.4272 33.2261 11.8542V13.7996C33.2261 14.1876 33.2756 14.4962 33.3746 14.7253V14.7878H32.6168ZM31.4175 14.2371C31.6441 14.2371 31.8589 14.1785 32.0621 14.0613C32.2652 13.9441 32.4123 13.7917 32.5035 13.6042V12.7371H31.9371C31.0517 12.7371 30.6089 12.9962 30.6089 13.5144C30.6089 13.741 30.6845 13.9181 30.8355 14.0457C30.9866 14.1733 31.1806 14.2371 31.4175 14.2371ZM35.3394 9.53784V10.5613H36.1285V11.1199H35.3394V13.741C35.3394 13.9102 35.3746 14.0378 35.4449 14.1238C35.5152 14.2071 35.635 14.2488 35.8043 14.2488C35.8876 14.2488 36.0022 14.2332 36.148 14.2019V14.7878C35.9579 14.8399 35.773 14.866 35.5933 14.866C35.2704 14.866 35.0269 14.7683 34.8629 14.573C34.6988 14.3777 34.6168 14.1003 34.6168 13.741V11.1199H33.8472V10.5613H34.6168V9.53784H35.3394ZM37.7613 14.7878H37.0386V10.5613H37.7613V14.7878ZM36.98 9.44019C36.98 9.323 37.0152 9.22404 37.0855 9.14331C37.1584 9.06258 37.2652 9.02222 37.4058 9.02222C37.5464 9.02222 37.6532 9.06258 37.7261 9.14331C37.7991 9.22404 37.8355 9.323 37.8355 9.44019C37.8355 9.55737 37.7991 9.65503 37.7261 9.73315C37.6532 9.81128 37.5464 9.85034 37.4058 9.85034C37.2652 9.85034 37.1584 9.81128 37.0855 9.73315C37.0152 9.65503 36.98 9.55737 36.98 9.44019ZM38.73 12.6355C38.73 12.2214 38.8108 11.849 38.9722 11.5183C39.1363 11.1876 39.3629 10.9324 39.6519 10.7527C39.9436 10.573 40.2756 10.4832 40.648 10.4832C41.2235 10.4832 41.6884 10.6824 42.0425 11.0808C42.3993 11.4792 42.5777 12.0092 42.5777 12.6707V12.7214C42.5777 13.1329 42.4983 13.5027 42.3394 13.8308C42.1832 14.1563 41.9579 14.4102 41.6636 14.5925C41.372 14.7748 41.036 14.866 40.6558 14.866C40.0829 14.866 39.6181 14.6667 39.2613 14.2683C38.9071 13.8699 38.73 13.3425 38.73 12.6863V12.6355ZM39.4566 12.7214C39.4566 13.1902 39.5647 13.5665 39.7808 13.8503C39.9996 14.1342 40.2912 14.2761 40.6558 14.2761C41.023 14.2761 41.3147 14.1329 41.5308 13.8464C41.747 13.5574 41.855 13.1537 41.855 12.6355C41.855 12.172 41.7444 11.797 41.523 11.5105C41.3043 11.2214 41.0126 11.0769 40.648 11.0769C40.2912 11.0769 40.0035 11.2188 39.7847 11.5027C39.566 11.7865 39.4566 12.1928 39.4566 12.7214ZM44.1675 10.5613L44.191 11.0925C44.5139 10.6863 44.9358 10.4832 45.4566 10.4832C46.3498 10.4832 46.8004 10.9871 46.8082 11.9949V14.7878H46.0855V11.991C46.0829 11.6863 46.0126 11.461 45.8746 11.3152C45.7392 11.1694 45.5269 11.0964 45.2379 11.0964C45.0035 11.0964 44.7977 11.1589 44.6207 11.2839C44.4436 11.4089 44.3056 11.573 44.2066 11.7761V14.7878H43.4839V10.5613H44.1675ZM4.12457 22.7917L4.93707 19.5613H5.65973L4.42926 23.7878H3.84332L2.81598 20.5847L1.81598 23.7878H1.23004L0.003479 19.5613H0.722229L1.55426 22.7253L2.53864 19.5613H3.12067L4.12457 22.7917ZM7.18317 23.7878H6.46051V19.5613H7.18317V23.7878ZM6.40192 18.4402C6.40192 18.323 6.43707 18.224 6.50739 18.1433C6.5803 18.0626 6.68707 18.0222 6.8277 18.0222C6.96832 18.0222 7.07509 18.0626 7.14801 18.1433C7.22093 18.224 7.25739 18.323 7.25739 18.4402C7.25739 18.5574 7.22093 18.655 7.14801 18.7332C7.07509 18.8113 6.96832 18.8503 6.8277 18.8503C6.68707 18.8503 6.5803 18.8113 6.50739 18.7332C6.43707 18.655 6.40192 18.5574 6.40192 18.4402ZM9.32379 18.5378V19.5613H10.1129V20.1199H9.32379V22.741C9.32379 22.9102 9.35895 23.0378 9.42926 23.1238C9.49957 23.2071 9.61936 23.2488 9.78864 23.2488C9.87197 23.2488 9.98655 23.2332 10.1324 23.2019V23.7878C9.94228 23.8399 9.75739 23.866 9.5777 23.866C9.25478 23.866 9.01129 23.7683 8.84723 23.573C8.68317 23.3777 8.60114 23.1003 8.60114 22.741V20.1199H7.8316V19.5613H8.60114V18.5378H9.32379ZM11.6832 20.073C12.0035 19.6798 12.4201 19.4832 12.9332 19.4832C13.8264 19.4832 14.2769 19.9871 14.2847 20.9949V23.7878H13.5621V20.991C13.5595 20.6863 13.4892 20.461 13.3511 20.3152C13.2157 20.1694 13.0035 20.0964 12.7144 20.0964C12.48 20.0964 12.2743 20.1589 12.0972 20.2839C11.9201 20.4089 11.7821 20.573 11.6832 20.7761V23.7878H10.9605V17.7878H11.6832V20.073Z" fill="#909294"/>
</svg>
