<svg width="439" height="178" viewBox="0 0 439 178" fill="none" xmlns="http://www.w3.org/2000/svg">
<path d="M14.1367 108.36C13.917 110.24 13.2212 111.693 12.0493 112.718C10.8856 113.736 9.33529 114.244 7.39844 114.244C5.29883 114.244 3.61426 113.491 2.34473 111.986C1.08333 110.48 0.452637 108.466 0.452637 105.943V104.234C0.452637 102.582 0.745605 101.13 1.33154 99.8765C1.92562 98.6232 2.76383 97.6629 3.84619 96.9956C4.92855 96.3201 6.1818 95.9824 7.60596 95.9824C9.49398 95.9824 11.0076 96.5114 12.147 97.5693C13.2863 98.6191 13.9495 100.076 14.1367 101.939H11.7808C11.5773 100.523 11.1338 99.498 10.4502 98.8633C9.77474 98.2285 8.82666 97.9111 7.60596 97.9111C6.10856 97.9111 4.93262 98.4645 4.07812 99.5713C3.23177 100.678 2.80859 102.253 2.80859 104.295V106.017C2.80859 107.945 3.21143 109.479 4.01709 110.619C4.82275 111.758 5.94987 112.328 7.39844 112.328C8.70052 112.328 9.69743 112.035 10.3892 111.449C11.089 110.855 11.5529 109.825 11.7808 108.36H14.1367ZM25.1475 112.694C24.2686 113.727 22.9787 114.244 21.2778 114.244C19.87 114.244 18.7957 113.837 18.0552 113.023C17.3228 112.201 16.9525 110.989 16.9443 109.386V100.792H19.2026V109.325C19.2026 111.327 20.0164 112.328 21.644 112.328C23.3693 112.328 24.5168 111.685 25.0864 110.399V100.792H27.3447V114H25.1963L25.1475 112.694ZM32.9111 100.792L32.9722 102.257C33.9406 101.118 35.2467 100.548 36.8906 100.548C38.738 100.548 39.9953 101.256 40.6626 102.672C41.1021 102.037 41.6717 101.524 42.3716 101.134C43.0796 100.743 43.9137 100.548 44.874 100.548C47.7712 100.548 49.2441 102.082 49.293 105.15V114H47.0347V105.284C47.0347 104.34 46.819 103.636 46.3877 103.172C45.9564 102.7 45.2321 102.464 44.2148 102.464C43.3766 102.464 42.6808 102.717 42.1274 103.221C41.5741 103.718 41.2526 104.389 41.1631 105.235V114H38.8926V105.345C38.8926 103.425 37.9526 102.464 36.0728 102.464C34.5916 102.464 33.5785 103.095 33.0332 104.356V114H30.7749V100.792H32.9111ZM63.8682 107.542C63.8682 109.553 63.4084 111.172 62.4888 112.401C61.5692 113.63 60.3241 114.244 58.7534 114.244C57.1502 114.244 55.8888 113.736 54.9692 112.718V119.078H52.7109V100.792H54.7739L54.8838 102.257C55.8034 101.118 57.0811 100.548 58.7168 100.548C60.3037 100.548 61.557 101.146 62.4766 102.342C63.4043 103.539 63.8682 105.203 63.8682 107.335V107.542ZM61.6099 107.286C61.6099 105.797 61.2925 104.621 60.6577 103.758C60.0229 102.896 59.1522 102.464 58.0454 102.464C56.6782 102.464 55.6528 103.071 54.9692 104.283V110.594C55.6447 111.799 56.6782 112.401 58.0698 112.401C59.1522 112.401 60.0107 111.974 60.6455 111.119C61.2884 110.257 61.6099 108.979 61.6099 107.286ZM73.1333 102.818C72.7915 102.761 72.4212 102.733 72.0225 102.733C70.5413 102.733 69.5363 103.364 69.0073 104.625V114H66.749V100.792H68.9463L68.9829 102.318C69.7235 101.138 70.7733 100.548 72.1323 100.548C72.5718 100.548 72.9054 100.605 73.1333 100.719V102.818ZM82.8867 114C82.7565 113.74 82.6507 113.276 82.5693 112.608C81.5195 113.699 80.2663 114.244 78.8096 114.244C77.5075 114.244 76.4373 113.878 75.5991 113.146C74.769 112.405 74.354 111.469 74.354 110.338C74.354 108.963 74.8748 107.896 75.9165 107.14C76.9663 106.375 78.4393 105.992 80.3354 105.992H82.5327V104.955C82.5327 104.165 82.2967 103.539 81.8247 103.075C81.3527 102.603 80.6569 102.367 79.7373 102.367C78.9316 102.367 78.2562 102.57 77.7109 102.977C77.1657 103.384 76.8931 103.876 76.8931 104.454H74.6226C74.6226 103.795 74.8545 103.16 75.3184 102.55C75.7904 101.931 76.4251 101.443 77.2227 101.085C78.0283 100.727 78.9113 100.548 79.8716 100.548C81.3934 100.548 82.5856 100.93 83.4482 101.695C84.3109 102.452 84.7585 103.498 84.791 104.833V110.912C84.791 112.124 84.9456 113.089 85.2549 113.805V114H82.8867ZM79.1392 112.279C79.8472 112.279 80.5186 112.096 81.1533 111.729C81.7881 111.363 82.2479 110.887 82.5327 110.301V107.591H80.7627C77.9958 107.591 76.6123 108.401 76.6123 110.021C76.6123 110.729 76.8483 111.282 77.3203 111.681C77.7923 112.079 78.3986 112.279 79.1392 112.279ZM102.687 114C102.556 113.74 102.451 113.276 102.369 112.608C101.319 113.699 100.066 114.244 98.6094 114.244C97.3073 114.244 96.2371 113.878 95.3989 113.146C94.5688 112.405 94.1538 111.469 94.1538 110.338C94.1538 108.963 94.6746 107.896 95.7163 107.14C96.7661 106.375 98.2391 105.992 100.135 105.992H102.333V104.955C102.333 104.165 102.097 103.539 101.625 103.075C101.153 102.603 100.457 102.367 99.5371 102.367C98.7314 102.367 98.056 102.57 97.5107 102.977C96.9655 103.384 96.6929 103.876 96.6929 104.454H94.4224C94.4224 103.795 94.6543 103.16 95.1182 102.55C95.5902 101.931 96.2249 101.443 97.0225 101.085C97.8281 100.727 98.7111 100.548 99.6714 100.548C101.193 100.548 102.385 100.93 103.248 101.695C104.111 102.452 104.558 103.498 104.591 104.833V110.912C104.591 112.124 104.745 113.089 105.055 113.805V114H102.687ZM98.939 112.279C99.647 112.279 100.318 112.096 100.953 111.729C101.588 111.363 102.048 110.887 102.333 110.301V107.591H100.562C97.7956 107.591 96.4121 108.401 96.4121 110.021C96.4121 110.729 96.6481 111.282 97.1201 111.681C97.5921 112.079 98.1984 112.279 98.939 112.279ZM115.821 110.497C115.821 109.886 115.589 109.414 115.125 109.081C114.67 108.739 113.868 108.446 112.721 108.202C111.581 107.958 110.674 107.665 109.999 107.323C109.331 106.981 108.835 106.574 108.509 106.102C108.192 105.63 108.033 105.069 108.033 104.417C108.033 103.335 108.489 102.42 109.4 101.671C110.32 100.922 111.492 100.548 112.916 100.548C114.413 100.548 115.626 100.934 116.554 101.708C117.49 102.481 117.958 103.469 117.958 104.674H115.687C115.687 104.055 115.423 103.522 114.894 103.075C114.373 102.627 113.714 102.403 112.916 102.403C112.094 102.403 111.451 102.582 110.987 102.94C110.523 103.299 110.292 103.766 110.292 104.344C110.292 104.889 110.507 105.3 110.938 105.577C111.37 105.854 112.147 106.118 113.27 106.371C114.401 106.623 115.317 106.924 116.017 107.274C116.716 107.624 117.233 108.047 117.567 108.543C117.909 109.032 118.08 109.63 118.08 110.338C118.08 111.518 117.608 112.466 116.664 113.182C115.72 113.89 114.495 114.244 112.989 114.244C111.931 114.244 110.995 114.057 110.182 113.683C109.368 113.308 108.729 112.787 108.265 112.12C107.809 111.445 107.582 110.716 107.582 109.935H109.84C109.881 110.692 110.182 111.294 110.743 111.742C111.313 112.181 112.062 112.401 112.989 112.401C113.844 112.401 114.527 112.23 115.04 111.888C115.561 111.538 115.821 111.074 115.821 110.497ZM133.607 102.818C133.265 102.761 132.895 102.733 132.496 102.733C131.015 102.733 130.01 103.364 129.481 104.625V114H127.223V100.792H129.42L129.457 102.318C130.197 101.138 131.247 100.548 132.606 100.548C133.045 100.548 133.379 100.605 133.607 100.719V102.818ZM140.931 114.244C139.141 114.244 137.684 113.658 136.561 112.486C135.438 111.306 134.876 109.732 134.876 107.762V107.347C134.876 106.037 135.125 104.869 135.621 103.844C136.126 102.81 136.826 102.005 137.721 101.427C138.624 100.841 139.601 100.548 140.65 100.548C142.368 100.548 143.702 101.113 144.654 102.245C145.606 103.376 146.083 104.995 146.083 107.103V108.043H137.135C137.167 109.345 137.546 110.399 138.27 111.205C139.002 112.002 139.93 112.401 141.053 112.401C141.851 112.401 142.526 112.238 143.08 111.913C143.633 111.587 144.117 111.156 144.532 110.619L145.912 111.693C144.805 113.394 143.145 114.244 140.931 114.244ZM140.65 102.403C139.739 102.403 138.974 102.737 138.355 103.404C137.737 104.063 137.354 104.991 137.208 106.188H143.824V106.017C143.759 104.869 143.45 103.982 142.896 103.355C142.343 102.721 141.594 102.403 140.65 102.403ZM148.17 107.286C148.17 105.227 148.646 103.591 149.598 102.379C150.55 101.158 151.812 100.548 153.382 100.548C154.994 100.548 156.251 101.118 157.154 102.257L157.264 100.792H159.327V113.683C159.327 115.392 158.819 116.738 157.801 117.723C156.792 118.708 155.433 119.2 153.724 119.2C152.772 119.2 151.84 118.997 150.929 118.59C150.017 118.183 149.321 117.625 148.841 116.917L150.013 115.562C150.982 116.759 152.166 117.357 153.565 117.357C154.664 117.357 155.519 117.048 156.129 116.429C156.747 115.811 157.057 114.94 157.057 113.817V112.682C156.153 113.723 154.92 114.244 153.358 114.244C151.812 114.244 150.558 113.622 149.598 112.376C148.646 111.131 148.17 109.435 148.17 107.286ZM150.44 107.542C150.44 109.032 150.746 110.204 151.356 111.058C151.966 111.904 152.821 112.328 153.919 112.328C155.344 112.328 156.389 111.681 157.057 110.387V104.356C156.365 103.095 155.327 102.464 153.944 102.464C152.845 102.464 151.987 102.892 151.368 103.746C150.75 104.601 150.44 105.866 150.44 107.542ZM170.899 112.694C170.021 113.727 168.731 114.244 167.03 114.244C165.622 114.244 164.548 113.837 163.807 113.023C163.075 112.201 162.704 110.989 162.696 109.386V100.792H164.955V109.325C164.955 111.327 165.768 112.328 167.396 112.328C169.121 112.328 170.269 111.685 170.838 110.399V100.792H173.097V114H170.948L170.899 112.694ZM178.993 114H176.734V95.25H178.993V114ZM190.772 114C190.642 113.74 190.536 113.276 190.455 112.608C189.405 113.699 188.152 114.244 186.695 114.244C185.393 114.244 184.323 113.878 183.485 113.146C182.655 112.405 182.24 111.469 182.24 110.338C182.24 108.963 182.761 107.896 183.802 107.14C184.852 106.375 186.325 105.992 188.221 105.992H190.418V104.955C190.418 104.165 190.182 103.539 189.71 103.075C189.238 102.603 188.543 102.367 187.623 102.367C186.817 102.367 186.142 102.57 185.597 102.977C185.051 103.384 184.779 103.876 184.779 104.454H182.508C182.508 103.795 182.74 103.16 183.204 102.55C183.676 101.931 184.311 101.443 185.108 101.085C185.914 100.727 186.797 100.548 187.757 100.548C189.279 100.548 190.471 100.93 191.334 101.695C192.197 102.452 192.644 103.498 192.677 104.833V110.912C192.677 112.124 192.831 113.089 193.141 113.805V114H190.772ZM187.025 112.279C187.733 112.279 188.404 112.096 189.039 111.729C189.674 111.363 190.134 110.887 190.418 110.301V107.591H188.648C185.882 107.591 184.498 108.401 184.498 110.021C184.498 110.729 184.734 111.282 185.206 111.681C185.678 112.079 186.284 112.279 187.025 112.279ZM198.341 100.792L198.402 102.257C199.37 101.118 200.676 100.548 202.32 100.548C204.168 100.548 205.425 101.256 206.092 102.672C206.532 102.037 207.101 101.524 207.801 101.134C208.509 100.743 209.343 100.548 210.304 100.548C213.201 100.548 214.674 102.082 214.723 105.15V114H212.464V105.284C212.464 104.34 212.249 103.636 211.817 103.172C211.386 102.7 210.662 102.464 209.645 102.464C208.806 102.464 208.111 102.717 207.557 103.221C207.004 103.718 206.682 104.389 206.593 105.235V114H204.322V105.345C204.322 103.425 203.382 102.464 201.502 102.464C200.021 102.464 199.008 103.095 198.463 104.356V114H196.205V100.792H198.341ZM223.622 114.244C221.831 114.244 220.375 113.658 219.251 112.486C218.128 111.306 217.567 109.732 217.567 107.762V107.347C217.567 106.037 217.815 104.869 218.312 103.844C218.816 102.81 219.516 102.005 220.411 101.427C221.314 100.841 222.291 100.548 223.341 100.548C225.058 100.548 226.393 101.113 227.345 102.245C228.297 103.376 228.773 104.995 228.773 107.103V108.043H219.825C219.858 109.345 220.236 110.399 220.96 111.205C221.693 112.002 222.621 112.401 223.744 112.401C224.541 112.401 225.217 112.238 225.77 111.913C226.323 111.587 226.808 111.156 227.223 110.619L228.602 111.693C227.495 113.394 225.835 114.244 223.622 114.244ZM223.341 102.403C222.429 102.403 221.664 102.737 221.046 103.404C220.427 104.063 220.045 104.991 219.898 106.188H226.515V106.017C226.45 104.869 226.14 103.982 225.587 103.355C225.034 102.721 224.285 102.403 223.341 102.403ZM233.534 100.792L233.607 102.452C234.616 101.183 235.934 100.548 237.562 100.548C240.353 100.548 241.761 102.123 241.786 105.272V114H239.527V105.26C239.519 104.308 239.299 103.604 238.868 103.148C238.445 102.692 237.782 102.464 236.878 102.464C236.146 102.464 235.503 102.66 234.95 103.05C234.396 103.441 233.965 103.954 233.656 104.588V114H231.397V100.792H233.534ZM248.255 97.5938V100.792H250.721V102.538H248.255V110.729C248.255 111.257 248.365 111.656 248.585 111.925C248.805 112.185 249.179 112.315 249.708 112.315C249.968 112.315 250.326 112.267 250.782 112.169V114C250.188 114.163 249.61 114.244 249.049 114.244C248.04 114.244 247.279 113.939 246.766 113.329C246.253 112.718 245.997 111.852 245.997 110.729V102.538H243.592V100.792H245.997V97.5938H248.255ZM261.524 114C261.394 113.74 261.288 113.276 261.207 112.608C260.157 113.699 258.904 114.244 257.447 114.244C256.145 114.244 255.075 113.878 254.237 113.146C253.407 112.405 252.992 111.469 252.992 110.338C252.992 108.963 253.513 107.896 254.554 107.14C255.604 106.375 257.077 105.992 258.973 105.992H261.17V104.955C261.17 104.165 260.934 103.539 260.462 103.075C259.99 102.603 259.295 102.367 258.375 102.367C257.569 102.367 256.894 102.57 256.349 102.977C255.803 103.384 255.531 103.876 255.531 104.454H253.26C253.26 103.795 253.492 103.16 253.956 102.55C254.428 101.931 255.063 101.443 255.86 101.085C256.666 100.727 257.549 100.548 258.509 100.548C260.031 100.548 261.223 100.93 262.086 101.695C262.949 102.452 263.396 103.498 263.429 104.833V110.912C263.429 112.124 263.583 113.089 263.893 113.805V114H261.524ZM257.777 112.279C258.485 112.279 259.156 112.096 259.791 111.729C260.426 111.363 260.886 110.887 261.17 110.301V107.591H259.4C256.633 107.591 255.25 108.401 255.25 110.021C255.25 110.729 255.486 111.282 255.958 111.681C256.43 112.079 257.036 112.279 257.777 112.279ZM272.267 112.401C273.072 112.401 273.776 112.157 274.378 111.668C274.981 111.18 275.314 110.57 275.379 109.837H277.516C277.475 110.594 277.215 111.314 276.734 111.998C276.254 112.682 275.611 113.227 274.806 113.634C274.008 114.041 273.162 114.244 272.267 114.244C270.468 114.244 269.036 113.646 267.97 112.45C266.912 111.245 266.383 109.601 266.383 107.518V107.14C266.383 105.854 266.619 104.71 267.091 103.709C267.563 102.708 268.238 101.931 269.117 101.378C270.004 100.825 271.05 100.548 272.254 100.548C273.736 100.548 274.964 100.991 275.941 101.878C276.926 102.765 277.451 103.917 277.516 105.333H275.379C275.314 104.479 274.989 103.779 274.403 103.233C273.825 102.68 273.109 102.403 272.254 102.403C271.107 102.403 270.216 102.818 269.581 103.648C268.954 104.47 268.641 105.663 268.641 107.225V107.652C268.641 109.174 268.954 110.346 269.581 111.168C270.208 111.99 271.103 112.401 272.267 112.401ZM272.633 114.11L272.486 114.745C273.731 114.964 274.354 115.668 274.354 116.856C274.354 117.646 274.028 118.268 273.377 118.724C272.726 119.188 271.819 119.42 270.655 119.42L270.57 118.114C271.213 118.114 271.709 118.008 272.059 117.796C272.417 117.585 272.596 117.288 272.596 116.905C272.596 116.547 272.466 116.283 272.206 116.112C271.945 115.941 271.416 115.819 270.619 115.746L271.009 114.11H272.633ZM279.457 107.274C279.457 105.98 279.709 104.816 280.213 103.783C280.726 102.749 281.434 101.952 282.337 101.39C283.249 100.829 284.286 100.548 285.45 100.548C287.249 100.548 288.701 101.17 289.808 102.416C290.923 103.661 291.48 105.317 291.48 107.384V107.542C291.48 108.828 291.232 109.984 290.736 111.009C290.248 112.027 289.544 112.82 288.624 113.39C287.713 113.959 286.663 114.244 285.475 114.244C283.684 114.244 282.232 113.622 281.117 112.376C280.01 111.131 279.457 109.483 279.457 107.433V107.274ZM281.727 107.542C281.727 109.007 282.065 110.183 282.74 111.07C283.424 111.957 284.335 112.401 285.475 112.401C286.622 112.401 287.534 111.953 288.209 111.058C288.884 110.155 289.222 108.893 289.222 107.274C289.222 105.825 288.876 104.653 288.185 103.758C287.501 102.855 286.59 102.403 285.45 102.403C284.335 102.403 283.436 102.847 282.752 103.734C282.069 104.621 281.727 105.89 281.727 107.542ZM289.698 95.6406C289.698 96.5195 289.446 97.2316 288.941 97.7769C288.445 98.3221 287.822 98.5947 287.074 98.5947C286.74 98.5947 286.451 98.554 286.207 98.4727C285.963 98.3913 285.641 98.2244 285.243 97.9722C284.852 97.7199 284.567 97.5693 284.388 97.5205C284.217 97.4635 284.018 97.4351 283.79 97.4351C283.456 97.4351 283.172 97.5653 282.936 97.8257C282.7 98.078 282.582 98.4035 282.582 98.8022L281.068 98.7168C281.068 97.846 281.312 97.1258 281.8 96.5562C282.297 95.9865 282.923 95.7017 283.68 95.7017C283.965 95.7017 284.221 95.7424 284.449 95.8237C284.677 95.9051 284.986 96.0638 285.377 96.2998C285.768 96.5358 286.065 96.6904 286.268 96.7637C286.48 96.8369 286.712 96.8735 286.964 96.8735C287.314 96.8735 287.603 96.7352 287.831 96.4585C288.067 96.1818 288.185 95.8604 288.185 95.4941L289.698 95.6406ZM299.793 114.244C298.003 114.244 296.546 113.658 295.423 112.486C294.3 111.306 293.739 109.732 293.739 107.762V107.347C293.739 106.037 293.987 104.869 294.483 103.844C294.988 102.81 295.688 102.005 296.583 101.427C297.486 100.841 298.463 100.548 299.513 100.548C301.23 100.548 302.564 101.113 303.517 102.245C304.469 103.376 304.945 104.995 304.945 107.103V108.043H295.997C296.03 109.345 296.408 110.399 297.132 111.205C297.865 112.002 298.792 112.401 299.916 112.401C300.713 112.401 301.389 112.238 301.942 111.913C302.495 111.587 302.979 111.156 303.395 110.619L304.774 111.693C303.667 113.394 302.007 114.244 299.793 114.244ZM299.513 102.403C298.601 102.403 297.836 102.737 297.218 103.404C296.599 104.063 296.217 104.991 296.07 106.188H302.687V106.017C302.621 104.869 302.312 103.982 301.759 103.355C301.205 102.721 300.457 102.403 299.513 102.403ZM315.26 110.497C315.26 109.886 315.028 109.414 314.564 109.081C314.108 108.739 313.307 108.446 312.159 108.202C311.02 107.958 310.112 107.665 309.437 107.323C308.77 106.981 308.273 106.574 307.948 106.102C307.63 105.63 307.472 105.069 307.472 104.417C307.472 103.335 307.927 102.42 308.839 101.671C309.758 100.922 310.93 100.548 312.354 100.548C313.852 100.548 315.064 100.934 315.992 101.708C316.928 102.481 317.396 103.469 317.396 104.674H315.125C315.125 104.055 314.861 103.522 314.332 103.075C313.811 102.627 313.152 102.403 312.354 102.403C311.533 102.403 310.89 102.582 310.426 102.94C309.962 103.299 309.73 103.766 309.73 104.344C309.73 104.889 309.946 105.3 310.377 105.577C310.808 105.854 311.585 106.118 312.708 106.371C313.84 106.623 314.755 106.924 315.455 107.274C316.155 107.624 316.672 108.047 317.005 108.543C317.347 109.032 317.518 109.63 317.518 110.338C317.518 111.518 317.046 112.466 316.102 113.182C315.158 113.89 313.933 114.244 312.428 114.244C311.37 114.244 310.434 114.057 309.62 113.683C308.806 113.308 308.167 112.787 307.704 112.12C307.248 111.445 307.02 110.716 307.02 109.935H309.278C309.319 110.692 309.62 111.294 310.182 111.742C310.751 112.181 311.5 112.401 312.428 112.401C313.282 112.401 313.966 112.23 314.479 111.888C314.999 111.538 315.26 111.074 315.26 110.497ZM332.142 114.244C330.352 114.244 328.895 113.658 327.772 112.486C326.649 111.306 326.087 109.732 326.087 107.762V107.347C326.087 106.037 326.336 104.869 326.832 103.844C327.337 102.81 328.036 102.005 328.932 101.427C329.835 100.841 330.812 100.548 331.861 100.548C333.578 100.548 334.913 101.113 335.865 102.245C336.817 103.376 337.293 104.995 337.293 107.103V108.043H328.346C328.378 109.345 328.757 110.399 329.481 111.205C330.213 112.002 331.141 112.401 332.264 112.401C333.062 112.401 333.737 112.238 334.291 111.913C334.844 111.587 335.328 111.156 335.743 110.619L337.123 111.693C336.016 113.394 334.356 114.244 332.142 114.244ZM331.861 102.403C330.95 102.403 330.185 102.737 329.566 103.404C328.948 104.063 328.565 104.991 328.419 106.188H335.035V106.017C334.97 104.869 334.661 103.982 334.107 103.355C333.554 102.721 332.805 102.403 331.861 102.403ZM11.8662 136.542C11.8662 138.553 11.4064 140.172 10.4868 141.401C9.56722 142.63 8.3221 143.244 6.75146 143.244C5.14827 143.244 3.88688 142.736 2.96729 141.718V148.078H0.708984V129.792H2.77197L2.88184 131.257C3.80143 130.118 5.0791 129.548 6.71484 129.548C8.30176 129.548 9.55501 130.146 10.4746 131.342C11.4023 132.539 11.8662 134.203 11.8662 136.335V136.542ZM9.60791 136.286C9.60791 134.797 9.29053 133.621 8.65576 132.758C8.021 131.896 7.15023 131.464 6.04346 131.464C4.67627 131.464 3.65088 132.071 2.96729 133.283V139.594C3.64274 140.799 4.67627 141.401 6.06787 141.401C7.15023 141.401 8.00879 140.974 8.64355 140.119C9.28646 139.257 9.60791 137.979 9.60791 136.286ZM21.1313 131.818C20.7896 131.761 20.4193 131.733 20.0205 131.733C18.5394 131.733 17.5343 132.364 17.0054 133.625V143H14.7471V129.792H16.9443L16.981 131.318C17.7215 130.138 18.7713 129.548 20.1304 129.548C20.5698 129.548 20.9035 129.605 21.1313 129.719V131.818ZM22.3765 136.274C22.3765 134.98 22.6287 133.816 23.1333 132.783C23.646 131.749 24.354 130.952 25.2573 130.39C26.1688 129.829 27.2064 129.548 28.3701 129.548C30.1686 129.548 31.6213 130.17 32.728 131.416C33.8429 132.661 34.4004 134.317 34.4004 136.384V136.542C34.4004 137.828 34.1522 138.984 33.6558 140.009C33.1675 141.027 32.4635 141.82 31.5439 142.39C30.6325 142.959 29.5827 143.244 28.3945 143.244C26.6042 143.244 25.1515 142.622 24.0366 141.376C22.9299 140.131 22.3765 138.483 22.3765 136.433V136.274ZM24.647 136.542C24.647 138.007 24.9847 139.183 25.6602 140.07C26.3438 140.957 27.2552 141.401 28.3945 141.401C29.542 141.401 30.4535 140.953 31.1289 140.058C31.8044 139.155 32.1421 137.893 32.1421 136.274C32.1421 134.825 31.7962 133.653 31.1045 132.758C30.4209 131.855 29.5094 131.403 28.3701 131.403C27.2552 131.403 26.356 131.847 25.6724 132.734C24.9888 133.621 24.647 134.89 24.647 136.542ZM40.2964 126.594V129.792H42.7622V131.538H40.2964V139.729C40.2964 140.257 40.4062 140.656 40.626 140.925C40.8457 141.185 41.2201 141.315 41.749 141.315C42.0094 141.315 42.3675 141.267 42.8232 141.169V143C42.2292 143.163 41.6514 143.244 41.0898 143.244C40.0807 143.244 39.3198 142.939 38.8071 142.329C38.2944 141.718 38.0381 140.852 38.0381 139.729V131.538H35.6333V129.792H38.0381V126.594H40.2964ZM50.8921 143.244C49.1017 143.244 47.645 142.658 46.522 141.486C45.3989 140.306 44.8374 138.732 44.8374 136.762V136.347C44.8374 135.037 45.0856 133.869 45.582 132.844C46.0866 131.81 46.7865 131.005 47.6816 130.427C48.585 129.841 49.5615 129.548 50.6113 129.548C52.3285 129.548 53.6631 130.113 54.6152 131.245C55.5674 132.376 56.0435 133.995 56.0435 136.103V137.043H47.0957C47.1283 138.345 47.5067 139.399 48.231 140.205C48.9634 141.002 49.8911 141.401 51.0142 141.401C51.8117 141.401 52.4871 141.238 53.0405 140.913C53.5939 140.587 54.0781 140.156 54.4932 139.619L55.8726 140.693C54.7658 142.394 53.1056 143.244 50.8921 143.244ZM50.6113 131.403C49.6999 131.403 48.9349 131.737 48.3164 132.404C47.6979 133.063 47.3154 133.991 47.1689 135.188H53.7852V135.017C53.7201 133.869 53.4108 132.982 52.8574 132.355C52.304 131.721 51.5553 131.403 50.6113 131.403ZM60.9995 129.792V144.526C60.9995 147.065 59.848 148.334 57.5449 148.334C57.0485 148.334 56.5887 148.261 56.1655 148.115V146.308C56.4259 146.373 56.7677 146.406 57.1909 146.406C57.6955 146.406 58.078 146.267 58.3384 145.991C58.6069 145.722 58.7412 145.25 58.7412 144.575V129.792H60.9995ZM58.5093 126.289C58.5093 125.931 58.6191 125.625 58.8389 125.373C59.0667 125.113 59.3963 124.982 59.8276 124.982C60.2671 124.982 60.6007 125.109 60.8286 125.361C61.0565 125.613 61.1704 125.922 61.1704 126.289C61.1704 126.655 61.0565 126.96 60.8286 127.204C60.6007 127.448 60.2671 127.57 59.8276 127.57C59.3882 127.57 59.0586 127.448 58.8389 127.204C58.6191 126.96 58.5093 126.655 58.5093 126.289ZM72.8037 143C72.6735 142.74 72.5677 142.276 72.4863 141.608C71.4365 142.699 70.1833 143.244 68.7266 143.244C67.4245 143.244 66.3543 142.878 65.5161 142.146C64.686 141.405 64.271 140.469 64.271 139.338C64.271 137.963 64.7918 136.896 65.8335 136.14C66.8833 135.375 68.3563 134.992 70.2524 134.992H72.4497V133.955C72.4497 133.165 72.2137 132.539 71.7417 132.075C71.2697 131.603 70.5739 131.367 69.6543 131.367C68.8486 131.367 68.1732 131.57 67.6279 131.977C67.0827 132.384 66.8101 132.876 66.8101 133.454H64.5396C64.5396 132.795 64.7715 132.16 65.2354 131.55C65.7074 130.931 66.3421 130.443 67.1396 130.085C67.9453 129.727 68.8283 129.548 69.7886 129.548C71.3104 129.548 72.5026 129.93 73.3652 130.695C74.2279 131.452 74.6755 132.498 74.708 133.833V139.912C74.708 141.124 74.8626 142.089 75.1719 142.805V143H72.8037ZM69.0562 141.279C69.7642 141.279 70.4355 141.096 71.0703 140.729C71.7051 140.363 72.1649 139.887 72.4497 139.301V136.591H70.6797C67.9128 136.591 66.5293 137.401 66.5293 139.021C66.5293 139.729 66.7653 140.282 67.2373 140.681C67.7093 141.079 68.3156 141.279 69.0562 141.279ZM83.8511 136.274C83.8511 134.98 84.1034 133.816 84.6079 132.783C85.1206 131.749 85.8286 130.952 86.7319 130.39C87.6434 129.829 88.681 129.548 89.8447 129.548C91.6432 129.548 93.0959 130.17 94.2026 131.416C95.3175 132.661 95.875 134.317 95.875 136.384V136.542C95.875 137.828 95.6268 138.984 95.1304 140.009C94.6421 141.027 93.9382 141.82 93.0186 142.39C92.1071 142.959 91.0573 143.244 89.8691 143.244C88.0788 143.244 86.6261 142.622 85.5112 141.376C84.4045 140.131 83.8511 138.483 83.8511 136.433V136.274ZM86.1216 136.542C86.1216 138.007 86.4593 139.183 87.1348 140.07C87.8184 140.957 88.7298 141.401 89.8691 141.401C91.0166 141.401 91.9281 140.953 92.6035 140.058C93.279 139.155 93.6167 137.893 93.6167 136.274C93.6167 134.825 93.2708 133.653 92.5791 132.758C91.8955 131.855 90.984 131.403 89.8447 131.403C88.7298 131.403 87.8306 131.847 87.147 132.734C86.4634 133.621 86.1216 134.89 86.1216 136.542ZM106.397 139.497C106.397 138.886 106.166 138.414 105.702 138.081C105.246 137.739 104.444 137.446 103.297 137.202C102.158 136.958 101.25 136.665 100.575 136.323C99.9074 135.981 99.411 135.574 99.0854 135.102C98.7681 134.63 98.6094 134.069 98.6094 133.417C98.6094 132.335 99.0651 131.42 99.9766 130.671C100.896 129.922 102.068 129.548 103.492 129.548C104.99 129.548 106.202 129.934 107.13 130.708C108.066 131.481 108.534 132.469 108.534 133.674H106.263C106.263 133.055 105.999 132.522 105.47 132.075C104.949 131.627 104.29 131.403 103.492 131.403C102.67 131.403 102.027 131.582 101.563 131.94C101.1 132.299 100.868 132.766 100.868 133.344C100.868 133.889 101.083 134.3 101.515 134.577C101.946 134.854 102.723 135.118 103.846 135.371C104.977 135.623 105.893 135.924 106.593 136.274C107.293 136.624 107.809 137.047 108.143 137.543C108.485 138.032 108.656 138.63 108.656 139.338C108.656 140.518 108.184 141.466 107.24 142.182C106.296 142.89 105.071 143.244 103.565 143.244C102.507 143.244 101.572 143.057 100.758 142.683C99.944 142.308 99.3052 141.787 98.8413 141.12C98.3856 140.445 98.1577 139.716 98.1577 138.935H100.416C100.457 139.692 100.758 140.294 101.319 140.742C101.889 141.181 102.638 141.401 103.565 141.401C104.42 141.401 105.104 141.23 105.616 140.888C106.137 140.538 106.397 140.074 106.397 139.497ZM117.25 136.286C117.25 134.26 117.73 132.632 118.69 131.403C119.65 130.166 120.908 129.548 122.462 129.548C124.008 129.548 125.233 130.077 126.136 131.135V124.25H128.395V143H126.319L126.209 141.584C125.306 142.691 124.049 143.244 122.438 143.244C120.908 143.244 119.658 142.618 118.69 141.364C117.73 140.111 117.25 138.475 117.25 136.457V136.286ZM119.508 136.542C119.508 138.04 119.817 139.212 120.436 140.058C121.054 140.904 121.909 141.328 122.999 141.328C124.431 141.328 125.477 140.685 126.136 139.399V133.332C125.461 132.087 124.423 131.464 123.023 131.464C121.917 131.464 121.054 131.892 120.436 132.746C119.817 133.601 119.508 134.866 119.508 136.542ZM140.064 143C139.934 142.74 139.828 142.276 139.747 141.608C138.697 142.699 137.444 143.244 135.987 143.244C134.685 143.244 133.615 142.878 132.777 142.146C131.947 141.405 131.532 140.469 131.532 139.338C131.532 137.963 132.053 136.896 133.094 136.14C134.144 135.375 135.617 134.992 137.513 134.992H139.71V133.955C139.71 133.165 139.474 132.539 139.002 132.075C138.53 131.603 137.835 131.367 136.915 131.367C136.109 131.367 135.434 131.57 134.889 131.977C134.343 132.384 134.071 132.876 134.071 133.454H131.8C131.8 132.795 132.032 132.16 132.496 131.55C132.968 130.931 133.603 130.443 134.4 130.085C135.206 129.727 136.089 129.548 137.049 129.548C138.571 129.548 139.763 129.93 140.626 130.695C141.489 131.452 141.936 132.498 141.969 133.833V139.912C141.969 141.124 142.123 142.089 142.433 142.805V143H140.064ZM136.317 141.279C137.025 141.279 137.696 141.096 138.331 140.729C138.966 140.363 139.426 139.887 139.71 139.301V136.591H137.94C135.174 136.591 133.79 137.401 133.79 139.021C133.79 139.729 134.026 140.282 134.498 140.681C134.97 141.079 135.576 141.279 136.317 141.279ZM144.959 136.286C144.959 134.26 145.44 132.632 146.4 131.403C147.36 130.166 148.618 129.548 150.172 129.548C151.718 129.548 152.943 130.077 153.846 131.135V124.25H156.104V143H154.029L153.919 141.584C153.016 142.691 151.759 143.244 150.147 143.244C148.618 143.244 147.368 142.618 146.4 141.364C145.44 140.111 144.959 138.475 144.959 136.457V136.286ZM147.218 136.542C147.218 138.04 147.527 139.212 148.146 140.058C148.764 140.904 149.618 141.328 150.709 141.328C152.141 141.328 153.187 140.685 153.846 139.399V133.332C153.171 132.087 152.133 131.464 150.733 131.464C149.627 131.464 148.764 131.892 148.146 132.746C147.527 133.601 147.218 134.866 147.218 136.542ZM159.022 136.274C159.022 134.98 159.274 133.816 159.779 132.783C160.292 131.749 161 130.952 161.903 130.39C162.814 129.829 163.852 129.548 165.016 129.548C166.814 129.548 168.267 130.17 169.374 131.416C170.488 132.661 171.046 134.317 171.046 136.384V136.542C171.046 137.828 170.798 138.984 170.301 140.009C169.813 141.027 169.109 141.82 168.189 142.39C167.278 142.959 166.228 143.244 165.04 143.244C163.25 143.244 161.797 142.622 160.682 141.376C159.575 140.131 159.022 138.483 159.022 136.433V136.274ZM161.292 136.542C161.292 138.007 161.63 139.183 162.306 140.07C162.989 140.957 163.901 141.401 165.04 141.401C166.188 141.401 167.099 140.953 167.774 140.058C168.45 139.155 168.788 137.893 168.788 136.274C168.788 134.825 168.442 133.653 167.75 132.758C167.066 131.855 166.155 131.403 165.016 131.403C163.901 131.403 163.001 131.847 162.318 132.734C161.634 133.621 161.292 134.89 161.292 136.542ZM181.568 139.497C181.568 138.886 181.336 138.414 180.873 138.081C180.417 137.739 179.615 137.446 178.468 137.202C177.328 136.958 176.421 136.665 175.746 136.323C175.078 135.981 174.582 135.574 174.256 135.102C173.939 134.63 173.78 134.069 173.78 133.417C173.78 132.335 174.236 131.42 175.147 130.671C176.067 129.922 177.239 129.548 178.663 129.548C180.16 129.548 181.373 129.934 182.301 130.708C183.237 131.481 183.705 132.469 183.705 133.674H181.434C181.434 133.055 181.17 132.522 180.641 132.075C180.12 131.627 179.461 131.403 178.663 131.403C177.841 131.403 177.198 131.582 176.734 131.94C176.271 132.299 176.039 132.766 176.039 133.344C176.039 133.889 176.254 134.3 176.686 134.577C177.117 134.854 177.894 135.118 179.017 135.371C180.148 135.623 181.064 135.924 181.764 136.274C182.464 136.624 182.98 137.047 183.314 137.543C183.656 138.032 183.827 138.63 183.827 139.338C183.827 140.518 183.355 141.466 182.411 142.182C181.467 142.89 180.242 143.244 178.736 143.244C177.678 143.244 176.743 143.057 175.929 142.683C175.115 142.308 174.476 141.787 174.012 141.12C173.556 140.445 173.329 139.716 173.329 138.935H175.587C175.628 139.692 175.929 140.294 176.49 140.742C177.06 141.181 177.809 141.401 178.736 141.401C179.591 141.401 180.274 141.23 180.787 140.888C181.308 140.538 181.568 140.074 181.568 139.497ZM192.42 136.286C192.42 134.26 192.901 132.632 193.861 131.403C194.821 130.166 196.078 129.548 197.633 129.548C199.179 129.548 200.404 130.077 201.307 131.135V124.25H203.565V143H201.49L201.38 141.584C200.477 142.691 199.22 143.244 197.608 143.244C196.078 143.244 194.829 142.618 193.861 141.364C192.901 140.111 192.42 138.475 192.42 136.457V136.286ZM194.679 136.542C194.679 138.04 194.988 139.212 195.606 140.058C196.225 140.904 197.079 141.328 198.17 141.328C199.602 141.328 200.648 140.685 201.307 139.399V133.332C200.632 132.087 199.594 131.464 198.194 131.464C197.088 131.464 196.225 131.892 195.606 132.746C194.988 133.601 194.679 134.866 194.679 136.542ZM215.235 143C215.105 142.74 214.999 142.276 214.918 141.608C213.868 142.699 212.615 143.244 211.158 143.244C209.856 143.244 208.786 142.878 207.948 142.146C207.118 141.405 206.703 140.469 206.703 139.338C206.703 137.963 207.223 136.896 208.265 136.14C209.315 135.375 210.788 134.992 212.684 134.992H214.881V133.955C214.881 133.165 214.645 132.539 214.173 132.075C213.701 131.603 213.006 131.367 212.086 131.367C211.28 131.367 210.605 131.57 210.06 131.977C209.514 132.384 209.242 132.876 209.242 133.454H206.971C206.971 132.795 207.203 132.16 207.667 131.55C208.139 130.931 208.774 130.443 209.571 130.085C210.377 129.727 211.26 129.548 212.22 129.548C213.742 129.548 214.934 129.93 215.797 130.695C216.66 131.452 217.107 132.498 217.14 133.833V139.912C217.14 141.124 217.294 142.089 217.604 142.805V143H215.235ZM211.488 141.279C212.196 141.279 212.867 141.096 213.502 140.729C214.137 140.363 214.597 139.887 214.881 139.301V136.591H213.111C210.344 136.591 208.961 137.401 208.961 139.021C208.961 139.729 209.197 140.282 209.669 140.681C210.141 141.079 210.747 141.279 211.488 141.279ZM234.571 139.497C234.571 138.886 234.339 138.414 233.875 138.081C233.42 137.739 232.618 137.446 231.471 137.202C230.331 136.958 229.424 136.665 228.749 136.323C228.081 135.981 227.585 135.574 227.259 135.102C226.942 134.63 226.783 134.069 226.783 133.417C226.783 132.335 227.239 131.42 228.15 130.671C229.07 129.922 230.242 129.548 231.666 129.548C233.163 129.548 234.376 129.934 235.304 130.708C236.24 131.481 236.708 132.469 236.708 133.674H234.437C234.437 133.055 234.173 132.522 233.644 132.075C233.123 131.627 232.464 131.403 231.666 131.403C230.844 131.403 230.201 131.582 229.737 131.94C229.273 132.299 229.042 132.766 229.042 133.344C229.042 133.889 229.257 134.3 229.688 134.577C230.12 134.854 230.897 135.118 232.02 135.371C233.151 135.623 234.067 135.924 234.767 136.274C235.466 136.624 235.983 137.047 236.317 137.543C236.659 138.032 236.83 138.63 236.83 139.338C236.83 140.518 236.358 141.466 235.414 142.182C234.47 142.89 233.245 143.244 231.739 143.244C230.681 143.244 229.745 143.057 228.932 142.683C228.118 142.308 227.479 141.787 227.015 141.12C226.559 140.445 226.332 139.716 226.332 138.935H228.59C228.631 139.692 228.932 140.294 229.493 140.742C230.063 141.181 230.812 141.401 231.739 141.401C232.594 141.401 233.277 141.23 233.79 140.888C234.311 140.538 234.571 140.074 234.571 139.497ZM247.926 141.694C247.047 142.727 245.757 143.244 244.056 143.244C242.648 143.244 241.574 142.837 240.833 142.023C240.101 141.201 239.731 139.989 239.723 138.386V129.792H241.981V138.325C241.981 140.327 242.795 141.328 244.422 141.328C246.148 141.328 247.295 140.685 247.865 139.399V129.792H250.123V143H247.975L247.926 141.694ZM261.72 143C261.59 142.74 261.484 142.276 261.402 141.608C260.353 142.699 259.099 143.244 257.643 143.244C256.34 143.244 255.27 142.878 254.432 142.146C253.602 141.405 253.187 140.469 253.187 139.338C253.187 137.963 253.708 136.896 254.75 136.14C255.799 135.375 257.272 134.992 259.168 134.992H261.366V133.955C261.366 133.165 261.13 132.539 260.658 132.075C260.186 131.603 259.49 131.367 258.57 131.367C257.765 131.367 257.089 131.57 256.544 131.977C255.999 132.384 255.726 132.876 255.726 133.454H253.456C253.456 132.795 253.688 132.16 254.151 131.55C254.623 130.931 255.258 130.443 256.056 130.085C256.861 129.727 257.744 129.548 258.705 129.548C260.226 129.548 261.419 129.93 262.281 130.695C263.144 131.452 263.591 132.498 263.624 133.833V139.912C263.624 141.124 263.779 142.089 264.088 142.805V143H261.72ZM257.972 141.279C258.68 141.279 259.352 141.096 259.986 140.729C260.621 140.363 261.081 139.887 261.366 139.301V136.591H259.596C256.829 136.591 255.445 137.401 255.445 139.021C255.445 139.729 255.681 140.282 256.153 140.681C256.625 141.079 257.232 141.279 257.972 141.279ZM278.846 143.244C277.056 143.244 275.599 142.658 274.476 141.486C273.353 140.306 272.792 138.732 272.792 136.762V136.347C272.792 135.037 273.04 133.869 273.536 132.844C274.041 131.81 274.741 131.005 275.636 130.427C276.539 129.841 277.516 129.548 278.565 129.548C280.283 129.548 281.617 130.113 282.569 131.245C283.521 132.376 283.998 133.995 283.998 136.103V137.043H275.05C275.082 138.345 275.461 139.399 276.185 140.205C276.917 141.002 277.845 141.401 278.968 141.401C279.766 141.401 280.441 141.238 280.995 140.913C281.548 140.587 282.032 140.156 282.447 139.619L283.827 140.693C282.72 142.394 281.06 143.244 278.846 143.244ZM278.565 131.403C277.654 131.403 276.889 131.737 276.271 132.404C275.652 133.063 275.27 133.991 275.123 135.188H281.739V135.017C281.674 133.869 281.365 132.982 280.812 132.355C280.258 131.721 279.509 131.403 278.565 131.403ZM288.746 129.792L288.807 131.257C289.776 130.118 291.082 129.548 292.726 129.548C294.573 129.548 295.83 130.256 296.498 131.672C296.937 131.037 297.507 130.524 298.207 130.134C298.915 129.743 299.749 129.548 300.709 129.548C303.606 129.548 305.079 131.082 305.128 134.15V143H302.87V134.284C302.87 133.34 302.654 132.636 302.223 132.172C301.791 131.7 301.067 131.464 300.05 131.464C299.212 131.464 298.516 131.717 297.962 132.221C297.409 132.718 297.088 133.389 296.998 134.235V143H294.728V134.345C294.728 132.425 293.788 131.464 291.908 131.464C290.427 131.464 289.413 132.095 288.868 133.356V143H286.61V129.792H288.746ZM319.703 136.542C319.703 138.553 319.243 140.172 318.324 141.401C317.404 142.63 316.159 143.244 314.588 143.244C312.985 143.244 311.724 142.736 310.804 141.718V148.078H308.546V129.792H310.609L310.719 131.257C311.638 130.118 312.916 129.548 314.552 129.548C316.139 129.548 317.392 130.146 318.312 131.342C319.239 132.539 319.703 134.203 319.703 136.335V136.542ZM317.445 136.286C317.445 134.797 317.127 133.621 316.493 132.758C315.858 131.896 314.987 131.464 313.88 131.464C312.513 131.464 311.488 132.071 310.804 133.283V139.594C311.48 140.799 312.513 141.401 313.905 141.401C314.987 141.401 315.846 140.974 316.48 140.119C317.123 139.257 317.445 137.979 317.445 136.286ZM328.968 131.818C328.626 131.761 328.256 131.733 327.857 131.733C326.376 131.733 325.371 132.364 324.842 133.625V143H322.584V129.792H324.781L324.818 131.318C325.558 130.138 326.608 129.548 327.967 129.548C328.407 129.548 328.74 129.605 328.968 129.719V131.818ZM336.292 143.244C334.502 143.244 333.045 142.658 331.922 141.486C330.799 140.306 330.238 138.732 330.238 136.762V136.347C330.238 135.037 330.486 133.869 330.982 132.844C331.487 131.81 332.187 131.005 333.082 130.427C333.985 129.841 334.962 129.548 336.012 129.548C337.729 129.548 339.063 130.113 340.016 131.245C340.968 132.376 341.444 133.995 341.444 136.103V137.043H332.496C332.529 138.345 332.907 139.399 333.631 140.205C334.364 141.002 335.292 141.401 336.415 141.401C337.212 141.401 337.888 141.238 338.441 140.913C338.994 140.587 339.479 140.156 339.894 139.619L341.273 140.693C340.166 142.394 338.506 143.244 336.292 143.244ZM336.012 131.403C335.1 131.403 334.335 131.737 333.717 132.404C333.098 133.063 332.716 133.991 332.569 135.188H339.186V135.017C339.12 133.869 338.811 132.982 338.258 132.355C337.704 131.721 336.956 131.403 336.012 131.403ZM351.759 139.497C351.759 138.886 351.527 138.414 351.063 138.081C350.607 137.739 349.806 137.446 348.658 137.202C347.519 136.958 346.611 136.665 345.936 136.323C345.269 135.981 344.772 135.574 344.447 135.102C344.129 134.63 343.971 134.069 343.971 133.417C343.971 132.335 344.426 131.42 345.338 130.671C346.257 129.922 347.429 129.548 348.854 129.548C350.351 129.548 351.563 129.934 352.491 130.708C353.427 131.481 353.895 132.469 353.895 133.674H351.625C351.625 133.055 351.36 132.522 350.831 132.075C350.31 131.627 349.651 131.403 348.854 131.403C348.032 131.403 347.389 131.582 346.925 131.94C346.461 132.299 346.229 132.766 346.229 133.344C346.229 133.889 346.445 134.3 346.876 134.577C347.307 134.854 348.084 135.118 349.208 135.371C350.339 135.623 351.254 135.924 351.954 136.274C352.654 136.624 353.171 137.047 353.504 137.543C353.846 138.032 354.017 138.63 354.017 139.338C354.017 140.518 353.545 141.466 352.601 142.182C351.657 142.89 350.432 143.244 348.927 143.244C347.869 143.244 346.933 143.057 346.119 142.683C345.305 142.308 344.667 141.787 344.203 141.12C343.747 140.445 343.519 139.716 343.519 138.935H345.777C345.818 139.692 346.119 140.294 346.681 140.742C347.25 141.181 347.999 141.401 348.927 141.401C349.781 141.401 350.465 141.23 350.978 140.888C351.498 140.538 351.759 140.074 351.759 139.497ZM365.113 143C364.983 142.74 364.877 142.276 364.796 141.608C363.746 142.699 362.493 143.244 361.036 143.244C359.734 143.244 358.664 142.878 357.826 142.146C356.996 141.405 356.581 140.469 356.581 139.338C356.581 137.963 357.101 136.896 358.143 136.14C359.193 135.375 360.666 134.992 362.562 134.992H364.759V133.955C364.759 133.165 364.523 132.539 364.051 132.075C363.579 131.603 362.883 131.367 361.964 131.367C361.158 131.367 360.483 131.57 359.938 131.977C359.392 132.384 359.12 132.876 359.12 133.454H356.849C356.849 132.795 357.081 132.16 357.545 131.55C358.017 130.931 358.652 130.443 359.449 130.085C360.255 129.727 361.138 129.548 362.098 129.548C363.62 129.548 364.812 129.93 365.675 130.695C366.537 131.452 366.985 132.498 367.018 133.833V139.912C367.018 141.124 367.172 142.089 367.481 142.805V143H365.113ZM361.366 141.279C362.074 141.279 362.745 141.096 363.38 140.729C364.015 140.363 364.474 139.887 364.759 139.301V136.591H362.989C360.222 136.591 358.839 137.401 358.839 139.021C358.839 139.729 359.075 140.282 359.547 140.681C360.019 141.079 360.625 141.279 361.366 141.279ZM382.24 143.244C380.449 143.244 378.993 142.658 377.87 141.486C376.747 140.306 376.185 138.732 376.185 136.762V136.347C376.185 135.037 376.433 133.869 376.93 132.844C377.434 131.81 378.134 131.005 379.029 130.427C379.933 129.841 380.909 129.548 381.959 129.548C383.676 129.548 385.011 130.113 385.963 131.245C386.915 132.376 387.391 133.995 387.391 136.103V137.043H378.443C378.476 138.345 378.854 139.399 379.579 140.205C380.311 141.002 381.239 141.401 382.362 141.401C383.159 141.401 383.835 141.238 384.388 140.913C384.942 140.587 385.426 140.156 385.841 139.619L387.22 140.693C386.113 142.394 384.453 143.244 382.24 143.244ZM381.959 131.403C381.048 131.403 380.283 131.737 379.664 132.404C379.046 133.063 378.663 133.991 378.517 135.188H385.133V135.017C385.068 133.869 384.758 132.982 384.205 132.355C383.652 131.721 382.903 131.403 381.959 131.403ZM6.00684 170.401C6.8125 170.401 7.51644 170.157 8.11865 169.668C8.72087 169.18 9.05452 168.57 9.11963 167.837H11.2559C11.2152 168.594 10.9548 169.314 10.4746 169.998C9.99447 170.682 9.35156 171.227 8.5459 171.634C7.74837 172.041 6.90202 172.244 6.00684 172.244C4.20833 172.244 2.77604 171.646 1.70996 170.45C0.652018 169.245 0.123047 167.601 0.123047 165.518V165.14C0.123047 163.854 0.359049 162.71 0.831055 161.709C1.30306 160.708 1.97852 159.931 2.85742 159.378C3.74447 158.825 4.7902 158.548 5.99463 158.548C7.47575 158.548 8.70459 158.991 9.68115 159.878C10.6659 160.765 11.1908 161.917 11.2559 163.333H9.11963C9.05452 162.479 8.729 161.779 8.14307 161.233C7.56527 160.68 6.84912 160.403 5.99463 160.403C4.84717 160.403 3.95605 160.818 3.32129 161.648C2.69466 162.47 2.38135 163.663 2.38135 165.225V165.652C2.38135 167.174 2.69466 168.346 3.32129 169.168C3.94792 169.99 4.8431 170.401 6.00684 170.401ZM16.2485 172H13.9902V153.25H16.2485V172ZM22.3276 172H20.0693V158.792H22.3276V172ZM19.8862 155.289C19.8862 154.922 19.9961 154.613 20.2158 154.361C20.4437 154.109 20.7773 153.982 21.2168 153.982C21.6562 153.982 21.9899 154.109 22.2178 154.361C22.4456 154.613 22.5596 154.922 22.5596 155.289C22.5596 155.655 22.4456 155.96 22.2178 156.204C21.9899 156.448 21.6562 156.57 21.2168 156.57C20.7773 156.57 20.4437 156.448 20.2158 156.204C19.9961 155.96 19.8862 155.655 19.8862 155.289ZM31.4341 172.244C29.6437 172.244 28.187 171.658 27.064 170.486C25.9409 169.306 25.3794 167.732 25.3794 165.762V165.347C25.3794 164.037 25.6276 162.869 26.124 161.844C26.6286 160.81 27.3285 160.005 28.2236 159.427C29.127 158.841 30.1035 158.548 31.1533 158.548C32.8704 158.548 34.2051 159.113 35.1572 160.245C36.1094 161.376 36.5854 162.995 36.5854 165.103V166.043H27.6377C27.6702 167.345 28.0487 168.399 28.7729 169.205C29.5054 170.002 30.4331 170.401 31.5562 170.401C32.3537 170.401 33.0291 170.238 33.5825 169.913C34.1359 169.587 34.6201 169.156 35.0352 168.619L36.4146 169.693C35.3078 171.394 33.6476 172.244 31.4341 172.244ZM31.1533 160.403C30.2419 160.403 29.4769 160.737 28.8584 161.404C28.2399 162.063 27.8574 162.991 27.7109 164.188H34.3271V164.017C34.262 162.869 33.9528 161.982 33.3994 161.355C32.846 160.721 32.0973 160.403 31.1533 160.403ZM41.3462 158.792L41.4194 160.452C42.4285 159.183 43.7469 158.548 45.3745 158.548C48.1659 158.548 49.5737 160.123 49.5981 163.272V172H47.3398V163.26C47.3317 162.308 47.112 161.604 46.6807 161.148C46.2575 160.692 45.5942 160.464 44.6909 160.464C43.9585 160.464 43.3156 160.66 42.7622 161.05C42.2088 161.441 41.7775 161.954 41.4683 162.588V172H39.21V158.792H41.3462ZM56.0679 155.594V158.792H58.5337V160.538H56.0679V168.729C56.0679 169.257 56.1777 169.656 56.3975 169.925C56.6172 170.185 56.9915 170.315 57.5205 170.315C57.7809 170.315 58.139 170.267 58.5947 170.169V172C58.0007 172.163 57.4229 172.244 56.8613 172.244C55.8522 172.244 55.0913 171.939 54.5786 171.329C54.0659 170.718 53.8096 169.852 53.8096 168.729V160.538H51.4048V158.792H53.8096V155.594H56.0679ZM66.6636 172.244C64.8732 172.244 63.4165 171.658 62.2935 170.486C61.1704 169.306 60.6089 167.732 60.6089 165.762V165.347C60.6089 164.037 60.8571 162.869 61.3535 161.844C61.8581 160.81 62.5579 160.005 63.4531 159.427C64.3564 158.841 65.333 158.548 66.3828 158.548C68.0999 158.548 69.4346 159.113 70.3867 160.245C71.3389 161.376 71.8149 162.995 71.8149 165.103V166.043H62.8672C62.8997 167.345 63.2782 168.399 64.0024 169.205C64.7349 170.002 65.6626 170.401 66.7856 170.401C67.5832 170.401 68.2586 170.238 68.812 169.913C69.3654 169.587 69.8496 169.156 70.2646 168.619L71.644 169.693C70.5373 171.394 68.8771 172.244 66.6636 172.244ZM66.3828 160.403C65.4714 160.403 64.7064 160.737 64.0879 161.404C63.4694 162.063 63.0869 162.991 62.9404 164.188H69.5566V164.017C69.4915 162.869 69.1823 161.982 68.6289 161.355C68.0755 160.721 67.3268 160.403 66.3828 160.403ZM82.1299 168.497C82.1299 167.886 81.8979 167.414 81.4341 167.081C80.9784 166.739 80.1768 166.446 79.0293 166.202C77.89 165.958 76.9826 165.665 76.3071 165.323C75.6398 164.981 75.1434 164.574 74.8179 164.102C74.5005 163.63 74.3418 163.069 74.3418 162.417C74.3418 161.335 74.7975 160.42 75.709 159.671C76.6286 158.922 77.8005 158.548 79.2246 158.548C80.722 158.548 81.9346 158.934 82.8623 159.708C83.7982 160.481 84.2661 161.469 84.2661 162.674H81.9956C81.9956 162.055 81.7311 161.522 81.2021 161.075C80.6813 160.627 80.0221 160.403 79.2246 160.403C78.4027 160.403 77.7598 160.582 77.2959 160.94C76.832 161.299 76.6001 161.766 76.6001 162.344C76.6001 162.889 76.8158 163.3 77.2471 163.577C77.6784 163.854 78.4556 164.118 79.5786 164.371C80.7098 164.623 81.6253 164.924 82.3252 165.274C83.0251 165.624 83.5418 166.047 83.8755 166.543C84.2173 167.032 84.3882 167.63 84.3882 168.338C84.3882 169.518 83.9162 170.466 82.9722 171.182C82.0282 171.89 80.8034 172.244 79.2979 172.244C78.2399 172.244 77.304 172.057 76.4902 171.683C75.6764 171.308 75.0376 170.787 74.5737 170.12C74.118 169.445 73.8901 168.716 73.8901 167.935H76.1484C76.1891 168.692 76.4902 169.294 77.0518 169.742C77.6214 170.181 78.3701 170.401 79.2979 170.401C80.1523 170.401 80.8359 170.23 81.3486 169.888C81.8695 169.538 82.1299 169.074 82.1299 168.497ZM98.8291 170.401C99.6348 170.401 100.339 170.157 100.941 169.668C101.543 169.18 101.877 168.57 101.942 167.837H104.078C104.037 168.594 103.777 169.314 103.297 169.998C102.817 170.682 102.174 171.227 101.368 171.634C100.571 172.041 99.7243 172.244 98.8291 172.244C97.0306 172.244 95.5983 171.646 94.5322 170.45C93.4743 169.245 92.9453 167.601 92.9453 165.518V165.14C92.9453 163.854 93.1813 162.71 93.6533 161.709C94.1253 160.708 94.8008 159.931 95.6797 159.378C96.5667 158.825 97.6125 158.548 98.8169 158.548C100.298 158.548 101.527 158.991 102.503 159.878C103.488 160.765 104.013 161.917 104.078 163.333H101.942C101.877 162.479 101.551 161.779 100.965 161.233C100.388 160.68 99.6714 160.403 98.8169 160.403C97.6694 160.403 96.7783 160.818 96.1436 161.648C95.5169 162.47 95.2036 163.663 95.2036 165.225V165.652C95.2036 167.174 95.5169 168.346 96.1436 169.168C96.7702 169.99 97.6654 170.401 98.8291 170.401ZM106.019 165.274C106.019 163.98 106.271 162.816 106.776 161.783C107.289 160.749 107.997 159.952 108.9 159.39C109.811 158.829 110.849 158.548 112.013 158.548C113.811 158.548 115.264 159.17 116.371 160.416C117.486 161.661 118.043 163.317 118.043 165.384V165.542C118.043 166.828 117.795 167.984 117.298 169.009C116.81 170.027 116.106 170.82 115.187 171.39C114.275 171.959 113.225 172.244 112.037 172.244C110.247 172.244 108.794 171.622 107.679 170.376C106.572 169.131 106.019 167.483 106.019 165.433V165.274ZM108.29 165.542C108.29 167.007 108.627 168.183 109.303 169.07C109.986 169.957 110.898 170.401 112.037 170.401C113.185 170.401 114.096 169.953 114.771 169.058C115.447 168.155 115.785 166.893 115.785 165.274C115.785 163.825 115.439 162.653 114.747 161.758C114.063 160.855 113.152 160.403 112.013 160.403C110.898 160.403 109.999 160.847 109.315 161.734C108.631 162.621 108.29 163.89 108.29 165.542ZM122.999 158.792L123.06 160.257C124.028 159.118 125.335 158.548 126.979 158.548C128.826 158.548 130.083 159.256 130.75 160.672C131.19 160.037 131.76 159.524 132.459 159.134C133.167 158.743 134.002 158.548 134.962 158.548C137.859 158.548 139.332 160.082 139.381 163.15V172H137.123V163.284C137.123 162.34 136.907 161.636 136.476 161.172C136.044 160.7 135.32 160.464 134.303 160.464C133.465 160.464 132.769 160.717 132.215 161.221C131.662 161.718 131.34 162.389 131.251 163.235V172H128.98V163.345C128.98 161.425 128.041 160.464 126.161 160.464C124.68 160.464 123.666 161.095 123.121 162.356V172H120.863V158.792H122.999ZM157.154 172C157.024 171.74 156.918 171.276 156.837 170.608C155.787 171.699 154.534 172.244 153.077 172.244C151.775 172.244 150.705 171.878 149.867 171.146C149.037 170.405 148.622 169.469 148.622 168.338C148.622 166.963 149.142 165.896 150.184 165.14C151.234 164.375 152.707 163.992 154.603 163.992H156.8V162.955C156.8 162.165 156.564 161.539 156.092 161.075C155.62 160.603 154.924 160.367 154.005 160.367C153.199 160.367 152.524 160.57 151.979 160.977C151.433 161.384 151.161 161.876 151.161 162.454H148.89C148.89 161.795 149.122 161.16 149.586 160.55C150.058 159.931 150.693 159.443 151.49 159.085C152.296 158.727 153.179 158.548 154.139 158.548C155.661 158.548 156.853 158.93 157.716 159.695C158.578 160.452 159.026 161.498 159.059 162.833V168.912C159.059 170.124 159.213 171.089 159.522 171.805V172H157.154ZM153.407 170.279C154.115 170.279 154.786 170.096 155.421 169.729C156.056 169.363 156.515 168.887 156.8 168.301V165.591H155.03C152.263 165.591 150.88 166.401 150.88 168.021C150.88 168.729 151.116 169.282 151.588 169.681C152.06 170.079 152.666 170.279 153.407 170.279ZM170.924 158.792L170.985 160.257C171.953 159.118 173.259 158.548 174.903 158.548C176.751 158.548 178.008 159.256 178.675 160.672C179.115 160.037 179.684 159.524 180.384 159.134C181.092 158.743 181.926 158.548 182.887 158.548C185.784 158.548 187.257 160.082 187.306 163.15V172H185.047V163.284C185.047 162.34 184.832 161.636 184.4 161.172C183.969 160.7 183.245 160.464 182.228 160.464C181.389 160.464 180.694 160.717 180.14 161.221C179.587 161.718 179.265 162.389 179.176 163.235V172H176.905V163.345C176.905 161.425 175.965 160.464 174.085 160.464C172.604 160.464 171.591 161.095 171.046 162.356V172H168.788V158.792H170.924ZM196.205 172.244C194.414 172.244 192.958 171.658 191.834 170.486C190.711 169.306 190.15 167.732 190.15 165.762V165.347C190.15 164.037 190.398 162.869 190.895 161.844C191.399 160.81 192.099 160.005 192.994 159.427C193.897 158.841 194.874 158.548 195.924 158.548C197.641 158.548 198.976 159.113 199.928 160.245C200.88 161.376 201.356 162.995 201.356 165.103V166.043H192.408C192.441 167.345 192.819 168.399 193.543 169.205C194.276 170.002 195.204 170.401 196.327 170.401C197.124 170.401 197.8 170.238 198.353 169.913C198.906 169.587 199.391 169.156 199.806 168.619L201.185 169.693C200.078 171.394 198.418 172.244 196.205 172.244ZM195.924 160.403C195.012 160.403 194.247 160.737 193.629 161.404C193.01 162.063 192.628 162.991 192.481 164.188H199.098V164.017C199.033 162.869 198.723 161.982 198.17 161.355C197.617 160.721 196.868 160.403 195.924 160.403ZM206.434 172H204.176V153.25H206.434V172ZM212.318 160.391C213.319 159.162 214.621 158.548 216.224 158.548C219.015 158.548 220.423 160.123 220.448 163.272V172H218.189V163.26C218.181 162.308 217.962 161.604 217.53 161.148C217.107 160.692 216.444 160.464 215.541 160.464C214.808 160.464 214.165 160.66 213.612 161.05C213.058 161.441 212.627 161.954 212.318 162.588V172H210.06V153.25H212.318V160.391ZM223.231 165.274C223.231 163.98 223.483 162.816 223.988 161.783C224.5 160.749 225.208 159.952 226.112 159.39C227.023 158.829 228.061 158.548 229.225 158.548C231.023 158.548 232.476 159.17 233.583 160.416C234.697 161.661 235.255 163.317 235.255 165.384V165.542C235.255 166.828 235.007 167.984 234.51 169.009C234.022 170.027 233.318 170.82 232.398 171.39C231.487 171.959 230.437 172.244 229.249 172.244C227.459 172.244 226.006 171.622 224.891 170.376C223.784 169.131 223.231 167.483 223.231 165.433V165.274ZM225.501 165.542C225.501 167.007 225.839 168.183 226.515 169.07C227.198 169.957 228.11 170.401 229.249 170.401C230.396 170.401 231.308 169.953 231.983 169.058C232.659 168.155 232.997 166.893 232.997 165.274C232.997 163.825 232.651 162.653 231.959 161.758C231.275 160.855 230.364 160.403 229.225 160.403C228.11 160.403 227.21 160.847 226.527 161.734C225.843 162.621 225.501 163.89 225.501 165.542ZM244.471 160.818C244.129 160.761 243.759 160.733 243.36 160.733C241.879 160.733 240.874 161.364 240.345 162.625V172H238.087V158.792H240.284L240.321 160.318C241.061 159.138 242.111 158.548 243.47 158.548C243.91 158.548 244.243 158.605 244.471 158.719V160.818ZM255.824 155.594V158.792H258.29V160.538H255.824V168.729C255.824 169.257 255.934 169.656 256.153 169.925C256.373 170.185 256.747 170.315 257.276 170.315C257.537 170.315 257.895 170.267 258.351 170.169V172C257.757 172.163 257.179 172.244 256.617 172.244C255.608 172.244 254.847 171.939 254.334 171.329C253.822 170.718 253.565 169.852 253.565 168.729V160.538H251.161V158.792H253.565V155.594H255.824ZM266.419 172.244C264.629 172.244 263.172 171.658 262.049 170.486C260.926 169.306 260.365 167.732 260.365 165.762V165.347C260.365 164.037 260.613 162.869 261.109 161.844C261.614 160.81 262.314 160.005 263.209 159.427C264.112 158.841 265.089 158.548 266.139 158.548C267.856 158.548 269.19 159.113 270.143 160.245C271.095 161.376 271.571 162.995 271.571 165.103V166.043H262.623C262.656 167.345 263.034 168.399 263.758 169.205C264.491 170.002 265.418 170.401 266.542 170.401C267.339 170.401 268.014 170.238 268.568 169.913C269.121 169.587 269.605 169.156 270.021 168.619L271.4 169.693C270.293 171.394 268.633 172.244 266.419 172.244ZM266.139 160.403C265.227 160.403 264.462 160.737 263.844 161.404C263.225 162.063 262.843 162.991 262.696 164.188H269.312V164.017C269.247 162.869 268.938 161.982 268.385 161.355C267.831 160.721 267.083 160.403 266.139 160.403ZM279.493 170.401C280.299 170.401 281.003 170.157 281.605 169.668C282.207 169.18 282.541 168.57 282.606 167.837H284.742C284.701 168.594 284.441 169.314 283.961 169.998C283.481 170.682 282.838 171.227 282.032 171.634C281.235 172.041 280.388 172.244 279.493 172.244C277.695 172.244 276.262 171.646 275.196 170.45C274.138 169.245 273.609 167.601 273.609 165.518V165.14C273.609 163.854 273.845 162.71 274.317 161.709C274.789 160.708 275.465 159.931 276.344 159.378C277.231 158.825 278.277 158.548 279.481 158.548C280.962 158.548 282.191 158.991 283.167 159.878C284.152 160.765 284.677 161.917 284.742 163.333H282.606C282.541 162.479 282.215 161.779 281.629 161.233C281.052 160.68 280.335 160.403 279.481 160.403C278.333 160.403 277.442 160.818 276.808 161.648C276.181 162.47 275.868 163.663 275.868 165.225V165.652C275.868 167.174 276.181 168.346 276.808 169.168C277.434 169.99 278.329 170.401 279.493 170.401ZM289.417 158.792L289.491 160.452C290.5 159.183 291.818 158.548 293.446 158.548C296.237 158.548 297.645 160.123 297.669 163.272V172H295.411V163.26C295.403 162.308 295.183 161.604 294.752 161.148C294.329 160.692 293.666 160.464 292.762 160.464C292.03 160.464 291.387 160.66 290.833 161.05C290.28 161.441 289.849 161.954 289.54 162.588V172H287.281V158.792H289.417ZM300.477 165.274C300.477 163.98 300.729 162.816 301.234 161.783C301.747 160.749 302.455 159.952 303.358 159.39C304.269 158.829 305.307 158.548 306.471 158.548C308.269 158.548 309.722 159.17 310.829 160.416C311.944 161.661 312.501 163.317 312.501 165.384V165.542C312.501 166.828 312.253 167.984 311.756 169.009C311.268 170.027 310.564 170.82 309.645 171.39C308.733 171.959 307.683 172.244 306.495 172.244C304.705 172.244 303.252 171.622 302.137 170.376C301.03 169.131 300.477 167.483 300.477 165.433V165.274ZM302.748 165.542C302.748 167.007 303.085 168.183 303.761 169.07C304.444 169.957 305.356 170.401 306.495 170.401C307.643 170.401 308.554 169.953 309.229 169.058C309.905 168.155 310.243 166.893 310.243 165.274C310.243 163.825 309.897 162.653 309.205 161.758C308.521 160.855 307.61 160.403 306.471 160.403C305.356 160.403 304.457 160.847 303.773 161.734C303.089 162.621 302.748 163.89 302.748 165.542ZM317.787 172H315.528V153.25H317.787V172ZM320.814 165.274C320.814 163.98 321.066 162.816 321.571 161.783C322.083 160.749 322.792 159.952 323.695 159.39C324.606 158.829 325.644 158.548 326.808 158.548C328.606 158.548 330.059 159.17 331.166 160.416C332.28 161.661 332.838 163.317 332.838 165.384V165.542C332.838 166.828 332.59 167.984 332.093 169.009C331.605 170.027 330.901 170.82 329.981 171.39C329.07 171.959 328.02 172.244 326.832 172.244C325.042 172.244 323.589 171.622 322.474 170.376C321.367 169.131 320.814 167.483 320.814 165.433V165.274ZM323.084 165.542C323.084 167.007 323.422 168.183 324.098 169.07C324.781 169.957 325.693 170.401 326.832 170.401C327.979 170.401 328.891 169.953 329.566 169.058C330.242 168.155 330.58 166.893 330.58 165.274C330.58 163.825 330.234 162.653 329.542 161.758C328.858 160.855 327.947 160.403 326.808 160.403C325.693 160.403 324.793 160.847 324.11 161.734C323.426 162.621 323.084 163.89 323.084 165.542ZM335.133 165.286C335.133 163.227 335.609 161.591 336.561 160.379C337.513 159.158 338.775 158.548 340.345 158.548C341.957 158.548 343.214 159.118 344.117 160.257L344.227 158.792H346.29V171.683C346.29 173.392 345.781 174.738 344.764 175.723C343.755 176.708 342.396 177.2 340.687 177.2C339.735 177.2 338.803 176.997 337.892 176.59C336.98 176.183 336.284 175.625 335.804 174.917L336.976 173.562C337.944 174.759 339.129 175.357 340.528 175.357C341.627 175.357 342.481 175.048 343.092 174.429C343.71 173.811 344.02 172.94 344.02 171.817V170.682C343.116 171.723 341.883 172.244 340.321 172.244C338.775 172.244 337.521 171.622 336.561 170.376C335.609 169.131 335.133 167.435 335.133 165.286ZM337.403 165.542C337.403 167.032 337.708 168.204 338.319 169.058C338.929 169.904 339.784 170.328 340.882 170.328C342.306 170.328 343.352 169.681 344.02 168.387V162.356C343.328 161.095 342.29 160.464 340.907 160.464C339.808 160.464 338.95 160.892 338.331 161.746C337.713 162.601 337.403 163.866 337.403 165.542ZM352.162 172H349.903V158.792H352.162V172ZM349.72 155.289C349.72 154.922 349.83 154.613 350.05 154.361C350.278 154.109 350.611 153.982 351.051 153.982C351.49 153.982 351.824 154.109 352.052 154.361C352.28 154.613 352.394 154.922 352.394 155.289C352.394 155.655 352.28 155.96 352.052 156.204C351.824 156.448 351.49 156.57 351.051 156.57C350.611 156.57 350.278 156.448 350.05 156.204C349.83 155.96 349.72 155.655 349.72 155.289ZM363.941 172C363.811 171.74 363.705 171.276 363.624 170.608C362.574 171.699 361.321 172.244 359.864 172.244C358.562 172.244 357.492 171.878 356.654 171.146C355.824 170.405 355.409 169.469 355.409 168.338C355.409 166.963 355.93 165.896 356.971 165.14C358.021 164.375 359.494 163.992 361.39 163.992H363.587V162.955C363.587 162.165 363.351 161.539 362.879 161.075C362.407 160.603 361.712 160.367 360.792 160.367C359.986 160.367 359.311 160.57 358.766 160.977C358.22 161.384 357.948 161.876 357.948 162.454H355.677C355.677 161.795 355.909 161.16 356.373 160.55C356.845 159.931 357.48 159.443 358.277 159.085C359.083 158.727 359.966 158.548 360.926 158.548C362.448 158.548 363.64 158.93 364.503 159.695C365.366 160.452 365.813 161.498 365.846 162.833V168.912C365.846 170.124 366 171.089 366.31 171.805V172H363.941ZM360.194 170.279C360.902 170.279 361.573 170.096 362.208 169.729C362.843 169.363 363.303 168.887 363.587 168.301V165.591H361.817C359.05 165.591 357.667 166.401 357.667 168.021C357.667 168.729 357.903 169.282 358.375 169.681C358.847 170.079 359.453 170.279 360.194 170.279Z" fill="#2368A7"/>
<path d="M11.3486 18.2329V27H6.22168V2.11719H15.9287C17.7972 2.11719 19.4378 2.45898 20.8506 3.14258C22.2747 3.82617 23.3685 4.80029 24.1318 6.06494C24.8952 7.3182 25.2769 8.74805 25.2769 10.3545C25.2769 12.7926 24.4395 14.7181 22.7646 16.1309C21.1012 17.5322 18.7941 18.2329 15.8433 18.2329H11.3486ZM11.3486 14.0801H15.9287C17.2845 14.0801 18.3156 13.7611 19.022 13.123C19.7397 12.485 20.0986 11.5736 20.0986 10.3887C20.0986 9.1696 19.7397 8.18408 19.022 7.43213C18.3042 6.68018 17.313 6.29281 16.0483 6.27002H11.3486V14.0801ZM38.8804 13.1401C38.2082 13.049 37.6157 13.0034 37.103 13.0034C35.2345 13.0034 34.0098 13.6357 33.4287 14.9004V27H28.4897V8.50879H33.1553L33.292 10.7134C34.2832 9.01579 35.6561 8.16699 37.4106 8.16699C37.9575 8.16699 38.4702 8.24105 38.9487 8.38916L38.8804 13.1401ZM39.8887 17.5835C39.8887 15.7492 40.2419 14.1143 40.9482 12.6787C41.6546 11.2432 42.6686 10.1323 43.9902 9.34619C45.3232 8.56006 46.867 8.16699 48.6216 8.16699C51.1167 8.16699 53.1504 8.93034 54.7227 10.457C56.3063 11.9837 57.1893 14.0573 57.3716 16.6777L57.4058 17.9424C57.4058 20.7793 56.6139 23.0579 55.0303 24.7783C53.4466 26.4873 51.3218 27.3418 48.6558 27.3418C45.9897 27.3418 43.8592 26.4873 42.2642 24.7783C40.6805 23.0693 39.8887 20.7451 39.8887 17.8057V17.5835ZM44.8276 17.9424C44.8276 19.6969 45.158 21.0413 45.8188 21.9756C46.4797 22.8984 47.4253 23.3599 48.6558 23.3599C49.8521 23.3599 50.7863 22.9041 51.4585 21.9927C52.1307 21.0698 52.4668 19.6001 52.4668 17.5835C52.4668 15.8631 52.1307 14.5301 51.4585 13.5845C50.7863 12.6388 49.8407 12.166 48.6216 12.166C47.4139 12.166 46.4797 12.6388 45.8188 13.5845C45.158 14.5187 44.8276 15.9714 44.8276 17.9424ZM59.73 17.6177C59.73 14.7808 60.4022 12.4964 61.7466 10.7646C63.1024 9.03288 64.9253 8.16699 67.2153 8.16699C69.2433 8.16699 70.8213 8.86198 71.9492 10.252L72.1543 8.50879H76.6318V26.3848C76.6318 28.0026 76.2616 29.4097 75.521 30.606C74.7918 31.8022 73.7607 32.7137 72.4277 33.3403C71.0947 33.967 69.5339 34.2803 67.7451 34.2803C66.3893 34.2803 65.0677 34.0068 63.7803 33.46C62.4928 32.9245 61.5187 32.2295 60.8579 31.375L63.0454 28.3672C64.2759 29.7458 65.7684 30.4351 67.5229 30.4351C68.8332 30.4351 69.8529 30.0819 70.582 29.3755C71.3112 28.6805 71.6758 27.6893 71.6758 26.4019V25.4106C70.5365 26.6981 69.0382 27.3418 67.1812 27.3418C64.9595 27.3418 63.1593 26.4759 61.7808 24.7441C60.4136 23.001 59.73 20.6938 59.73 17.8228V17.6177ZM64.6689 17.9766C64.6689 19.6514 65.005 20.9673 65.6772 21.9243C66.3494 22.87 67.2723 23.3428 68.4458 23.3428C69.9497 23.3428 71.0264 22.7788 71.6758 21.6509V13.875C71.015 12.7471 69.9497 12.1831 68.48 12.1831C67.2951 12.1831 66.3608 12.6673 65.6772 13.6357C65.005 14.6042 64.6689 16.0511 64.6689 17.9766ZM90.8335 13.1401C90.1613 13.049 89.5688 13.0034 89.0562 13.0034C87.1877 13.0034 85.9629 13.6357 85.3818 14.9004V27H80.4429V8.50879H85.1084L85.2451 10.7134C86.2363 9.01579 87.6092 8.16699 89.3638 8.16699C89.9106 8.16699 90.4233 8.24105 90.9019 8.38916L90.8335 13.1401ZM103.429 27C103.201 26.5557 103.036 26.0031 102.933 25.3423C101.737 26.6753 100.182 27.3418 98.2676 27.3418C96.4561 27.3418 94.9521 26.8177 93.7559 25.7695C92.571 24.7214 91.9785 23.3997 91.9785 21.8047C91.9785 19.8451 92.702 18.3411 94.1489 17.293C95.6073 16.2448 97.7093 15.715 100.455 15.7036H102.728V14.644C102.728 13.7896 102.506 13.106 102.062 12.5933C101.629 12.0806 100.939 11.8242 99.9937 11.8242C99.1619 11.8242 98.5068 12.0236 98.0283 12.4224C97.5612 12.8211 97.3276 13.368 97.3276 14.063H92.3887C92.3887 12.992 92.7191 12.0008 93.3799 11.0894C94.0407 10.1779 94.9749 9.46582 96.1826 8.95312C97.3903 8.42904 98.7461 8.16699 100.25 8.16699C102.529 8.16699 104.334 8.74235 105.667 9.89307C107.012 11.0324 107.684 12.6388 107.684 14.7124V22.7275C107.695 24.4821 107.94 25.8094 108.419 26.7095V27H103.429ZM99.3442 23.5649C100.073 23.5649 100.746 23.4054 101.361 23.0864C101.976 22.756 102.432 22.3174 102.728 21.7705V18.5918H100.882C98.41 18.5918 97.0941 19.4463 96.9346 21.1553L96.9175 21.4458C96.9175 22.061 97.134 22.568 97.5669 22.9668C97.9998 23.3656 98.5923 23.5649 99.3442 23.5649ZM116.109 8.50879L116.263 10.5767C117.573 8.97021 119.345 8.16699 121.578 8.16699C123.959 8.16699 125.594 9.10693 126.483 10.9868C127.782 9.10693 129.633 8.16699 132.037 8.16699C134.042 8.16699 135.535 8.75374 136.515 9.92725C137.494 11.0894 137.984 12.8439 137.984 15.1909V27H133.028V15.208C133.028 14.1598 132.823 13.3965 132.413 12.918C132.003 12.4281 131.279 12.1831 130.243 12.1831C128.762 12.1831 127.736 12.8895 127.167 14.3022L127.184 27H122.245V15.2251C122.245 14.1541 122.034 13.3794 121.612 12.9009C121.191 12.4224 120.473 12.1831 119.459 12.1831C118.058 12.1831 117.044 12.7642 116.417 13.9263V27H111.478V8.50879H116.109ZM152.511 27C152.283 26.5557 152.118 26.0031 152.015 25.3423C150.819 26.6753 149.264 27.3418 147.35 27.3418C145.538 27.3418 144.034 26.8177 142.838 25.7695C141.653 24.7214 141.061 23.3997 141.061 21.8047C141.061 19.8451 141.784 18.3411 143.231 17.293C144.689 16.2448 146.791 15.715 149.537 15.7036H151.81V14.644C151.81 13.7896 151.588 13.106 151.144 12.5933C150.711 12.0806 150.021 11.8242 149.076 11.8242C148.244 11.8242 147.589 12.0236 147.11 12.4224C146.643 12.8211 146.41 13.368 146.41 14.063H141.471C141.471 12.992 141.801 12.0008 142.462 11.0894C143.123 10.1779 144.057 9.46582 145.265 8.95312C146.472 8.42904 147.828 8.16699 149.332 8.16699C151.611 8.16699 153.417 8.74235 154.75 9.89307C156.094 11.0324 156.766 12.6388 156.766 14.7124V22.7275C156.778 24.4821 157.022 25.8094 157.501 26.7095V27H152.511ZM148.426 23.5649C149.155 23.5649 149.828 23.4054 150.443 23.0864C151.058 22.756 151.514 22.3174 151.81 21.7705V18.5918H149.964C147.492 18.5918 146.176 19.4463 146.017 21.1553L146 21.4458C146 22.061 146.216 22.568 146.649 22.9668C147.082 23.3656 147.674 23.5649 148.426 23.5649ZM168.507 17.6177C168.507 14.7352 169.151 12.4395 170.438 10.7305C171.737 9.02148 173.508 8.16699 175.753 8.16699C177.553 8.16699 179.04 8.83919 180.213 10.1836V0.75H185.169V27H180.709L180.47 25.0347C179.239 26.5728 177.656 27.3418 175.719 27.3418C173.543 27.3418 171.794 26.4873 170.472 24.7783C169.162 23.0579 168.507 20.6711 168.507 17.6177ZM173.446 17.9766C173.446 19.7083 173.748 21.0356 174.352 21.9585C174.955 22.8813 175.833 23.3428 176.983 23.3428C178.51 23.3428 179.587 22.6991 180.213 21.4116V14.1143C179.598 12.8268 178.533 12.1831 177.018 12.1831C174.636 12.1831 173.446 14.1143 173.446 17.9766ZM197.508 27.3418C194.797 27.3418 192.586 26.5101 190.877 24.8467C189.18 23.1833 188.331 20.9673 188.331 18.1987V17.7202C188.331 15.8631 188.69 14.2054 189.408 12.7471C190.125 11.2773 191.139 10.1494 192.45 9.36328C193.771 8.56576 195.275 8.16699 196.961 8.16699C199.491 8.16699 201.479 8.96452 202.926 10.5596C204.384 12.1546 205.113 14.4162 205.113 17.3442V19.3608H193.338C193.498 20.5685 193.976 21.5369 194.774 22.2661C195.583 22.9953 196.603 23.3599 197.833 23.3599C199.736 23.3599 201.222 22.6706 202.293 21.292L204.72 24.0093C203.98 25.0575 202.977 25.8778 201.712 26.4702C200.448 27.0513 199.046 27.3418 197.508 27.3418ZM196.944 12.166C195.965 12.166 195.167 12.4964 194.552 13.1572C193.948 13.818 193.561 14.7637 193.39 15.9941H200.26V15.6011C200.237 14.5073 199.941 13.6642 199.371 13.0718C198.801 12.4679 197.993 12.166 196.944 12.166ZM236.507 18.7114C236.314 21.3888 235.322 23.4966 233.534 25.0347C231.756 26.5728 229.409 27.3418 226.493 27.3418C223.303 27.3418 220.79 26.2708 218.956 24.1289C217.133 21.9756 216.222 19.0247 216.222 15.2764V13.7554C216.222 11.3628 216.643 9.25505 217.486 7.43213C218.329 5.60921 219.531 4.21354 221.092 3.24512C222.665 2.2653 224.487 1.77539 226.561 1.77539C229.432 1.77539 231.745 2.54443 233.5 4.08252C235.254 5.62061 236.268 7.77962 236.542 10.5596H231.415C231.289 8.95312 230.839 7.79102 230.064 7.07324C229.301 6.34408 228.133 5.97949 226.561 5.97949C224.852 5.97949 223.57 6.59473 222.716 7.8252C221.873 9.04427 221.44 10.9412 221.417 13.5161V15.396C221.417 18.0848 221.821 20.0501 222.63 21.292C223.451 22.5339 224.738 23.1548 226.493 23.1548C228.076 23.1548 229.256 22.7959 230.03 22.0781C230.816 21.349 231.266 20.2267 231.38 18.7114H236.507ZM238.78 17.5835C238.78 15.7492 239.133 14.1143 239.84 12.6787C240.546 11.2432 241.56 10.1323 242.882 9.34619C244.215 8.56006 245.759 8.16699 247.513 8.16699C250.008 8.16699 252.042 8.93034 253.614 10.457C255.198 11.9837 256.081 14.0573 256.263 16.6777L256.297 17.9424C256.297 20.7793 255.506 23.0579 253.922 24.7783C252.338 26.4873 250.213 27.3418 247.547 27.3418C244.881 27.3418 242.751 26.4873 241.156 24.7783C239.572 23.0693 238.78 20.7451 238.78 17.8057V17.5835ZM243.719 17.9424C243.719 19.6969 244.05 21.0413 244.71 21.9756C245.371 22.8984 246.317 23.3599 247.547 23.3599C248.744 23.3599 249.678 22.9041 250.35 21.9927C251.022 21.0698 251.358 19.6001 251.358 17.5835C251.358 15.8631 251.022 14.5301 250.35 13.5845C249.678 12.6388 248.732 12.166 247.513 12.166C246.306 12.166 245.371 12.6388 244.71 13.5845C244.05 14.5187 243.719 15.9714 243.719 17.9424ZM263.885 8.50879L264.039 10.645C265.361 8.993 267.132 8.16699 269.354 8.16699C271.314 8.16699 272.772 8.74235 273.729 9.89307C274.686 11.0438 275.176 12.7642 275.199 15.0542V27H270.26V15.1738C270.26 14.1257 270.032 13.368 269.576 12.9009C269.12 12.4224 268.363 12.1831 267.303 12.1831C265.913 12.1831 264.871 12.7756 264.176 13.9604V27H259.237V8.50879H263.885ZM280.309 27V12.1318H277.557V8.50879H280.309V6.93652C280.309 4.86296 280.901 3.25651 282.086 2.11719C283.282 0.966471 284.951 0.391113 287.093 0.391113C287.777 0.391113 288.614 0.505046 289.605 0.73291L289.554 4.56104C289.144 4.4585 288.643 4.40723 288.05 4.40723C286.193 4.40723 285.265 5.27881 285.265 7.02197V8.50879H288.939V12.1318H285.265V27H280.309ZM290.733 17.5835C290.733 15.7492 291.087 14.1143 291.793 12.6787C292.499 11.2432 293.513 10.1323 294.835 9.34619C296.168 8.56006 297.712 8.16699 299.466 8.16699C301.961 8.16699 303.995 8.93034 305.567 10.457C307.151 11.9837 308.034 14.0573 308.216 16.6777L308.25 17.9424C308.25 20.7793 307.459 23.0579 305.875 24.7783C304.291 26.4873 302.167 27.3418 299.5 27.3418C296.834 27.3418 294.704 26.4873 293.109 24.7783C291.525 23.0693 290.733 20.7451 290.733 17.8057V17.5835ZM295.672 17.9424C295.672 19.6969 296.003 21.0413 296.664 21.9756C297.324 22.8984 298.27 23.3599 299.5 23.3599C300.697 23.3599 301.631 22.9041 302.303 21.9927C302.975 21.0698 303.312 19.6001 303.312 17.5835C303.312 15.8631 302.975 14.5301 302.303 13.5845C301.631 12.6388 300.685 12.166 299.466 12.166C298.259 12.166 297.324 12.6388 296.664 13.5845C296.003 14.5187 295.672 15.9714 295.672 17.9424ZM321.683 13.1401C321.011 13.049 320.418 13.0034 319.906 13.0034C318.037 13.0034 316.812 13.6357 316.231 14.9004V27H311.292V8.50879H315.958L316.095 10.7134C317.086 9.01579 318.459 8.16699 320.213 8.16699C320.76 8.16699 321.273 8.24105 321.751 8.38916L321.683 13.1401ZM328.707 8.50879L328.861 10.5767C330.171 8.97021 331.943 8.16699 334.176 8.16699C336.557 8.16699 338.192 9.10693 339.081 10.9868C340.379 9.10693 342.231 8.16699 344.635 8.16699C346.64 8.16699 348.132 8.75374 349.112 9.92725C350.092 11.0894 350.582 12.8439 350.582 15.1909V27H345.626V15.208C345.626 14.1598 345.421 13.3965 345.011 12.918C344.601 12.4281 343.877 12.1831 342.84 12.1831C341.359 12.1831 340.334 12.8895 339.764 14.3022L339.781 27H334.842V15.2251C334.842 14.1541 334.632 13.3794 334.21 12.9009C333.788 12.4224 333.071 12.1831 332.057 12.1831C330.655 12.1831 329.641 12.7642 329.015 13.9263V27H324.076V8.50879H328.707ZM359.605 27H354.649V8.50879H359.605V27ZM354.359 3.72363C354.359 2.98307 354.604 2.37354 355.094 1.89502C355.595 1.4165 356.273 1.17725 357.127 1.17725C357.971 1.17725 358.643 1.4165 359.144 1.89502C359.645 2.37354 359.896 2.98307 359.896 3.72363C359.896 4.47559 359.64 5.09082 359.127 5.56934C358.626 6.04785 357.959 6.28711 357.127 6.28711C356.296 6.28711 355.624 6.04785 355.111 5.56934C354.61 5.09082 354.359 4.47559 354.359 3.72363ZM362.921 17.6177C362.921 14.7352 363.565 12.4395 364.852 10.7305C366.151 9.02148 367.923 8.16699 370.167 8.16699C371.967 8.16699 373.454 8.83919 374.627 10.1836V0.75H379.583V27H375.123L374.884 25.0347C373.653 26.5728 372.07 27.3418 370.133 27.3418C367.957 27.3418 366.208 26.4873 364.886 24.7783C363.576 23.0579 362.921 20.6711 362.921 17.6177ZM367.86 17.9766C367.86 19.7083 368.162 21.0356 368.766 21.9585C369.369 22.8813 370.247 23.3428 371.397 23.3428C372.924 23.3428 374.001 22.6991 374.627 21.4116V14.1143C374.012 12.8268 372.947 12.1831 371.432 12.1831C369.05 12.1831 367.86 14.1143 367.86 17.9766ZM394.127 27C393.899 26.5557 393.734 26.0031 393.631 25.3423C392.435 26.6753 390.88 27.3418 388.966 27.3418C387.154 27.3418 385.65 26.8177 384.454 25.7695C383.269 24.7214 382.677 23.3997 382.677 21.8047C382.677 19.8451 383.4 18.3411 384.847 17.293C386.306 16.2448 388.408 15.715 391.153 15.7036H393.426V14.644C393.426 13.7896 393.204 13.106 392.76 12.5933C392.327 12.0806 391.638 11.8242 390.692 11.8242C389.86 11.8242 389.205 12.0236 388.727 12.4224C388.259 12.8211 388.026 13.368 388.026 14.063H383.087C383.087 12.992 383.417 12.0008 384.078 11.0894C384.739 10.1779 385.673 9.46582 386.881 8.95312C388.089 8.42904 389.444 8.16699 390.948 8.16699C393.227 8.16699 395.033 8.74235 396.366 9.89307C397.71 11.0324 398.382 12.6388 398.382 14.7124V22.7275C398.394 24.4821 398.639 25.8094 399.117 26.7095V27H394.127ZM390.042 23.5649C390.772 23.5649 391.444 23.4054 392.059 23.0864C392.674 22.756 393.13 22.3174 393.426 21.7705V18.5918H391.581C389.108 18.5918 387.792 19.4463 387.633 21.1553L387.616 21.4458C387.616 22.061 387.832 22.568 388.265 22.9668C388.698 23.3656 389.291 23.5649 390.042 23.5649ZM401.407 17.6177C401.407 14.7352 402.051 12.4395 403.338 10.7305C404.637 9.02148 406.409 8.16699 408.653 8.16699C410.453 8.16699 411.94 8.83919 413.114 10.1836V0.75H418.07V27H413.609L413.37 25.0347C412.14 26.5728 410.556 27.3418 408.619 27.3418C406.443 27.3418 404.694 26.4873 403.373 24.7783C402.062 23.0579 401.407 20.6711 401.407 17.6177ZM406.346 17.9766C406.346 19.7083 406.648 21.0356 407.252 21.9585C407.856 22.8813 408.733 23.3428 409.884 23.3428C411.41 23.3428 412.487 22.6991 413.114 21.4116V14.1143C412.499 12.8268 411.433 12.1831 409.918 12.1831C407.537 12.1831 406.346 14.1143 406.346 17.9766ZM430.409 27.3418C427.697 27.3418 425.487 26.5101 423.778 24.8467C422.08 23.1833 421.231 20.9673 421.231 18.1987V17.7202C421.231 15.8631 421.59 14.2054 422.308 12.7471C423.026 11.2773 424.04 10.1494 425.35 9.36328C426.672 8.56576 428.176 8.16699 429.862 8.16699C432.391 8.16699 434.379 8.96452 435.826 10.5596C437.285 12.1546 438.014 14.4162 438.014 17.3442V19.3608H426.239C426.398 20.5685 426.877 21.5369 427.674 22.2661C428.483 22.9953 429.503 23.3599 430.733 23.3599C432.636 23.3599 434.123 22.6706 435.194 21.292L437.621 24.0093C436.88 25.0575 435.877 25.8778 434.613 26.4702C433.348 27.0513 431.947 27.3418 430.409 27.3418ZM429.845 12.166C428.865 12.166 428.067 12.4964 427.452 13.1572C426.848 13.818 426.461 14.7637 426.29 15.9941H433.16V15.6011C433.137 14.5073 432.841 13.6642 432.271 13.0718C431.702 12.4679 430.893 12.166 429.845 12.166ZM11.3486 63.8813H22.2349V68H6.22168V43.1172H11.3486V63.8813ZM43.7852 64.8555C42.8623 65.9606 41.5578 66.8208 39.8716 67.436C38.1854 68.0399 36.3169 68.3418 34.2661 68.3418C32.1128 68.3418 30.2215 67.8747 28.5923 66.9404C26.9744 65.9948 25.7212 64.6276 24.8325 62.8389C23.9552 61.0501 23.5052 58.9481 23.4824 56.5327V54.8408C23.4824 52.3571 23.8983 50.2095 24.73 48.3979C25.5731 46.575 26.7808 45.1851 28.353 44.228C29.9367 43.2596 31.7881 42.7754 33.9072 42.7754C36.8581 42.7754 39.1652 43.4818 40.8286 44.8945C42.492 46.2959 43.4775 48.341 43.7852 51.0298H38.7949C38.5671 49.6056 38.0601 48.5632 37.2739 47.9023C36.4992 47.2415 35.4282 46.9111 34.061 46.9111C32.3179 46.9111 30.9906 47.5662 30.0791 48.8765C29.1676 50.1867 28.7062 52.1349 28.6948 54.7212V56.3105C28.6948 58.9196 29.1904 60.8906 30.1816 62.2236C31.1729 63.5566 32.6255 64.2231 34.5396 64.2231C36.465 64.2231 37.8379 63.813 38.6582 62.9927V58.7031H33.9927V54.9263H43.7852V64.8555ZM53.082 59.2329V68H47.9551V43.1172H57.6621C59.5306 43.1172 61.1712 43.459 62.584 44.1426C64.0081 44.8262 65.1019 45.8003 65.8652 47.0649C66.6286 48.3182 67.0103 49.748 67.0103 51.3545C67.0103 53.7926 66.1729 55.7181 64.498 57.1309C62.8346 58.5322 60.5275 59.2329 57.5767 59.2329H53.082ZM53.082 55.0801H57.6621C59.0179 55.0801 60.049 54.7611 60.7554 54.123C61.4731 53.485 61.832 52.5736 61.832 51.3887C61.832 50.1696 61.4731 49.1841 60.7554 48.4321C60.0376 47.6802 59.0464 47.2928 57.7817 47.27H53.082V55.0801ZM70.5479 68V43.1172H78.2041C80.3916 43.1172 82.3455 43.6128 84.0659 44.604C85.7977 45.5838 87.1478 46.9852 88.1162 48.8081C89.0846 50.6196 89.5688 52.6818 89.5688 54.9946V56.1396C89.5688 58.4525 89.0903 60.509 88.1333 62.3091C87.1877 64.1092 85.849 65.5049 84.1172 66.4961C82.3854 67.4873 80.4315 67.9886 78.2554 68H70.5479ZM75.6748 47.27V63.8813H78.1528C80.158 63.8813 81.6904 63.2262 82.75 61.916C83.8096 60.6058 84.3507 58.7316 84.3735 56.2935V54.9775C84.3735 52.4482 83.8494 50.5342 82.8013 49.2354C81.7531 47.9251 80.2207 47.27 78.2041 47.27H75.6748ZM106.522 53.3711H109.154C110.407 53.3711 111.336 53.0578 111.939 52.4312C112.543 51.8045 112.845 50.9728 112.845 49.936C112.845 48.9334 112.543 48.153 111.939 47.5947C111.347 47.0365 110.527 46.7573 109.479 46.7573C108.533 46.7573 107.741 47.0194 107.103 47.5435C106.465 48.0562 106.146 48.7284 106.146 49.5601H101.207C101.207 48.2612 101.555 47.0991 102.25 46.0737C102.956 45.0369 103.936 44.228 105.189 43.647C106.454 43.0659 107.844 42.7754 109.359 42.7754C111.991 42.7754 114.053 43.4077 115.545 44.6724C117.038 45.9256 117.784 47.6574 117.784 49.8677C117.784 51.007 117.437 52.0552 116.742 53.0122C116.047 53.9692 115.135 54.7041 114.007 55.2168C115.409 55.7181 116.451 56.4701 117.135 57.4727C117.83 58.4753 118.177 59.6602 118.177 61.0273C118.177 63.2376 117.368 65.0093 115.75 66.3423C114.144 67.6753 112.014 68.3418 109.359 68.3418C106.875 68.3418 104.841 67.6867 103.258 66.3765C101.686 65.0662 100.899 63.3345 100.899 61.1812H105.838C105.838 62.1154 106.186 62.8787 106.881 63.4712C107.587 64.0636 108.453 64.3599 109.479 64.3599C110.652 64.3599 111.569 64.0522 112.23 63.437C112.902 62.8104 113.238 61.9844 113.238 60.959C113.238 58.4753 111.871 57.2334 109.137 57.2334H106.522V53.3711ZM134.994 42.8608V46.9282H134.515C132.282 46.9624 130.482 47.5435 129.115 48.6714C127.759 49.7993 126.944 51.3659 126.671 53.3711C127.993 52.0267 129.662 51.3545 131.678 51.3545C133.843 51.3545 135.563 52.1292 136.839 53.6787C138.115 55.2282 138.753 57.2676 138.753 59.7969C138.753 61.4147 138.4 62.8787 137.694 64.189C136.999 65.4992 136.008 66.5189 134.72 67.248C133.444 67.9772 131.997 68.3418 130.379 68.3418C127.759 68.3418 125.64 67.4303 124.022 65.6074C122.416 63.7845 121.612 61.3521 121.612 58.3101V56.5327C121.612 53.8325 122.119 51.4513 123.133 49.3892C124.159 47.3156 125.623 45.7148 127.525 44.5869C129.439 43.4476 131.655 42.8722 134.173 42.8608H134.994ZM130.174 55.3193C129.377 55.3193 128.653 55.5301 128.004 55.9517C127.354 56.3618 126.876 56.9087 126.568 57.5923V59.0962C126.568 60.7482 126.893 62.0413 127.542 62.9756C128.192 63.8984 129.103 64.3599 130.277 64.3599C131.336 64.3599 132.191 63.944 132.84 63.1123C133.501 62.2692 133.832 61.1812 133.832 59.8481C133.832 58.4924 133.501 57.3986 132.84 56.5669C132.18 55.7352 131.291 55.3193 130.174 55.3193ZM158.441 57.7119C158.441 61.1527 157.729 63.7845 156.305 65.6074C154.881 67.4303 152.796 68.3418 150.05 68.3418C147.338 68.3418 145.265 67.4474 143.829 65.6587C142.394 63.87 141.659 61.3065 141.625 57.9683V53.3882C141.625 49.9132 142.342 47.2757 143.778 45.4756C145.225 43.6755 147.304 42.7754 150.016 42.7754C152.727 42.7754 154.801 43.6698 156.236 45.4585C157.672 47.2358 158.407 49.7936 158.441 53.1318V57.7119ZM153.502 52.6875C153.502 50.6253 153.217 49.1271 152.647 48.1929C152.089 47.2472 151.212 46.7744 150.016 46.7744C148.854 46.7744 147.993 47.2244 147.435 48.1245C146.888 49.0132 146.598 50.4089 146.563 52.3115V58.3613C146.563 60.3893 146.837 61.8989 147.384 62.8901C147.942 63.87 148.831 64.3599 150.05 64.3599C151.257 64.3599 152.129 63.887 152.665 62.9414C153.2 61.9958 153.479 60.5488 153.502 58.6006V52.6875ZM162.252 47.4922C162.252 46.1934 162.713 45.0825 163.636 44.1597C164.559 43.2368 165.647 42.7754 166.9 42.7754C168.142 42.7754 169.213 43.2368 170.113 44.1597C171.025 45.0711 171.48 46.182 171.48 47.4922C171.48 48.8024 171.025 49.9076 170.113 50.8076C169.213 51.6963 168.142 52.1406 166.9 52.1406C165.67 52.1406 164.588 51.6963 163.653 50.8076C162.719 49.9076 162.252 48.8024 162.252 47.4922ZM166.9 49.6113C167.504 49.6113 168 49.4119 168.387 49.0132C168.786 48.603 168.985 48.096 168.985 47.4922C168.985 46.8997 168.786 46.387 168.387 45.9541C168 45.5212 167.504 45.3047 166.9 45.3047C166.297 45.3047 165.79 45.5212 165.379 45.9541C164.969 46.387 164.764 46.8997 164.764 47.4922C164.764 48.0846 164.969 48.5859 165.379 48.9961C165.801 49.4062 166.308 49.6113 166.9 49.6113Z" fill="#00498D"/>
</svg>
