<svg width="169" height="24" viewBox="0 0 169 24" fill="none" xmlns="http://www.w3.org/2000/svg">
<path d="M17.6475 15.8958C17.4814 18.1907 16.6318 19.9973 15.0986 21.3157C13.5752 22.634 11.5635 23.2932 9.06348 23.2932C6.3291 23.2932 4.17578 22.3752 2.60352 20.5393C1.04102 18.6936 0.259766 16.1643 0.259766 12.9514V11.6477C0.259766 9.59692 0.621094 7.79028 1.34375 6.22778C2.06641 4.66528 3.09668 3.46899 4.43457 2.63892C5.78223 1.79907 7.34473 1.37915 9.12207 1.37915C11.583 1.37915 13.5654 2.03833 15.0693 3.35669C16.5732 4.67505 17.4424 6.52563 17.6768 8.90845H13.2822C13.1748 7.53149 12.7891 6.5354 12.125 5.92017C11.4707 5.29517 10.4697 4.98267 9.12207 4.98267C7.65723 4.98267 6.55859 5.51001 5.82617 6.5647C5.10352 7.60962 4.73242 9.2356 4.71289 11.4426V13.054C4.71289 15.3586 5.05957 17.0432 5.75293 18.1077C6.45605 19.1721 7.55957 19.7043 9.06348 19.7043C10.4209 19.7043 11.4316 19.3967 12.0957 18.7815C12.7695 18.1565 13.1553 17.1946 13.2529 15.8958H17.6475ZM24.7227 23.0002H20.4746V0.500244H24.7227V23.0002ZM32.6914 23.0002H28.4434V7.15063H32.6914V23.0002ZM28.1943 3.04907C28.1943 2.41431 28.4043 1.89185 28.8242 1.48169C29.2539 1.07153 29.835 0.866455 30.5674 0.866455C31.29 0.866455 31.8662 1.07153 32.2959 1.48169C32.7256 1.89185 32.9404 2.41431 32.9404 3.04907C32.9404 3.6936 32.7207 4.22095 32.2812 4.6311C31.8516 5.04126 31.2803 5.24634 30.5674 5.24634C29.8545 5.24634 29.2783 5.04126 28.8389 4.6311C28.4092 4.22095 28.1943 3.6936 28.1943 3.04907ZM43.4873 23.2932C41.1631 23.2932 39.2686 22.5803 37.8037 21.1545C36.3486 19.7288 35.6211 17.8293 35.6211 15.4563V15.0461C35.6211 13.4543 35.9287 12.0334 36.5439 10.7834C37.1592 9.52368 38.0283 8.55688 39.1514 7.88306C40.2842 7.19946 41.5732 6.85767 43.0186 6.85767C45.1865 6.85767 46.8906 7.54126 48.1309 8.90845C49.3809 10.2756 50.0059 12.2141 50.0059 14.7239V16.4524H39.9131C40.0498 17.4875 40.46 18.3176 41.1436 18.9426C41.8369 19.5676 42.7109 19.8801 43.7656 19.8801C45.3965 19.8801 46.6709 19.2893 47.5889 18.1077L49.6689 20.4368C49.0342 21.3352 48.1748 22.0383 47.0908 22.5461C46.0068 23.0442 44.8057 23.2932 43.4873 23.2932ZM43.0039 10.2854C42.1641 10.2854 41.4805 10.5686 40.9531 11.135C40.4355 11.7014 40.1035 12.512 39.957 13.5667H45.8457V13.2297C45.8262 12.2922 45.5723 11.5696 45.084 11.0618C44.5957 10.5442 43.9023 10.2854 43.0039 10.2854ZM56.3193 7.15063L56.4512 8.98169C57.584 7.56567 59.1025 6.85767 61.0068 6.85767C62.6865 6.85767 63.9365 7.35083 64.7568 8.33716C65.5771 9.32349 65.9971 10.7981 66.0166 12.761V23.0002H61.7832V12.8635C61.7832 11.9651 61.5879 11.3157 61.1973 10.9153C60.8066 10.5051 60.1572 10.3 59.249 10.3C58.0576 10.3 57.1641 10.8079 56.5684 11.8235V23.0002H52.335V7.15063H56.3193ZM74.3076 3.25415V7.15063H77.0176V10.2561H74.3076V18.1663C74.3076 18.7522 74.4199 19.1721 74.6445 19.426C74.8691 19.6799 75.2988 19.8069 75.9336 19.8069C76.4023 19.8069 76.8174 19.7727 77.1787 19.7043V22.9124C76.3486 23.1663 75.4941 23.2932 74.6152 23.2932C71.6465 23.2932 70.1328 21.7942 70.0742 18.7961V10.2561H67.7598V7.15063H70.0742V3.25415H74.3076ZM86.6709 23.2932C84.3467 23.2932 82.4521 22.5803 80.9873 21.1545C79.5322 19.7288 78.8047 17.8293 78.8047 15.4563V15.0461C78.8047 13.4543 79.1123 12.0334 79.7275 10.7834C80.3428 9.52368 81.2119 8.55688 82.335 7.88306C83.4678 7.19946 84.7568 6.85767 86.2021 6.85767C88.3701 6.85767 90.0742 7.54126 91.3145 8.90845C92.5645 10.2756 93.1895 12.2141 93.1895 14.7239V16.4524H83.0967C83.2334 17.4875 83.6436 18.3176 84.3271 18.9426C85.0205 19.5676 85.8945 19.8801 86.9492 19.8801C88.5801 19.8801 89.8545 19.2893 90.7725 18.1077L92.8525 20.4368C92.2178 21.3352 91.3584 22.0383 90.2744 22.5461C89.1904 23.0442 87.9893 23.2932 86.6709 23.2932ZM86.1875 10.2854C85.3477 10.2854 84.6641 10.5686 84.1367 11.135C83.6191 11.7014 83.2871 12.512 83.1406 13.5667H89.0293V13.2297C89.0098 12.2922 88.7559 11.5696 88.2676 11.0618C87.7793 10.5442 87.0859 10.2854 86.1875 10.2854ZM104.19 18.6204C104.19 18.1028 103.932 17.6975 103.414 17.4045C102.906 17.1018 102.086 16.8333 100.953 16.5989C97.1836 15.8079 95.2988 14.2063 95.2988 11.7942C95.2988 10.3879 95.8799 9.21606 97.042 8.27856C98.2139 7.3313 99.7422 6.85767 101.627 6.85767C103.639 6.85767 105.245 7.3313 106.446 8.27856C107.657 9.22583 108.263 10.4563 108.263 11.97H104.029C104.029 11.3645 103.834 10.8665 103.443 10.4758C103.053 10.0754 102.442 9.87524 101.612 9.87524C100.899 9.87524 100.348 10.0364 99.957 10.3586C99.5664 10.6809 99.3711 11.0911 99.3711 11.5891C99.3711 12.0579 99.5908 12.4387 100.03 12.7317C100.479 13.0149 101.231 13.2639 102.286 13.4788C103.341 13.6838 104.229 13.9182 104.952 14.1819C107.188 15.0022 108.307 16.4231 108.307 18.4446C108.307 19.8899 107.687 21.0618 106.446 21.9602C105.206 22.8489 103.604 23.2932 101.642 23.2932C100.313 23.2932 99.1318 23.0588 98.0967 22.5901C97.0713 22.1116 96.2656 21.4622 95.6797 20.6418C95.0938 19.8118 94.8008 18.9182 94.8008 17.9612H98.8145C98.8535 18.7131 99.1318 19.2893 99.6494 19.6897C100.167 20.0901 100.86 20.2903 101.729 20.2903C102.54 20.2903 103.15 20.1389 103.561 19.8362C103.98 19.5237 104.19 19.1184 104.19 18.6204ZM124.537 1.67212L130.016 17.1409L135.465 1.67212H141.236V23.0002H136.827V17.1702L137.267 7.10669L131.51 23.0002H128.492L122.75 7.12134L123.189 17.1702V23.0002H118.795V1.67212H124.537ZM156.134 17.4045C156.134 16.5745 155.841 15.9397 155.255 15.5002C154.669 15.051 153.614 14.5823 152.091 14.094C150.567 13.5959 149.361 13.1077 148.473 12.6292C146.051 11.3206 144.84 9.55786 144.84 7.34106C144.84 6.18872 145.162 5.16333 145.807 4.26489C146.461 3.35669 147.394 2.64868 148.604 2.14087C149.825 1.63306 151.192 1.37915 152.706 1.37915C154.229 1.37915 155.587 1.65747 156.778 2.21411C157.97 2.76099 158.893 3.53735 159.547 4.54321C160.211 5.54907 160.543 6.69165 160.543 7.97095H156.148C156.148 6.99438 155.841 6.23755 155.226 5.70044C154.61 5.15356 153.746 4.88013 152.633 4.88013C151.559 4.88013 150.724 5.10962 150.128 5.5686C149.532 6.01782 149.234 6.61353 149.234 7.35571C149.234 8.04907 149.581 8.63013 150.274 9.09888C150.978 9.56763 152.008 10.0071 153.365 10.4172C155.865 11.1692 157.687 12.1018 158.829 13.2151C159.972 14.3284 160.543 15.7151 160.543 17.3752C160.543 19.2209 159.845 20.6711 158.448 21.7258C157.052 22.7708 155.172 23.2932 152.809 23.2932C151.168 23.2932 149.674 22.9954 148.326 22.3997C146.979 21.7942 145.948 20.969 145.235 19.9241C144.532 18.8792 144.181 17.6682 144.181 16.2913H148.59C148.59 18.6448 149.996 19.8215 152.809 19.8215C153.854 19.8215 154.669 19.6116 155.255 19.1917C155.841 18.762 156.134 18.1663 156.134 17.4045ZM168.204 23.0002H163.81V1.67212H168.204V23.0002Z" fill="#00498D"/>
</svg>
