<svg width="454" height="163" viewBox="0 0 454 163" fill="none" xmlns="http://www.w3.org/2000/svg">
<path d="M3.40674 121.042V128H1.06299V110.227H7.61816C9.56315 110.227 11.085 110.723 12.1836 111.716C13.2904 112.709 13.8438 114.023 13.8438 115.659C13.8438 117.384 13.3026 118.715 12.2202 119.65C11.146 120.578 9.60384 121.042 7.59375 121.042H3.40674ZM3.40674 119.125H7.61816C8.87142 119.125 9.83171 118.833 10.499 118.247C11.1663 117.653 11.5 116.798 11.5 115.683C11.5 114.625 11.1663 113.779 10.499 113.144C9.83171 112.509 8.91618 112.18 7.75244 112.155H3.40674V119.125ZM22.8647 116.818C22.5229 116.761 22.1527 116.733 21.7539 116.733C20.2728 116.733 19.2677 117.364 18.7388 118.625V128H16.4805V114.792H18.6777L18.7144 116.318C19.4549 115.138 20.5047 114.548 21.8638 114.548C22.3032 114.548 22.6369 114.605 22.8647 114.719V116.818ZM24.1099 121.274C24.1099 119.98 24.3621 118.816 24.8667 117.783C25.3794 116.749 26.0874 115.952 26.9907 115.39C27.9022 114.829 28.9398 114.548 30.1035 114.548C31.902 114.548 33.3547 115.17 34.4614 116.416C35.5763 117.661 36.1338 119.317 36.1338 121.384V121.542C36.1338 122.828 35.8856 123.984 35.3892 125.009C34.9009 126.027 34.1969 126.82 33.2773 127.39C32.3659 127.959 31.3161 128.244 30.1279 128.244C28.3376 128.244 26.8849 127.622 25.77 126.376C24.6632 125.131 24.1099 123.483 24.1099 121.433V121.274ZM26.3804 121.542C26.3804 123.007 26.7181 124.183 27.3936 125.07C28.0771 125.957 28.9886 126.401 30.1279 126.401C31.2754 126.401 32.1868 125.953 32.8623 125.058C33.5378 124.155 33.8755 122.893 33.8755 121.274C33.8755 119.825 33.5296 118.653 32.8379 117.758C32.1543 116.855 31.2428 116.403 30.1035 116.403C28.9886 116.403 28.0894 116.847 27.4058 117.734C26.7222 118.621 26.3804 119.89 26.3804 121.542ZM42.0298 111.594V114.792H44.4956V116.538H42.0298V124.729C42.0298 125.257 42.1396 125.656 42.3594 125.925C42.5791 126.185 42.9535 126.315 43.4824 126.315C43.7428 126.315 44.1009 126.267 44.5566 126.169V128C43.9626 128.163 43.3848 128.244 42.8232 128.244C41.8141 128.244 41.0532 127.939 40.5405 127.329C40.0278 126.718 39.7715 125.852 39.7715 124.729V116.538H37.3667V114.792H39.7715V111.594H42.0298ZM52.6255 128.244C50.8351 128.244 49.3784 127.658 48.2554 126.486C47.1323 125.306 46.5708 123.732 46.5708 121.762V121.347C46.5708 120.037 46.819 118.869 47.3154 117.844C47.82 116.81 48.5199 116.005 49.415 115.427C50.3184 114.841 51.2949 114.548 52.3447 114.548C54.0618 114.548 55.3965 115.113 56.3486 116.245C57.3008 117.376 57.7769 118.995 57.7769 121.103V122.043H48.8291C48.8617 123.345 49.2401 124.399 49.9644 125.205C50.6968 126.002 51.6245 126.401 52.7476 126.401C53.5451 126.401 54.2205 126.238 54.7739 125.913C55.3273 125.587 55.8115 125.156 56.2266 124.619L57.606 125.693C56.4992 127.394 54.839 128.244 52.6255 128.244ZM52.3447 116.403C51.4333 116.403 50.6683 116.737 50.0498 117.404C49.4313 118.063 49.0488 118.991 48.9023 120.188H55.5186V120.017C55.4535 118.869 55.1442 117.982 54.5908 117.355C54.0374 116.721 53.2887 116.403 52.3447 116.403ZM59.8643 121.286C59.8643 119.227 60.3403 117.591 61.2925 116.379C62.2446 115.158 63.506 114.548 65.0767 114.548C66.688 114.548 67.9453 115.118 68.8486 116.257L68.9585 114.792H71.0215V127.683C71.0215 129.392 70.5129 130.738 69.4956 131.723C68.4865 132.708 67.1274 133.2 65.4185 133.2C64.4663 133.2 63.5345 132.997 62.623 132.59C61.7116 132.183 61.0158 131.625 60.5356 130.917L61.7075 129.562C62.6759 130.759 63.86 131.357 65.2598 131.357C66.3584 131.357 67.2129 131.048 67.8232 130.429C68.4417 129.811 68.751 128.94 68.751 127.817V126.682C67.8477 127.723 66.6147 128.244 65.0522 128.244C63.506 128.244 62.2528 127.622 61.2925 126.376C60.3403 125.131 59.8643 123.435 59.8643 121.286ZM62.1348 121.542C62.1348 123.032 62.4399 124.204 63.0503 125.058C63.6606 125.904 64.5151 126.328 65.6138 126.328C67.0379 126.328 68.0837 125.681 68.751 124.387V118.356C68.0592 117.095 67.0216 116.464 65.6382 116.464C64.5396 116.464 63.681 116.892 63.0625 117.746C62.444 118.601 62.1348 119.866 62.1348 121.542ZM79.9204 128.244C78.13 128.244 76.6733 127.658 75.5503 126.486C74.4272 125.306 73.8657 123.732 73.8657 121.762V121.347C73.8657 120.037 74.1139 118.869 74.6104 117.844C75.1149 116.81 75.8148 116.005 76.71 115.427C77.6133 114.841 78.5898 114.548 79.6396 114.548C81.3568 114.548 82.6914 115.113 83.6436 116.245C84.5957 117.376 85.0718 118.995 85.0718 121.103V122.043H76.124C76.1566 123.345 76.535 124.399 77.2593 125.205C77.9917 126.002 78.9194 126.401 80.0425 126.401C80.84 126.401 81.5155 126.238 82.0688 125.913C82.6222 125.587 83.1064 125.156 83.5215 124.619L84.9009 125.693C83.7941 127.394 82.134 128.244 79.9204 128.244ZM79.6396 116.403C78.7282 116.403 77.9632 116.737 77.3447 117.404C76.7262 118.063 76.3438 118.991 76.1973 120.188H82.8135V120.017C82.7484 118.869 82.4391 117.982 81.8857 117.355C81.3324 116.721 80.5837 116.403 79.6396 116.403ZM96.3511 128H94.0928V109.25H96.3511V128ZM99.3784 121.274C99.3784 119.98 99.6307 118.816 100.135 117.783C100.648 116.749 101.356 115.952 102.259 115.39C103.171 114.829 104.208 114.548 105.372 114.548C107.171 114.548 108.623 115.17 109.73 116.416C110.845 117.661 111.402 119.317 111.402 121.384V121.542C111.402 122.828 111.154 123.984 110.658 125.009C110.169 126.027 109.465 126.82 108.546 127.39C107.634 127.959 106.585 128.244 105.396 128.244C103.606 128.244 102.153 127.622 101.039 126.376C99.9318 125.131 99.3784 123.483 99.3784 121.433V121.274ZM101.649 121.542C101.649 123.007 101.987 124.183 102.662 125.07C103.346 125.957 104.257 126.401 105.396 126.401C106.544 126.401 107.455 125.953 108.131 125.058C108.806 124.155 109.144 122.893 109.144 121.274C109.144 119.825 108.798 118.653 108.106 117.758C107.423 116.855 106.511 116.403 105.372 116.403C104.257 116.403 103.358 116.847 102.674 117.734C101.991 118.621 101.649 119.89 101.649 121.542ZM121.925 124.497C121.925 123.886 121.693 123.414 121.229 123.081C120.773 122.739 119.972 122.446 118.824 122.202C117.685 121.958 116.778 121.665 116.102 121.323C115.435 120.981 114.938 120.574 114.613 120.102C114.295 119.63 114.137 119.069 114.137 118.417C114.137 117.335 114.592 116.42 115.504 115.671C116.424 114.922 117.595 114.548 119.02 114.548C120.517 114.548 121.729 114.934 122.657 115.708C123.593 116.481 124.061 117.469 124.061 118.674H121.791C121.791 118.055 121.526 117.522 120.997 117.075C120.476 116.627 119.817 116.403 119.02 116.403C118.198 116.403 117.555 116.582 117.091 116.94C116.627 117.299 116.395 117.766 116.395 118.344C116.395 118.889 116.611 119.3 117.042 119.577C117.473 119.854 118.25 120.118 119.374 120.371C120.505 120.623 121.42 120.924 122.12 121.274C122.82 121.624 123.337 122.047 123.67 122.543C124.012 123.032 124.183 123.63 124.183 124.338C124.183 125.518 123.711 126.466 122.767 127.182C121.823 127.89 120.598 128.244 119.093 128.244C118.035 128.244 117.099 128.057 116.285 127.683C115.471 127.308 114.833 126.787 114.369 126.12C113.913 125.445 113.685 124.716 113.685 123.935H115.943C115.984 124.692 116.285 125.294 116.847 125.742C117.416 126.181 118.165 126.401 119.093 126.401C119.947 126.401 120.631 126.23 121.144 125.888C121.664 125.538 121.925 125.074 121.925 124.497ZM132.777 121.286C132.777 119.26 133.257 117.632 134.217 116.403C135.178 115.166 136.435 114.548 137.989 114.548C139.535 114.548 140.76 115.077 141.664 116.135V109.25H143.922V128H141.847L141.737 126.584C140.833 127.691 139.576 128.244 137.965 128.244C136.435 128.244 135.186 127.618 134.217 126.364C133.257 125.111 132.777 123.475 132.777 121.457V121.286ZM135.035 121.542C135.035 123.04 135.344 124.212 135.963 125.058C136.581 125.904 137.436 126.328 138.526 126.328C139.959 126.328 141.004 125.685 141.664 124.399V118.332C140.988 117.087 139.951 116.464 138.551 116.464C137.444 116.464 136.581 116.892 135.963 117.746C135.344 118.601 135.035 119.866 135.035 121.542ZM155.592 128C155.462 127.74 155.356 127.276 155.274 126.608C154.225 127.699 152.971 128.244 151.515 128.244C150.213 128.244 149.142 127.878 148.304 127.146C147.474 126.405 147.059 125.469 147.059 124.338C147.059 122.963 147.58 121.896 148.622 121.14C149.671 120.375 151.144 119.992 153.041 119.992H155.238V118.955C155.238 118.165 155.002 117.539 154.53 117.075C154.058 116.603 153.362 116.367 152.442 116.367C151.637 116.367 150.961 116.57 150.416 116.977C149.871 117.384 149.598 117.876 149.598 118.454H147.328C147.328 117.795 147.56 117.16 148.023 116.55C148.495 115.931 149.13 115.443 149.928 115.085C150.733 114.727 151.616 114.548 152.577 114.548C154.098 114.548 155.291 114.93 156.153 115.695C157.016 116.452 157.464 117.498 157.496 118.833V124.912C157.496 126.124 157.651 127.089 157.96 127.805V128H155.592ZM151.844 126.279C152.552 126.279 153.224 126.096 153.858 125.729C154.493 125.363 154.953 124.887 155.238 124.301V121.591H153.468C150.701 121.591 149.317 122.401 149.317 124.021C149.317 124.729 149.553 125.282 150.025 125.681C150.497 126.079 151.104 126.279 151.844 126.279ZM164.1 111.594V114.792H166.566V116.538H164.1V124.729C164.1 125.257 164.21 125.656 164.43 125.925C164.649 126.185 165.024 126.315 165.553 126.315C165.813 126.315 166.171 126.267 166.627 126.169V128C166.033 128.163 165.455 128.244 164.894 128.244C163.884 128.244 163.124 127.939 162.611 127.329C162.098 126.718 161.842 125.852 161.842 124.729V116.538H159.437V114.792H161.842V111.594H164.1ZM168.373 121.274C168.373 119.98 168.625 118.816 169.129 117.783C169.642 116.749 170.35 115.952 171.253 115.39C172.165 114.829 173.202 114.548 174.366 114.548C176.165 114.548 177.617 115.17 178.724 116.416C179.839 117.661 180.396 119.317 180.396 121.384V121.542C180.396 122.828 180.148 123.984 179.652 125.009C179.164 126.027 178.46 126.82 177.54 127.39C176.629 127.959 175.579 128.244 174.391 128.244C172.6 128.244 171.148 127.622 170.033 126.376C168.926 125.131 168.373 123.483 168.373 121.433V121.274ZM170.643 121.542C170.643 123.007 170.981 124.183 171.656 125.07C172.34 125.957 173.251 126.401 174.391 126.401C175.538 126.401 176.45 125.953 177.125 125.058C177.8 124.155 178.138 122.893 178.138 121.274C178.138 119.825 177.792 118.653 177.101 117.758C176.417 116.855 175.506 116.403 174.366 116.403C173.251 116.403 172.352 116.847 171.668 117.734C170.985 118.621 170.643 119.89 170.643 121.542ZM190.919 124.497C190.919 123.886 190.687 123.414 190.223 123.081C189.767 122.739 188.966 122.446 187.818 122.202C186.679 121.958 185.772 121.665 185.096 121.323C184.429 120.981 183.932 120.574 183.607 120.102C183.29 119.63 183.131 119.069 183.131 118.417C183.131 117.335 183.587 116.42 184.498 115.671C185.418 114.922 186.59 114.548 188.014 114.548C189.511 114.548 190.724 114.934 191.651 115.708C192.587 116.481 193.055 117.469 193.055 118.674H190.785C190.785 118.055 190.52 117.522 189.991 117.075C189.47 116.627 188.811 116.403 188.014 116.403C187.192 116.403 186.549 116.582 186.085 116.94C185.621 117.299 185.389 117.766 185.389 118.344C185.389 118.889 185.605 119.3 186.036 119.577C186.467 119.854 187.245 120.118 188.368 120.371C189.499 120.623 190.414 120.924 191.114 121.274C191.814 121.624 192.331 122.047 192.665 122.543C193.006 123.032 193.177 123.63 193.177 124.338C193.177 125.518 192.705 126.466 191.761 127.182C190.817 127.89 189.592 128.244 188.087 128.244C187.029 128.244 186.093 128.057 185.279 127.683C184.465 127.308 183.827 126.787 183.363 126.12C182.907 125.445 182.679 124.716 182.679 123.935H184.938C184.978 124.692 185.279 125.294 185.841 125.742C186.41 126.181 187.159 126.401 188.087 126.401C188.941 126.401 189.625 126.23 190.138 125.888C190.659 125.538 190.919 125.074 190.919 124.497ZM201.771 121.286C201.771 119.26 202.251 117.632 203.211 116.403C204.172 115.166 205.429 114.548 206.983 114.548C208.53 114.548 209.754 115.077 210.658 116.135V109.25H212.916V128H210.841L210.731 126.584C209.828 127.691 208.57 128.244 206.959 128.244C205.429 128.244 204.18 127.618 203.211 126.364C202.251 125.111 201.771 123.475 201.771 121.457V121.286ZM204.029 121.542C204.029 123.04 204.339 124.212 204.957 125.058C205.576 125.904 206.43 126.328 207.521 126.328C208.953 126.328 209.999 125.685 210.658 124.399V118.332C209.982 117.087 208.945 116.464 207.545 116.464C206.438 116.464 205.576 116.892 204.957 117.746C204.339 118.601 204.029 119.866 204.029 121.542ZM221.913 128.244C220.122 128.244 218.666 127.658 217.542 126.486C216.419 125.306 215.858 123.732 215.858 121.762V121.347C215.858 120.037 216.106 118.869 216.603 117.844C217.107 116.81 217.807 116.005 218.702 115.427C219.605 114.841 220.582 114.548 221.632 114.548C223.349 114.548 224.684 115.113 225.636 116.245C226.588 117.376 227.064 118.995 227.064 121.103V122.043H218.116C218.149 123.345 218.527 124.399 219.251 125.205C219.984 126.002 220.912 126.401 222.035 126.401C222.832 126.401 223.508 126.238 224.061 125.913C224.614 125.587 225.099 125.156 225.514 124.619L226.893 125.693C225.786 127.394 224.126 128.244 221.913 128.244ZM221.632 116.403C220.72 116.403 219.955 116.737 219.337 117.404C218.718 118.063 218.336 118.991 218.189 120.188H224.806V120.017C224.741 118.869 224.431 117.982 223.878 117.355C223.325 116.721 222.576 116.403 221.632 116.403ZM238.954 111.594V114.792H241.419V116.538H238.954V124.729C238.954 125.257 239.063 125.656 239.283 125.925C239.503 126.185 239.877 126.315 240.406 126.315C240.667 126.315 241.025 126.267 241.48 126.169V128C240.886 128.163 240.309 128.244 239.747 128.244C238.738 128.244 237.977 127.939 237.464 127.329C236.952 126.718 236.695 125.852 236.695 124.729V116.538H234.291V114.792H236.695V111.594H238.954ZM252.223 126.694C251.344 127.727 250.054 128.244 248.353 128.244C246.945 128.244 245.871 127.837 245.13 127.023C244.398 126.201 244.028 124.989 244.02 123.386V114.792H246.278V123.325C246.278 125.327 247.092 126.328 248.719 126.328C250.444 126.328 251.592 125.685 252.162 124.399V114.792H254.42V128H252.271L252.223 126.694ZM269.544 128.244C267.754 128.244 266.297 127.658 265.174 126.486C264.051 125.306 263.49 123.732 263.49 121.762V121.347C263.49 120.037 263.738 118.869 264.234 117.844C264.739 116.81 265.439 116.005 266.334 115.427C267.237 114.841 268.214 114.548 269.264 114.548C270.981 114.548 272.315 115.113 273.268 116.245C274.22 117.376 274.696 118.995 274.696 121.103V122.043H265.748C265.781 123.345 266.159 124.399 266.883 125.205C267.616 126.002 268.543 126.401 269.667 126.401C270.464 126.401 271.139 126.238 271.693 125.913C272.246 125.587 272.73 125.156 273.146 124.619L274.525 125.693C273.418 127.394 271.758 128.244 269.544 128.244ZM269.264 116.403C268.352 116.403 267.587 116.737 266.969 117.404C266.35 118.063 265.968 118.991 265.821 120.188H272.438V120.017C272.372 118.869 272.063 117.982 271.51 117.355C270.956 116.721 270.208 116.403 269.264 116.403ZM279.444 114.792L279.505 116.257C280.474 115.118 281.78 114.548 283.424 114.548C285.271 114.548 286.528 115.256 287.196 116.672C287.635 116.037 288.205 115.524 288.905 115.134C289.613 114.743 290.447 114.548 291.407 114.548C294.304 114.548 295.777 116.082 295.826 119.15V128H293.568V119.284C293.568 118.34 293.352 117.636 292.921 117.172C292.49 116.7 291.765 116.464 290.748 116.464C289.91 116.464 289.214 116.717 288.661 117.221C288.107 117.718 287.786 118.389 287.696 119.235V128H285.426V119.345C285.426 117.425 284.486 116.464 282.606 116.464C281.125 116.464 280.112 117.095 279.566 118.356V128H277.308V114.792H279.444ZM310.401 121.542C310.401 123.553 309.942 125.172 309.022 126.401C308.102 127.63 306.857 128.244 305.287 128.244C303.683 128.244 302.422 127.736 301.502 126.718V133.078H299.244V114.792H301.307L301.417 116.257C302.337 115.118 303.614 114.548 305.25 114.548C306.837 114.548 308.09 115.146 309.01 116.342C309.938 117.539 310.401 119.203 310.401 121.335V121.542ZM308.143 121.286C308.143 119.797 307.826 118.621 307.191 117.758C306.556 116.896 305.685 116.464 304.579 116.464C303.211 116.464 302.186 117.071 301.502 118.283V124.594C302.178 125.799 303.211 126.401 304.603 126.401C305.685 126.401 306.544 125.974 307.179 125.119C307.822 124.257 308.143 122.979 308.143 121.286ZM319.667 116.818C319.325 116.761 318.954 116.733 318.556 116.733C317.075 116.733 316.069 117.364 315.541 118.625V128H313.282V114.792H315.479L315.516 116.318C316.257 115.138 317.306 114.548 318.666 114.548C319.105 114.548 319.439 114.605 319.667 114.719V116.818ZM326.991 128.244C325.2 128.244 323.744 127.658 322.621 126.486C321.498 125.306 320.936 123.732 320.936 121.762V121.347C320.936 120.037 321.184 118.869 321.681 117.844C322.185 116.81 322.885 116.005 323.78 115.427C324.684 114.841 325.66 114.548 326.71 114.548C328.427 114.548 329.762 115.113 330.714 116.245C331.666 117.376 332.142 118.995 332.142 121.103V122.043H323.194C323.227 123.345 323.605 124.399 324.33 125.205C325.062 126.002 325.99 126.401 327.113 126.401C327.91 126.401 328.586 126.238 329.139 125.913C329.693 125.587 330.177 125.156 330.592 124.619L331.971 125.693C330.864 127.394 329.204 128.244 326.991 128.244ZM326.71 116.403C325.799 116.403 325.034 116.737 324.415 117.404C323.797 118.063 323.414 118.991 323.268 120.188H329.884V120.017C329.819 118.869 329.509 117.982 328.956 117.355C328.403 116.721 327.654 116.403 326.71 116.403ZM342.457 124.497C342.457 123.886 342.225 123.414 341.761 123.081C341.306 122.739 340.504 122.446 339.356 122.202C338.217 121.958 337.31 121.665 336.634 121.323C335.967 120.981 335.471 120.574 335.145 120.102C334.828 119.63 334.669 119.069 334.669 118.417C334.669 117.335 335.125 116.42 336.036 115.671C336.956 114.922 338.128 114.548 339.552 114.548C341.049 114.548 342.262 114.934 343.189 115.708C344.125 116.481 344.593 117.469 344.593 118.674H342.323C342.323 118.055 342.058 117.522 341.529 117.075C341.008 116.627 340.349 116.403 339.552 116.403C338.73 116.403 338.087 116.582 337.623 116.94C337.159 117.299 336.927 117.766 336.927 118.344C336.927 118.889 337.143 119.3 337.574 119.577C338.006 119.854 338.783 120.118 339.906 120.371C341.037 120.623 341.952 120.924 342.652 121.274C343.352 121.624 343.869 122.047 344.203 122.543C344.544 123.032 344.715 123.63 344.715 124.338C344.715 125.518 344.243 126.466 343.299 127.182C342.355 127.89 341.131 128.244 339.625 128.244C338.567 128.244 337.631 128.057 336.817 127.683C336.004 127.308 335.365 126.787 334.901 126.12C334.445 125.445 334.217 124.716 334.217 123.935H336.476C336.516 124.692 336.817 125.294 337.379 125.742C337.949 126.181 338.697 126.401 339.625 126.401C340.479 126.401 341.163 126.23 341.676 125.888C342.197 125.538 342.457 125.074 342.457 124.497ZM355.812 128C355.681 127.74 355.576 127.276 355.494 126.608C354.444 127.699 353.191 128.244 351.734 128.244C350.432 128.244 349.362 127.878 348.524 127.146C347.694 126.405 347.279 125.469 347.279 124.338C347.279 122.963 347.8 121.896 348.841 121.14C349.891 120.375 351.364 119.992 353.26 119.992H355.458V118.955C355.458 118.165 355.222 117.539 354.75 117.075C354.278 116.603 353.582 116.367 352.662 116.367C351.856 116.367 351.181 116.57 350.636 116.977C350.09 117.384 349.818 117.876 349.818 118.454H347.547C347.547 117.795 347.779 117.16 348.243 116.55C348.715 115.931 349.35 115.443 350.147 115.085C350.953 114.727 351.836 114.548 352.796 114.548C354.318 114.548 355.51 114.93 356.373 115.695C357.236 116.452 357.683 117.498 357.716 118.833V124.912C357.716 126.124 357.87 127.089 358.18 127.805V128H355.812ZM352.064 126.279C352.772 126.279 353.443 126.096 354.078 125.729C354.713 125.363 355.173 124.887 355.458 124.301V121.591H353.688C350.921 121.591 349.537 122.401 349.537 124.021C349.537 124.729 349.773 125.282 350.245 125.681C350.717 126.079 351.323 126.279 352.064 126.279ZM371.778 124.692L374.854 114.792H377.271L371.961 130.039C371.139 132.236 369.833 133.334 368.043 133.334L367.616 133.298L366.773 133.139V131.308L367.384 131.357C368.149 131.357 368.743 131.202 369.166 130.893C369.597 130.584 369.951 130.018 370.228 129.196L370.729 127.854L366.017 114.792H368.482L371.778 124.692ZM6.00684 155.401C6.8125 155.401 7.51644 155.157 8.11865 154.668C8.72087 154.18 9.05452 153.57 9.11963 152.837H11.2559C11.2152 153.594 10.9548 154.314 10.4746 154.998C9.99447 155.682 9.35156 156.227 8.5459 156.634C7.74837 157.041 6.90202 157.244 6.00684 157.244C4.20833 157.244 2.77604 156.646 1.70996 155.45C0.652018 154.245 0.123047 152.601 0.123047 150.518V150.14C0.123047 148.854 0.359049 147.71 0.831055 146.709C1.30306 145.708 1.97852 144.931 2.85742 144.378C3.74447 143.825 4.7902 143.548 5.99463 143.548C7.47575 143.548 8.70459 143.991 9.68115 144.878C10.6659 145.765 11.1908 146.917 11.2559 148.333H9.11963C9.05452 147.479 8.729 146.779 8.14307 146.233C7.56527 145.68 6.84912 145.403 5.99463 145.403C4.84717 145.403 3.95605 145.818 3.32129 146.648C2.69466 147.47 2.38135 148.663 2.38135 150.225V150.652C2.38135 152.174 2.69466 153.346 3.32129 154.168C3.94792 154.99 4.8431 155.401 6.00684 155.401ZM16.2485 157H13.9902V138.25H16.2485V157ZM22.3276 157H20.0693V143.792H22.3276V157ZM19.8862 140.289C19.8862 139.922 19.9961 139.613 20.2158 139.361C20.4437 139.109 20.7773 138.982 21.2168 138.982C21.6562 138.982 21.9899 139.109 22.2178 139.361C22.4456 139.613 22.5596 139.922 22.5596 140.289C22.5596 140.655 22.4456 140.96 22.2178 141.204C21.9899 141.448 21.6562 141.57 21.2168 141.57C20.7773 141.57 20.4437 141.448 20.2158 141.204C19.9961 140.96 19.8862 140.655 19.8862 140.289ZM31.4341 157.244C29.6437 157.244 28.187 156.658 27.064 155.486C25.9409 154.306 25.3794 152.732 25.3794 150.762V150.347C25.3794 149.037 25.6276 147.869 26.124 146.844C26.6286 145.81 27.3285 145.005 28.2236 144.427C29.127 143.841 30.1035 143.548 31.1533 143.548C32.8704 143.548 34.2051 144.113 35.1572 145.245C36.1094 146.376 36.5854 147.995 36.5854 150.103V151.043H27.6377C27.6702 152.345 28.0487 153.399 28.7729 154.205C29.5054 155.002 30.4331 155.401 31.5562 155.401C32.3537 155.401 33.0291 155.238 33.5825 154.913C34.1359 154.587 34.6201 154.156 35.0352 153.619L36.4146 154.693C35.3078 156.394 33.6476 157.244 31.4341 157.244ZM31.1533 145.403C30.2419 145.403 29.4769 145.737 28.8584 146.404C28.2399 147.063 27.8574 147.991 27.7109 149.188H34.3271V149.017C34.262 147.869 33.9528 146.982 33.3994 146.355C32.846 145.721 32.0973 145.403 31.1533 145.403ZM41.3462 143.792L41.4194 145.452C42.4285 144.183 43.7469 143.548 45.3745 143.548C48.1659 143.548 49.5737 145.123 49.5981 148.272V157H47.3398V148.26C47.3317 147.308 47.112 146.604 46.6807 146.148C46.2575 145.692 45.5942 145.464 44.6909 145.464C43.9585 145.464 43.3156 145.66 42.7622 146.05C42.2088 146.441 41.7775 146.954 41.4683 147.588V157H39.21V143.792H41.3462ZM56.0679 140.594V143.792H58.5337V145.538H56.0679V153.729C56.0679 154.257 56.1777 154.656 56.3975 154.925C56.6172 155.185 56.9915 155.315 57.5205 155.315C57.7809 155.315 58.139 155.267 58.5947 155.169V157C58.0007 157.163 57.4229 157.244 56.8613 157.244C55.8522 157.244 55.0913 156.939 54.5786 156.329C54.0659 155.718 53.8096 154.852 53.8096 153.729V145.538H51.4048V143.792H53.8096V140.594H56.0679ZM66.6636 157.244C64.8732 157.244 63.4165 156.658 62.2935 155.486C61.1704 154.306 60.6089 152.732 60.6089 150.762V150.347C60.6089 149.037 60.8571 147.869 61.3535 146.844C61.8581 145.81 62.5579 145.005 63.4531 144.427C64.3564 143.841 65.333 143.548 66.3828 143.548C68.0999 143.548 69.4346 144.113 70.3867 145.245C71.3389 146.376 71.8149 147.995 71.8149 150.103V151.043H62.8672C62.8997 152.345 63.2782 153.399 64.0024 154.205C64.7349 155.002 65.6626 155.401 66.7856 155.401C67.5832 155.401 68.2586 155.238 68.812 154.913C69.3654 154.587 69.8496 154.156 70.2646 153.619L71.644 154.693C70.5373 156.394 68.8771 157.244 66.6636 157.244ZM66.3828 145.403C65.4714 145.403 64.7064 145.737 64.0879 146.404C63.4694 147.063 63.0869 147.991 62.9404 149.188H69.5566V149.017C69.4915 147.869 69.1823 146.982 68.6289 146.355C68.0755 145.721 67.3268 145.403 66.3828 145.403ZM82.1299 153.497C82.1299 152.886 81.8979 152.414 81.4341 152.081C80.9784 151.739 80.1768 151.446 79.0293 151.202C77.89 150.958 76.9826 150.665 76.3071 150.323C75.6398 149.981 75.1434 149.574 74.8179 149.102C74.5005 148.63 74.3418 148.069 74.3418 147.417C74.3418 146.335 74.7975 145.42 75.709 144.671C76.6286 143.922 77.8005 143.548 79.2246 143.548C80.722 143.548 81.9346 143.934 82.8623 144.708C83.7982 145.481 84.2661 146.469 84.2661 147.674H81.9956C81.9956 147.055 81.7311 146.522 81.2021 146.075C80.6813 145.627 80.0221 145.403 79.2246 145.403C78.4027 145.403 77.7598 145.582 77.2959 145.94C76.832 146.299 76.6001 146.766 76.6001 147.344C76.6001 147.889 76.8158 148.3 77.2471 148.577C77.6784 148.854 78.4556 149.118 79.5786 149.371C80.7098 149.623 81.6253 149.924 82.3252 150.274C83.0251 150.624 83.5418 151.047 83.8755 151.543C84.2173 152.032 84.3882 152.63 84.3882 153.338C84.3882 154.518 83.9162 155.466 82.9722 156.182C82.0282 156.89 80.8034 157.244 79.2979 157.244C78.2399 157.244 77.304 157.057 76.4902 156.683C75.6764 156.308 75.0376 155.787 74.5737 155.12C74.118 154.445 73.8901 153.716 73.8901 152.935H76.1484C76.1891 153.692 76.4902 154.294 77.0518 154.742C77.6214 155.181 78.3701 155.401 79.2979 155.401C80.1523 155.401 80.8359 155.23 81.3486 154.888C81.8695 154.538 82.1299 154.074 82.1299 153.497ZM98.8291 155.401C99.6348 155.401 100.339 155.157 100.941 154.668C101.543 154.18 101.877 153.57 101.942 152.837H104.078C104.037 153.594 103.777 154.314 103.297 154.998C102.817 155.682 102.174 156.227 101.368 156.634C100.571 157.041 99.7243 157.244 98.8291 157.244C97.0306 157.244 95.5983 156.646 94.5322 155.45C93.4743 154.245 92.9453 152.601 92.9453 150.518V150.14C92.9453 148.854 93.1813 147.71 93.6533 146.709C94.1253 145.708 94.8008 144.931 95.6797 144.378C96.5667 143.825 97.6125 143.548 98.8169 143.548C100.298 143.548 101.527 143.991 102.503 144.878C103.488 145.765 104.013 146.917 104.078 148.333H101.942C101.877 147.479 101.551 146.779 100.965 146.233C100.388 145.68 99.6714 145.403 98.8169 145.403C97.6694 145.403 96.7783 145.818 96.1436 146.648C95.5169 147.47 95.2036 148.663 95.2036 150.225V150.652C95.2036 152.174 95.5169 153.346 96.1436 154.168C96.7702 154.99 97.6654 155.401 98.8291 155.401ZM106.019 150.274C106.019 148.98 106.271 147.816 106.776 146.783C107.289 145.749 107.997 144.952 108.9 144.39C109.811 143.829 110.849 143.548 112.013 143.548C113.811 143.548 115.264 144.17 116.371 145.416C117.486 146.661 118.043 148.317 118.043 150.384V150.542C118.043 151.828 117.795 152.984 117.298 154.009C116.81 155.027 116.106 155.82 115.187 156.39C114.275 156.959 113.225 157.244 112.037 157.244C110.247 157.244 108.794 156.622 107.679 155.376C106.572 154.131 106.019 152.483 106.019 150.433V150.274ZM108.29 150.542C108.29 152.007 108.627 153.183 109.303 154.07C109.986 154.957 110.898 155.401 112.037 155.401C113.185 155.401 114.096 154.953 114.771 154.058C115.447 153.155 115.785 151.893 115.785 150.274C115.785 148.825 115.439 147.653 114.747 146.758C114.063 145.855 113.152 145.403 112.013 145.403C110.898 145.403 109.999 145.847 109.315 146.734C108.631 147.621 108.29 148.89 108.29 150.542ZM123.011 143.792L123.084 145.452C124.094 144.183 125.412 143.548 127.04 143.548C129.831 143.548 131.239 145.123 131.263 148.272V157H129.005V148.26C128.997 147.308 128.777 146.604 128.346 146.148C127.923 145.692 127.259 145.464 126.356 145.464C125.624 145.464 124.981 145.66 124.427 146.05C123.874 146.441 123.443 146.954 123.133 147.588V157H120.875V143.792H123.011ZM143.324 157H141.065V138.25H143.324V157ZM155.104 157C154.973 156.74 154.868 156.276 154.786 155.608C153.736 156.699 152.483 157.244 151.026 157.244C149.724 157.244 148.654 156.878 147.816 156.146C146.986 155.405 146.571 154.469 146.571 153.338C146.571 151.963 147.092 150.896 148.133 150.14C149.183 149.375 150.656 148.992 152.552 148.992H154.75V147.955C154.75 147.165 154.514 146.539 154.042 146.075C153.569 145.603 152.874 145.367 151.954 145.367C151.148 145.367 150.473 145.57 149.928 145.977C149.382 146.384 149.11 146.876 149.11 147.454H146.839C146.839 146.795 147.071 146.16 147.535 145.55C148.007 144.931 148.642 144.443 149.439 144.085C150.245 143.727 151.128 143.548 152.088 143.548C153.61 143.548 154.802 143.93 155.665 144.695C156.528 145.452 156.975 146.498 157.008 147.833V153.912C157.008 155.124 157.162 156.089 157.472 156.805V157H155.104ZM151.356 155.279C152.064 155.279 152.735 155.096 153.37 154.729C154.005 154.363 154.465 153.887 154.75 153.301V150.591H152.979C150.213 150.591 148.829 151.401 148.829 153.021C148.829 153.729 149.065 154.282 149.537 154.681C150.009 155.079 150.615 155.279 151.356 155.279ZM168.873 143.792L168.934 145.257C169.903 144.118 171.209 143.548 172.853 143.548C174.7 143.548 175.957 144.256 176.625 145.672C177.064 145.037 177.634 144.524 178.333 144.134C179.042 143.743 179.876 143.548 180.836 143.548C183.733 143.548 185.206 145.082 185.255 148.15V157H182.997V148.284C182.997 147.34 182.781 146.636 182.35 146.172C181.918 145.7 181.194 145.464 180.177 145.464C179.339 145.464 178.643 145.717 178.089 146.221C177.536 146.718 177.215 147.389 177.125 148.235V157H174.854V148.345C174.854 146.425 173.915 145.464 172.035 145.464C170.554 145.464 169.54 146.095 168.995 147.356V157H166.737V143.792H168.873ZM194.154 157.244C192.363 157.244 190.907 156.658 189.784 155.486C188.661 154.306 188.099 152.732 188.099 150.762V150.347C188.099 149.037 188.347 147.869 188.844 146.844C189.348 145.81 190.048 145.005 190.943 144.427C191.847 143.841 192.823 143.548 193.873 143.548C195.59 143.548 196.925 144.113 197.877 145.245C198.829 146.376 199.305 147.995 199.305 150.103V151.043H190.357C190.39 152.345 190.768 153.399 191.493 154.205C192.225 155.002 193.153 155.401 194.276 155.401C195.073 155.401 195.749 155.238 196.302 154.913C196.856 154.587 197.34 154.156 197.755 153.619L199.134 154.693C198.028 156.394 196.367 157.244 194.154 157.244ZM193.873 145.403C192.962 145.403 192.197 145.737 191.578 146.404C190.96 147.063 190.577 147.991 190.431 149.188H197.047V149.017C196.982 147.869 196.673 146.982 196.119 146.355C195.566 145.721 194.817 145.403 193.873 145.403ZM204.261 143.792V158.526C204.261 161.065 203.11 162.334 200.807 162.334C200.31 162.334 199.85 162.261 199.427 162.115V160.308C199.688 160.373 200.029 160.406 200.453 160.406C200.957 160.406 201.34 160.267 201.6 159.991C201.869 159.722 202.003 159.25 202.003 158.575V143.792H204.261ZM201.771 140.289C201.771 139.931 201.881 139.625 202.101 139.373C202.328 139.113 202.658 138.982 203.089 138.982C203.529 138.982 203.862 139.109 204.09 139.361C204.318 139.613 204.432 139.922 204.432 140.289C204.432 140.655 204.318 140.96 204.09 141.204C203.862 141.448 203.529 141.57 203.089 141.57C202.65 141.57 202.32 141.448 202.101 141.204C201.881 140.96 201.771 140.655 201.771 140.289ZM207.313 150.274C207.313 148.98 207.565 147.816 208.07 146.783C208.583 145.749 209.291 144.952 210.194 144.39C211.105 143.829 212.143 143.548 213.307 143.548C215.105 143.548 216.558 144.17 217.665 145.416C218.779 146.661 219.337 148.317 219.337 150.384V150.542C219.337 151.828 219.089 152.984 218.592 154.009C218.104 155.027 217.4 155.82 216.48 156.39C215.569 156.959 214.519 157.244 213.331 157.244C211.541 157.244 210.088 156.622 208.973 155.376C207.866 154.131 207.313 152.483 207.313 150.433V150.274ZM209.583 150.542C209.583 152.007 209.921 153.183 210.597 154.07C211.28 154.957 212.192 155.401 213.331 155.401C214.479 155.401 215.39 154.953 216.065 154.058C216.741 153.155 217.079 151.893 217.079 150.274C217.079 148.825 216.733 147.653 216.041 146.758C215.357 145.855 214.446 145.403 213.307 145.403C212.192 145.403 211.292 145.847 210.609 146.734C209.925 147.621 209.583 148.89 209.583 150.542ZM228.553 145.818C228.211 145.761 227.841 145.733 227.442 145.733C225.961 145.733 224.956 146.364 224.427 147.625V157H222.169V143.792H224.366L224.403 145.318C225.143 144.138 226.193 143.548 227.552 143.548C227.992 143.548 228.325 143.605 228.553 143.719V145.818ZM239.906 140.594V143.792H242.372V145.538H239.906V153.729C239.906 154.257 240.016 154.656 240.235 154.925C240.455 155.185 240.829 155.315 241.358 155.315C241.619 155.315 241.977 155.267 242.433 155.169V157C241.839 157.163 241.261 157.244 240.699 157.244C239.69 157.244 238.929 156.939 238.417 156.329C237.904 155.718 237.647 154.852 237.647 153.729V145.538H235.243V143.792H237.647V140.594H239.906ZM250.501 157.244C248.711 157.244 247.254 156.658 246.131 155.486C245.008 154.306 244.447 152.732 244.447 150.762V150.347C244.447 149.037 244.695 147.869 245.191 146.844C245.696 145.81 246.396 145.005 247.291 144.427C248.194 143.841 249.171 143.548 250.221 143.548C251.938 143.548 253.272 144.113 254.225 145.245C255.177 146.376 255.653 147.995 255.653 150.103V151.043H246.705C246.738 152.345 247.116 153.399 247.84 154.205C248.573 155.002 249.5 155.401 250.624 155.401C251.421 155.401 252.097 155.238 252.65 154.913C253.203 154.587 253.688 154.156 254.103 153.619L255.482 154.693C254.375 156.394 252.715 157.244 250.501 157.244ZM250.221 145.403C249.309 145.403 248.544 145.737 247.926 146.404C247.307 147.063 246.925 147.991 246.778 149.188H253.395V149.017C253.329 147.869 253.02 146.982 252.467 146.355C251.913 145.721 251.165 145.403 250.221 145.403ZM263.575 155.401C264.381 155.401 265.085 155.157 265.687 154.668C266.289 154.18 266.623 153.57 266.688 152.837H268.824C268.784 153.594 268.523 154.314 268.043 154.998C267.563 155.682 266.92 156.227 266.114 156.634C265.317 157.041 264.47 157.244 263.575 157.244C261.777 157.244 260.344 156.646 259.278 155.45C258.22 154.245 257.691 152.601 257.691 150.518V150.14C257.691 148.854 257.927 147.71 258.399 146.709C258.871 145.708 259.547 144.931 260.426 144.378C261.313 143.825 262.359 143.548 263.563 143.548C265.044 143.548 266.273 143.991 267.25 144.878C268.234 145.765 268.759 146.917 268.824 148.333H266.688C266.623 147.479 266.297 146.779 265.711 146.233C265.134 145.68 264.417 145.403 263.563 145.403C262.416 145.403 261.524 145.818 260.89 146.648C260.263 147.47 259.95 148.663 259.95 150.225V150.652C259.95 152.174 260.263 153.346 260.89 154.168C261.516 154.99 262.411 155.401 263.575 155.401ZM273.5 143.792L273.573 145.452C274.582 144.183 275.9 143.548 277.528 143.548C280.319 143.548 281.727 145.123 281.751 148.272V157H279.493V148.26C279.485 147.308 279.265 146.604 278.834 146.148C278.411 145.692 277.748 145.464 276.844 145.464C276.112 145.464 275.469 145.66 274.916 146.05C274.362 146.441 273.931 146.954 273.622 147.588V157H271.363V143.792H273.5ZM284.559 150.274C284.559 148.98 284.811 147.816 285.316 146.783C285.829 145.749 286.537 144.952 287.44 144.39C288.351 143.829 289.389 143.548 290.553 143.548C292.351 143.548 293.804 144.17 294.911 145.416C296.026 146.661 296.583 148.317 296.583 150.384V150.542C296.583 151.828 296.335 152.984 295.838 154.009C295.35 155.027 294.646 155.82 293.727 156.39C292.815 156.959 291.765 157.244 290.577 157.244C288.787 157.244 287.334 156.622 286.219 155.376C285.112 154.131 284.559 152.483 284.559 150.433V150.274ZM286.83 150.542C286.83 152.007 287.167 153.183 287.843 154.07C288.526 154.957 289.438 155.401 290.577 155.401C291.725 155.401 292.636 154.953 293.312 154.058C293.987 153.155 294.325 151.893 294.325 150.274C294.325 148.825 293.979 147.653 293.287 146.758C292.604 145.855 291.692 145.403 290.553 145.403C289.438 145.403 288.539 145.847 287.855 146.734C287.171 147.621 286.83 148.89 286.83 150.542ZM301.869 157H299.61V138.25H301.869V157ZM304.896 150.274C304.896 148.98 305.148 147.816 305.653 146.783C306.166 145.749 306.874 144.952 307.777 144.39C308.688 143.829 309.726 143.548 310.89 143.548C312.688 143.548 314.141 144.17 315.248 145.416C316.362 146.661 316.92 148.317 316.92 150.384V150.542C316.92 151.828 316.672 152.984 316.175 154.009C315.687 155.027 314.983 155.82 314.063 156.39C313.152 156.959 312.102 157.244 310.914 157.244C309.124 157.244 307.671 156.622 306.556 155.376C305.449 154.131 304.896 152.483 304.896 150.433V150.274ZM307.167 150.542C307.167 152.007 307.504 153.183 308.18 154.07C308.863 154.957 309.775 155.401 310.914 155.401C312.062 155.401 312.973 154.953 313.648 154.058C314.324 153.155 314.662 151.893 314.662 150.274C314.662 148.825 314.316 147.653 313.624 146.758C312.94 145.855 312.029 145.403 310.89 145.403C309.775 145.403 308.875 145.847 308.192 146.734C307.508 147.621 307.167 148.89 307.167 150.542ZM319.215 150.286C319.215 148.227 319.691 146.591 320.643 145.379C321.595 144.158 322.857 143.548 324.427 143.548C326.039 143.548 327.296 144.118 328.199 145.257L328.309 143.792H330.372V156.683C330.372 158.392 329.863 159.738 328.846 160.723C327.837 161.708 326.478 162.2 324.769 162.2C323.817 162.2 322.885 161.997 321.974 161.59C321.062 161.183 320.366 160.625 319.886 159.917L321.058 158.562C322.027 159.759 323.211 160.357 324.61 160.357C325.709 160.357 326.563 160.048 327.174 159.429C327.792 158.811 328.102 157.94 328.102 156.817V155.682C327.198 156.723 325.965 157.244 324.403 157.244C322.857 157.244 321.603 156.622 320.643 155.376C319.691 154.131 319.215 152.435 319.215 150.286ZM321.485 150.542C321.485 152.032 321.791 153.204 322.401 154.058C323.011 154.904 323.866 155.328 324.964 155.328C326.389 155.328 327.434 154.681 328.102 153.387V147.356C327.41 146.095 326.372 145.464 324.989 145.464C323.89 145.464 323.032 145.892 322.413 146.746C321.795 147.601 321.485 148.866 321.485 150.542ZM336.244 157H333.973V143.792H336.244V157ZM336.268 138.262H339.002L335.731 141.851H333.912L336.268 138.262ZM348.121 157C347.991 156.74 347.885 156.276 347.804 155.608C346.754 156.699 345.501 157.244 344.044 157.244C342.742 157.244 341.672 156.878 340.833 156.146C340.003 155.405 339.588 154.469 339.588 153.338C339.588 151.963 340.109 150.896 341.151 150.14C342.201 149.375 343.674 148.992 345.57 148.992H347.767V147.955C347.767 147.165 347.531 146.539 347.059 146.075C346.587 145.603 345.891 145.367 344.972 145.367C344.166 145.367 343.491 145.57 342.945 145.977C342.4 146.384 342.127 146.876 342.127 147.454H339.857C339.857 146.795 340.089 146.16 340.553 145.55C341.025 144.931 341.66 144.443 342.457 144.085C343.263 143.727 344.146 143.548 345.106 143.548C346.628 143.548 347.82 143.93 348.683 144.695C349.545 145.452 349.993 146.498 350.025 147.833V153.912C350.025 155.124 350.18 156.089 350.489 156.805V157H348.121ZM344.374 155.279C345.082 155.279 345.753 155.096 346.388 154.729C347.022 154.363 347.482 153.887 347.767 153.301V150.591H345.997C343.23 150.591 341.847 151.401 341.847 153.021C341.847 153.729 342.083 154.282 342.555 154.681C343.027 155.079 343.633 155.279 344.374 155.279Z" fill="#2368A7"/>
<path d="M11.3486 18.2329V27H6.22168V2.11719H15.9287C17.7972 2.11719 19.4378 2.45898 20.8506 3.14258C22.2747 3.82617 23.3685 4.80029 24.1318 6.06494C24.8952 7.3182 25.2769 8.74805 25.2769 10.3545C25.2769 12.7926 24.4395 14.7181 22.7646 16.1309C21.1012 17.5322 18.7941 18.2329 15.8433 18.2329H11.3486ZM11.3486 14.0801H15.9287C17.2845 14.0801 18.3156 13.7611 19.022 13.123C19.7397 12.485 20.0986 11.5736 20.0986 10.3887C20.0986 9.1696 19.7397 8.18408 19.022 7.43213C18.3042 6.68018 17.313 6.29281 16.0483 6.27002H11.3486V14.0801ZM38.8804 13.1401C38.2082 13.049 37.6157 13.0034 37.103 13.0034C35.2345 13.0034 34.0098 13.6357 33.4287 14.9004V27H28.4897V8.50879H33.1553L33.292 10.7134C34.2832 9.01579 35.6561 8.16699 37.4106 8.16699C37.9575 8.16699 38.4702 8.24105 38.9487 8.38916L38.8804 13.1401ZM39.8887 17.5835C39.8887 15.7492 40.2419 14.1143 40.9482 12.6787C41.6546 11.2432 42.6686 10.1323 43.9902 9.34619C45.3232 8.56006 46.867 8.16699 48.6216 8.16699C51.1167 8.16699 53.1504 8.93034 54.7227 10.457C56.3063 11.9837 57.1893 14.0573 57.3716 16.6777L57.4058 17.9424C57.4058 20.7793 56.6139 23.0579 55.0303 24.7783C53.4466 26.4873 51.3218 27.3418 48.6558 27.3418C45.9897 27.3418 43.8592 26.4873 42.2642 24.7783C40.6805 23.0693 39.8887 20.7451 39.8887 17.8057V17.5835ZM44.8276 17.9424C44.8276 19.6969 45.158 21.0413 45.8188 21.9756C46.4797 22.8984 47.4253 23.3599 48.6558 23.3599C49.8521 23.3599 50.7863 22.9041 51.4585 21.9927C52.1307 21.0698 52.4668 19.6001 52.4668 17.5835C52.4668 15.8631 52.1307 14.5301 51.4585 13.5845C50.7863 12.6388 49.8407 12.166 48.6216 12.166C47.4139 12.166 46.4797 12.6388 45.8188 13.5845C45.158 14.5187 44.8276 15.9714 44.8276 17.9424ZM59.73 17.6177C59.73 14.7808 60.4022 12.4964 61.7466 10.7646C63.1024 9.03288 64.9253 8.16699 67.2153 8.16699C69.2433 8.16699 70.8213 8.86198 71.9492 10.252L72.1543 8.50879H76.6318V26.3848C76.6318 28.0026 76.2616 29.4097 75.521 30.606C74.7918 31.8022 73.7607 32.7137 72.4277 33.3403C71.0947 33.967 69.5339 34.2803 67.7451 34.2803C66.3893 34.2803 65.0677 34.0068 63.7803 33.46C62.4928 32.9245 61.5187 32.2295 60.8579 31.375L63.0454 28.3672C64.2759 29.7458 65.7684 30.4351 67.5229 30.4351C68.8332 30.4351 69.8529 30.0819 70.582 29.3755C71.3112 28.6805 71.6758 27.6893 71.6758 26.4019V25.4106C70.5365 26.6981 69.0382 27.3418 67.1812 27.3418C64.9595 27.3418 63.1593 26.4759 61.7808 24.7441C60.4136 23.001 59.73 20.6938 59.73 17.8228V17.6177ZM64.6689 17.9766C64.6689 19.6514 65.005 20.9673 65.6772 21.9243C66.3494 22.87 67.2723 23.3428 68.4458 23.3428C69.9497 23.3428 71.0264 22.7788 71.6758 21.6509V13.875C71.015 12.7471 69.9497 12.1831 68.48 12.1831C67.2951 12.1831 66.3608 12.6673 65.6772 13.6357C65.005 14.6042 64.6689 16.0511 64.6689 17.9766ZM90.8335 13.1401C90.1613 13.049 89.5688 13.0034 89.0562 13.0034C87.1877 13.0034 85.9629 13.6357 85.3818 14.9004V27H80.4429V8.50879H85.1084L85.2451 10.7134C86.2363 9.01579 87.6092 8.16699 89.3638 8.16699C89.9106 8.16699 90.4233 8.24105 90.9019 8.38916L90.8335 13.1401ZM103.429 27C103.201 26.5557 103.036 26.0031 102.933 25.3423C101.737 26.6753 100.182 27.3418 98.2676 27.3418C96.4561 27.3418 94.9521 26.8177 93.7559 25.7695C92.571 24.7214 91.9785 23.3997 91.9785 21.8047C91.9785 19.8451 92.702 18.3411 94.1489 17.293C95.6073 16.2448 97.7093 15.715 100.455 15.7036H102.728V14.644C102.728 13.7896 102.506 13.106 102.062 12.5933C101.629 12.0806 100.939 11.8242 99.9937 11.8242C99.1619 11.8242 98.5068 12.0236 98.0283 12.4224C97.5612 12.8211 97.3276 13.368 97.3276 14.063H92.3887C92.3887 12.992 92.7191 12.0008 93.3799 11.0894C94.0407 10.1779 94.9749 9.46582 96.1826 8.95312C97.3903 8.42904 98.7461 8.16699 100.25 8.16699C102.529 8.16699 104.334 8.74235 105.667 9.89307C107.012 11.0324 107.684 12.6388 107.684 14.7124V22.7275C107.695 24.4821 107.94 25.8094 108.419 26.7095V27H103.429ZM99.3442 23.5649C100.073 23.5649 100.746 23.4054 101.361 23.0864C101.976 22.756 102.432 22.3174 102.728 21.7705V18.5918H100.882C98.41 18.5918 97.0941 19.4463 96.9346 21.1553L96.9175 21.4458C96.9175 22.061 97.134 22.568 97.5669 22.9668C97.9998 23.3656 98.5923 23.5649 99.3442 23.5649ZM116.109 8.50879L116.263 10.5767C117.573 8.97021 119.345 8.16699 121.578 8.16699C123.959 8.16699 125.594 9.10693 126.483 10.9868C127.782 9.10693 129.633 8.16699 132.037 8.16699C134.042 8.16699 135.535 8.75374 136.515 9.92725C137.494 11.0894 137.984 12.8439 137.984 15.1909V27H133.028V15.208C133.028 14.1598 132.823 13.3965 132.413 12.918C132.003 12.4281 131.279 12.1831 130.243 12.1831C128.762 12.1831 127.736 12.8895 127.167 14.3022L127.184 27H122.245V15.2251C122.245 14.1541 122.034 13.3794 121.612 12.9009C121.191 12.4224 120.473 12.1831 119.459 12.1831C118.058 12.1831 117.044 12.7642 116.417 13.9263V27H111.478V8.50879H116.109ZM152.511 27C152.283 26.5557 152.118 26.0031 152.015 25.3423C150.819 26.6753 149.264 27.3418 147.35 27.3418C145.538 27.3418 144.034 26.8177 142.838 25.7695C141.653 24.7214 141.061 23.3997 141.061 21.8047C141.061 19.8451 141.784 18.3411 143.231 17.293C144.689 16.2448 146.791 15.715 149.537 15.7036H151.81V14.644C151.81 13.7896 151.588 13.106 151.144 12.5933C150.711 12.0806 150.021 11.8242 149.076 11.8242C148.244 11.8242 147.589 12.0236 147.11 12.4224C146.643 12.8211 146.41 13.368 146.41 14.063H141.471C141.471 12.992 141.801 12.0008 142.462 11.0894C143.123 10.1779 144.057 9.46582 145.265 8.95312C146.472 8.42904 147.828 8.16699 149.332 8.16699C151.611 8.16699 153.417 8.74235 154.75 9.89307C156.094 11.0324 156.766 12.6388 156.766 14.7124V22.7275C156.778 24.4821 157.022 25.8094 157.501 26.7095V27H152.511ZM148.426 23.5649C149.155 23.5649 149.828 23.4054 150.443 23.0864C151.058 22.756 151.514 22.3174 151.81 21.7705V18.5918H149.964C147.492 18.5918 146.176 19.4463 146.017 21.1553L146 21.4458C146 22.061 146.216 22.568 146.649 22.9668C147.082 23.3656 147.674 23.5649 148.426 23.5649ZM168.507 17.6177C168.507 14.7352 169.151 12.4395 170.438 10.7305C171.737 9.02148 173.508 8.16699 175.753 8.16699C177.553 8.16699 179.04 8.83919 180.213 10.1836V0.75H185.169V27H180.709L180.47 25.0347C179.239 26.5728 177.656 27.3418 175.719 27.3418C173.543 27.3418 171.794 26.4873 170.472 24.7783C169.162 23.0579 168.507 20.6711 168.507 17.6177ZM173.446 17.9766C173.446 19.7083 173.748 21.0356 174.352 21.9585C174.955 22.8813 175.833 23.3428 176.983 23.3428C178.51 23.3428 179.587 22.6991 180.213 21.4116V14.1143C179.598 12.8268 178.533 12.1831 177.018 12.1831C174.636 12.1831 173.446 14.1143 173.446 17.9766ZM197.508 27.3418C194.797 27.3418 192.586 26.5101 190.877 24.8467C189.18 23.1833 188.331 20.9673 188.331 18.1987V17.7202C188.331 15.8631 188.69 14.2054 189.408 12.7471C190.125 11.2773 191.139 10.1494 192.45 9.36328C193.771 8.56576 195.275 8.16699 196.961 8.16699C199.491 8.16699 201.479 8.96452 202.926 10.5596C204.384 12.1546 205.113 14.4162 205.113 17.3442V19.3608H193.338C193.498 20.5685 193.976 21.5369 194.774 22.2661C195.583 22.9953 196.603 23.3599 197.833 23.3599C199.736 23.3599 201.222 22.6706 202.293 21.292L204.72 24.0093C203.98 25.0575 202.977 25.8778 201.712 26.4702C200.448 27.0513 199.046 27.3418 197.508 27.3418ZM196.944 12.166C195.965 12.166 195.167 12.4964 194.552 13.1572C193.948 13.818 193.561 14.7637 193.39 15.9941H200.26V15.6011C200.237 14.5073 199.941 13.6642 199.371 13.0718C198.801 12.4679 197.993 12.166 196.944 12.166ZM236.507 18.7114C236.314 21.3888 235.322 23.4966 233.534 25.0347C231.756 26.5728 229.409 27.3418 226.493 27.3418C223.303 27.3418 220.79 26.2708 218.956 24.1289C217.133 21.9756 216.222 19.0247 216.222 15.2764V13.7554C216.222 11.3628 216.643 9.25505 217.486 7.43213C218.329 5.60921 219.531 4.21354 221.092 3.24512C222.665 2.2653 224.487 1.77539 226.561 1.77539C229.432 1.77539 231.745 2.54443 233.5 4.08252C235.254 5.62061 236.268 7.77962 236.542 10.5596H231.415C231.289 8.95312 230.839 7.79102 230.064 7.07324C229.301 6.34408 228.133 5.97949 226.561 5.97949C224.852 5.97949 223.57 6.59473 222.716 7.8252C221.873 9.04427 221.44 10.9412 221.417 13.5161V15.396C221.417 18.0848 221.821 20.0501 222.63 21.292C223.451 22.5339 224.738 23.1548 226.493 23.1548C228.076 23.1548 229.256 22.7959 230.03 22.0781C230.816 21.349 231.266 20.2267 231.38 18.7114H236.507ZM244.762 27H239.806V8.50879H244.762V27ZM239.515 3.72363C239.515 2.98307 239.76 2.37354 240.25 1.89502C240.751 1.4165 241.429 1.17725 242.284 1.17725C243.127 1.17725 243.799 1.4165 244.3 1.89502C244.802 2.37354 245.052 2.98307 245.052 3.72363C245.052 4.47559 244.796 5.09082 244.283 5.56934C243.782 6.04785 243.115 6.28711 242.284 6.28711C241.452 6.28711 240.78 6.04785 240.267 5.56934C239.766 5.09082 239.515 4.47559 239.515 3.72363ZM265.509 17.9253C265.509 20.8875 264.876 23.2004 263.612 24.8638C262.347 26.5158 260.581 27.3418 258.314 27.3418C256.309 27.3418 254.708 26.5728 253.512 25.0347L253.29 27H248.846V0.75H253.785V10.1665C254.924 8.8335 256.423 8.16699 258.28 8.16699C260.536 8.16699 262.302 8.9987 263.578 10.6621C264.865 12.3141 265.509 14.644 265.509 17.6519V17.9253ZM260.57 17.5664C260.57 15.6979 260.274 14.3364 259.681 13.4819C259.089 12.616 258.206 12.1831 257.032 12.1831C255.46 12.1831 254.378 12.8268 253.785 14.1143V21.4116C254.389 22.7104 255.483 23.3599 257.066 23.3599C258.661 23.3599 259.71 22.5737 260.211 21.0015C260.45 20.2495 260.57 19.1045 260.57 17.5664ZM277.079 27.3418C274.367 27.3418 272.157 26.5101 270.448 24.8467C268.75 23.1833 267.901 20.9673 267.901 18.1987V17.7202C267.901 15.8631 268.26 14.2054 268.978 12.7471C269.696 11.2773 270.71 10.1494 272.02 9.36328C273.342 8.56576 274.846 8.16699 276.532 8.16699C279.061 8.16699 281.049 8.96452 282.496 10.5596C283.954 12.1546 284.684 14.4162 284.684 17.3442V19.3608H272.909C273.068 20.5685 273.547 21.5369 274.344 22.2661C275.153 22.9953 276.173 23.3599 277.403 23.3599C279.306 23.3599 280.793 22.6706 281.864 21.292L284.291 24.0093C283.55 25.0575 282.547 25.8778 281.283 26.4702C280.018 27.0513 278.617 27.3418 277.079 27.3418ZM276.515 12.166C275.535 12.166 274.737 12.4964 274.122 13.1572C273.518 13.818 273.131 14.7637 272.96 15.9941H279.83V15.6011C279.807 14.5073 279.511 13.6642 278.941 13.0718C278.372 12.4679 277.563 12.166 276.515 12.166ZM297.894 13.1401C297.222 13.049 296.629 13.0034 296.117 13.0034C294.248 13.0034 293.023 13.6357 292.442 14.9004V27H287.503V8.50879H292.169L292.306 10.7134C293.297 9.01579 294.67 8.16699 296.424 8.16699C296.971 8.16699 297.484 8.24105 297.962 8.38916L297.894 13.1401ZM310.301 21.8901C310.301 21.2863 309.999 20.8135 309.396 20.4717C308.803 20.1185 307.846 19.8052 306.524 19.5317C302.127 18.6089 299.928 16.7404 299.928 13.9263C299.928 12.2856 300.606 10.9185 301.961 9.82471C303.329 8.71956 305.112 8.16699 307.311 8.16699C309.658 8.16699 311.532 8.71956 312.933 9.82471C314.346 10.9299 315.052 12.3654 315.052 14.1313H310.113C310.113 13.425 309.885 12.8439 309.43 12.3882C308.974 11.9211 308.262 11.6875 307.293 11.6875C306.462 11.6875 305.818 11.8755 305.362 12.2515C304.907 12.6274 304.679 13.106 304.679 13.687C304.679 14.2339 304.935 14.6782 305.448 15.02C305.972 15.3504 306.849 15.641 308.08 15.8916C309.31 16.1309 310.347 16.4043 311.19 16.7119C313.799 17.6689 315.104 19.3267 315.104 21.6851C315.104 23.3713 314.38 24.7384 312.933 25.7866C311.486 26.8234 309.618 27.3418 307.328 27.3418C305.778 27.3418 304.4 27.0684 303.192 26.5215C301.996 25.9632 301.056 25.2056 300.372 24.2485C299.688 23.2801 299.347 22.2376 299.347 21.1211H304.029C304.075 21.9984 304.4 22.6706 305.003 23.1377C305.607 23.6048 306.416 23.8384 307.43 23.8384C308.376 23.8384 309.088 23.6618 309.566 23.3086C310.056 22.944 310.301 22.4712 310.301 21.8901ZM326.81 27.3418C324.098 27.3418 321.888 26.5101 320.179 24.8467C318.482 23.1833 317.633 20.9673 317.633 18.1987V17.7202C317.633 15.8631 317.992 14.2054 318.709 12.7471C319.427 11.2773 320.441 10.1494 321.751 9.36328C323.073 8.56576 324.577 8.16699 326.263 8.16699C328.792 8.16699 330.781 8.96452 332.228 10.5596C333.686 12.1546 334.415 14.4162 334.415 17.3442V19.3608H322.64C322.8 20.5685 323.278 21.5369 324.076 22.2661C324.885 22.9953 325.904 23.3599 327.135 23.3599C329.037 23.3599 330.524 22.6706 331.595 21.292L334.022 24.0093C333.281 25.0575 332.279 25.8778 331.014 26.4702C329.75 27.0513 328.348 27.3418 326.81 27.3418ZM326.246 12.166C325.266 12.166 324.469 12.4964 323.854 13.1572C323.25 13.818 322.862 14.7637 322.691 15.9941H329.562V15.6011C329.539 14.5073 329.243 13.6642 328.673 13.0718C328.103 12.4679 327.294 12.166 326.246 12.166ZM336.517 17.6177C336.517 14.7808 337.189 12.4964 338.534 10.7646C339.889 9.03288 341.712 8.16699 344.002 8.16699C346.03 8.16699 347.608 8.86198 348.736 10.252L348.941 8.50879H353.419V26.3848C353.419 28.0026 353.049 29.4097 352.308 30.606C351.579 31.8022 350.548 32.7137 349.215 33.3403C347.882 33.967 346.321 34.2803 344.532 34.2803C343.176 34.2803 341.855 34.0068 340.567 33.46C339.28 32.9245 338.306 32.2295 337.645 31.375L339.833 28.3672C341.063 29.7458 342.556 30.4351 344.31 30.4351C345.62 30.4351 346.64 30.0819 347.369 29.3755C348.098 28.6805 348.463 27.6893 348.463 26.4019V25.4106C347.324 26.6981 345.825 27.3418 343.968 27.3418C341.747 27.3418 339.946 26.4759 338.568 24.7441C337.201 23.001 336.517 20.6938 336.517 17.8228V17.6177ZM341.456 17.9766C341.456 19.6514 341.792 20.9673 342.464 21.9243C343.137 22.87 344.059 23.3428 345.233 23.3428C346.737 23.3428 347.813 22.7788 348.463 21.6509V13.875C347.802 12.7471 346.737 12.1831 345.267 12.1831C344.082 12.1831 343.148 12.6673 342.464 13.6357C341.792 14.6042 341.456 16.0511 341.456 17.9766ZM368.304 25.1201C367.085 26.6012 365.399 27.3418 363.246 27.3418C361.263 27.3418 359.748 26.7721 358.7 25.6328C357.663 24.4935 357.133 22.8244 357.11 20.6255V8.50879H362.049V20.4546C362.049 22.38 362.927 23.3428 364.681 23.3428C366.356 23.3428 367.507 22.7617 368.133 21.5996V8.50879H373.089V27H368.441L368.304 25.1201ZM387.206 13.1401C386.533 13.049 385.941 13.0034 385.428 13.0034C383.56 13.0034 382.335 13.6357 381.754 14.9004V27H376.815V8.50879H381.48L381.617 10.7134C382.608 9.01579 383.981 8.16699 385.736 8.16699C386.283 8.16699 386.795 8.24105 387.274 8.38916L387.206 13.1401ZM394.811 27H389.854V8.50879H394.811V27ZM389.564 3.72363C389.564 2.98307 389.809 2.37354 390.299 1.89502C390.8 1.4165 391.478 1.17725 392.333 1.17725C393.176 1.17725 393.848 1.4165 394.349 1.89502C394.85 2.37354 395.101 2.98307 395.101 3.72363C395.101 4.47559 394.845 5.09082 394.332 5.56934C393.831 6.04785 393.164 6.28711 392.333 6.28711C391.501 6.28711 390.829 6.04785 390.316 5.56934C389.815 5.09082 389.564 4.47559 389.564 3.72363ZM398.126 17.6177C398.126 14.7352 398.77 12.4395 400.057 10.7305C401.356 9.02148 403.128 8.16699 405.372 8.16699C407.172 8.16699 408.659 8.83919 409.833 10.1836V0.75H414.789V27H410.328L410.089 25.0347C408.858 26.5728 407.275 27.3418 405.338 27.3418C403.162 27.3418 401.413 26.4873 400.091 24.7783C398.781 23.0579 398.126 20.6711 398.126 17.6177ZM403.065 17.9766C403.065 19.7083 403.367 21.0356 403.971 21.9585C404.575 22.8813 405.452 23.3428 406.603 23.3428C408.129 23.3428 409.206 22.6991 409.833 21.4116V14.1143C409.217 12.8268 408.152 12.1831 406.637 12.1831C404.256 12.1831 403.065 14.1143 403.065 17.9766ZM429.332 27C429.104 26.5557 428.939 26.0031 428.836 25.3423C427.64 26.6753 426.085 27.3418 424.171 27.3418C422.359 27.3418 420.855 26.8177 419.659 25.7695C418.474 24.7214 417.882 23.3997 417.882 21.8047C417.882 19.8451 418.605 18.3411 420.052 17.293C421.511 16.2448 423.613 15.715 426.358 15.7036H428.631V14.644C428.631 13.7896 428.409 13.106 427.965 12.5933C427.532 12.0806 426.843 11.8242 425.897 11.8242C425.065 11.8242 424.41 12.0236 423.932 12.4224C423.465 12.8211 423.231 13.368 423.231 14.063H418.292C418.292 12.992 418.622 12.0008 419.283 11.0894C419.944 10.1779 420.878 9.46582 422.086 8.95312C423.294 8.42904 424.649 8.16699 426.153 8.16699C428.432 8.16699 430.238 8.74235 431.571 9.89307C432.915 11.0324 433.587 12.6388 433.587 14.7124V22.7275C433.599 24.4821 433.844 25.8094 434.322 26.7095V27H429.332ZM425.248 23.5649C425.977 23.5649 426.649 23.4054 427.264 23.0864C427.879 22.756 428.335 22.3174 428.631 21.7705V18.5918H426.786C424.313 18.5918 422.997 19.4463 422.838 21.1553L422.821 21.4458C422.821 22.061 423.037 22.568 423.47 22.9668C423.903 23.3656 424.496 23.5649 425.248 23.5649ZM436.612 17.6177C436.612 14.7352 437.256 12.4395 438.543 10.7305C439.842 9.02148 441.614 8.16699 443.858 8.16699C445.659 8.16699 447.145 8.83919 448.319 10.1836V0.75H453.275V27H448.814L448.575 25.0347C447.345 26.5728 445.761 27.3418 443.824 27.3418C441.648 27.3418 439.899 26.4873 438.578 24.7783C437.267 23.0579 436.612 20.6711 436.612 17.6177ZM441.551 17.9766C441.551 19.7083 441.853 21.0356 442.457 21.9585C443.061 22.8813 443.938 23.3428 445.089 23.3428C446.616 23.3428 447.692 22.6991 448.319 21.4116V14.1143C447.704 12.8268 446.638 12.1831 445.123 12.1831C442.742 12.1831 441.551 14.1143 441.551 17.9766ZM14.4077 68.3418C11.6961 68.3418 9.48584 67.5101 7.77686 65.8467C6.07926 64.1833 5.23047 61.9673 5.23047 59.1987V58.7202C5.23047 56.8631 5.58936 55.2054 6.30713 53.7471C7.0249 52.2773 8.0389 51.1494 9.34912 50.3633C10.6707 49.5658 12.1746 49.167 13.8608 49.167C16.3901 49.167 18.3783 49.9645 19.8252 51.5596C21.2835 53.1546 22.0127 55.4162 22.0127 58.3442V60.3608H10.2378C10.3973 61.5685 10.8758 62.5369 11.6733 63.2661C12.4823 63.9953 13.502 64.3599 14.7324 64.3599C16.6351 64.3599 18.1219 63.6706 19.1929 62.292L21.6196 65.0093C20.8791 66.0575 19.8765 66.8778 18.6118 67.4702C17.3472 68.0513 15.9458 68.3418 14.4077 68.3418ZM13.8438 53.166C12.8639 53.166 12.0664 53.4964 11.4512 54.1572C10.8473 54.818 10.46 55.7637 10.2891 56.9941H17.1592V56.6011C17.1364 55.5073 16.8402 54.6642 16.2705 54.0718C15.7008 53.4679 14.8919 53.166 13.8438 53.166ZM29.4639 49.5088L29.6177 51.5767C30.9279 49.9702 32.6995 49.167 34.9326 49.167C37.3138 49.167 38.9487 50.1069 39.8374 51.9868C41.1362 50.1069 42.9876 49.167 45.3916 49.167C47.3968 49.167 48.8893 49.7537 49.8691 50.9272C50.849 52.0894 51.3389 53.8439 51.3389 56.1909V68H46.3828V56.208C46.3828 55.1598 46.1777 54.3965 45.7676 53.918C45.3574 53.4281 44.634 53.1831 43.5972 53.1831C42.116 53.1831 41.0907 53.8895 40.521 55.3022L40.5381 68H35.5991V56.2251C35.5991 55.1541 35.3883 54.3794 34.9668 53.9009C34.5452 53.4224 33.8275 53.1831 32.8135 53.1831C31.4121 53.1831 30.3981 53.7642 29.7715 54.9263V68H24.8325V49.5088H29.4639ZM71.7954 58.9253C71.7954 61.7736 71.146 64.0579 69.8472 65.7783C68.5597 67.4873 66.8166 68.3418 64.6177 68.3418C62.7492 68.3418 61.2396 67.6924 60.0889 66.3936V75.1094H55.1499V49.5088H59.73L59.9009 51.3203C61.0972 49.8848 62.658 49.167 64.5835 49.167C66.8621 49.167 68.6338 50.0101 69.8984 51.6963C71.1631 53.3825 71.7954 55.7067 71.7954 58.6689V58.9253ZM66.8564 58.5664C66.8564 56.846 66.5488 55.5187 65.9336 54.5845C65.3298 53.6502 64.4468 53.1831 63.2847 53.1831C61.7352 53.1831 60.6699 53.7756 60.0889 54.9604V62.5312C60.6927 63.7503 61.7694 64.3599 63.3188 64.3599C65.6772 64.3599 66.8564 62.4287 66.8564 58.5664ZM85.2622 54.1401C84.59 54.049 83.9976 54.0034 83.4849 54.0034C81.6164 54.0034 80.3916 54.6357 79.8105 55.9004V68H74.8716V49.5088H79.5371L79.6738 51.7134C80.665 50.0158 82.0379 49.167 83.7925 49.167C84.3394 49.167 84.8521 49.241 85.3306 49.3892L85.2622 54.1401ZM95.8237 68.3418C93.1121 68.3418 90.9019 67.5101 89.1929 65.8467C87.4953 64.1833 86.6465 61.9673 86.6465 59.1987V58.7202C86.6465 56.8631 87.0054 55.2054 87.7231 53.7471C88.4409 52.2773 89.4549 51.1494 90.7651 50.3633C92.0868 49.5658 93.5907 49.167 95.2769 49.167C97.8062 49.167 99.7943 49.9645 101.241 51.5596C102.7 53.1546 103.429 55.4162 103.429 58.3442V60.3608H91.6538C91.8133 61.5685 92.2918 62.5369 93.0894 63.2661C93.8983 63.9953 94.918 64.3599 96.1484 64.3599C98.0511 64.3599 99.5379 63.6706 100.609 62.292L103.036 65.0093C102.295 66.0575 101.292 66.8778 100.028 67.4702C98.7632 68.0513 97.3618 68.3418 95.8237 68.3418ZM95.2598 53.166C94.2799 53.166 93.4824 53.4964 92.8672 54.1572C92.2633 54.818 91.876 55.7637 91.7051 56.9941H98.5752V56.6011C98.5524 55.5073 98.2562 54.6642 97.6865 54.0718C97.1169 53.4679 96.3079 53.166 95.2598 53.166ZM116.263 62.8901C116.263 62.2863 115.961 61.8135 115.357 61.4717C114.765 61.1185 113.808 60.8052 112.486 60.5317C108.089 59.6089 105.89 57.7404 105.89 54.9263C105.89 53.2856 106.568 51.9185 107.923 50.8247C109.291 49.7196 111.074 49.167 113.272 49.167C115.619 49.167 117.494 49.7196 118.895 50.8247C120.308 51.9299 121.014 53.3654 121.014 55.1313H116.075C116.075 54.425 115.847 53.8439 115.392 53.3882C114.936 52.9211 114.224 52.6875 113.255 52.6875C112.424 52.6875 111.78 52.8755 111.324 53.2515C110.868 53.6274 110.641 54.106 110.641 54.687C110.641 55.2339 110.897 55.6782 111.41 56.02C111.934 56.3504 112.811 56.641 114.042 56.8916C115.272 57.1309 116.309 57.4043 117.152 57.7119C119.761 58.6689 121.065 60.3267 121.065 62.6851C121.065 64.3713 120.342 65.7384 118.895 66.7866C117.448 67.8234 115.58 68.3418 113.29 68.3418C111.74 68.3418 110.361 68.0684 109.154 67.5215C107.958 66.9632 107.018 66.2056 106.334 65.2485C105.65 64.2801 105.309 63.2376 105.309 62.1211H109.991C110.037 62.9984 110.361 63.6706 110.965 64.1377C111.569 64.6048 112.378 64.8384 113.392 64.8384C114.338 64.8384 115.05 64.6618 115.528 64.3086C116.018 63.944 116.263 63.4712 116.263 62.8901ZM134.977 68C134.749 67.5557 134.583 67.0031 134.481 66.3423C133.285 67.6753 131.729 68.3418 129.815 68.3418C128.004 68.3418 126.5 67.8177 125.304 66.7695C124.119 65.7214 123.526 64.3997 123.526 62.8047C123.526 60.8451 124.25 59.3411 125.697 58.293C127.155 57.2448 129.257 56.715 132.003 56.7036H134.276V55.644C134.276 54.7896 134.054 54.106 133.609 53.5933C133.176 53.0806 132.487 52.8242 131.542 52.8242C130.71 52.8242 130.055 53.0236 129.576 53.4224C129.109 53.8211 128.875 54.368 128.875 55.063H123.937C123.937 53.992 124.267 53.0008 124.928 52.0894C125.589 51.1779 126.523 50.4658 127.73 49.9531C128.938 49.429 130.294 49.167 131.798 49.167C134.076 49.167 135.882 49.7424 137.215 50.8931C138.56 52.0324 139.232 53.6388 139.232 55.7124V63.7275C139.243 65.4821 139.488 66.8094 139.967 67.7095V68H134.977ZM130.892 64.5649C131.621 64.5649 132.293 64.4054 132.909 64.0864C133.524 63.756 133.98 63.3174 134.276 62.7705V59.5918H132.43C129.958 59.5918 128.642 60.4463 128.482 62.1553L128.465 62.4458C128.465 63.061 128.682 63.568 129.115 63.9668C129.548 64.3656 130.14 64.5649 130.892 64.5649ZM153.417 54.1401C152.744 54.049 152.152 54.0034 151.639 54.0034C149.771 54.0034 148.546 54.6357 147.965 55.9004V68H143.026V49.5088H147.691L147.828 51.7134C148.819 50.0158 150.192 49.167 151.947 49.167C152.494 49.167 153.006 49.241 153.485 49.3892L153.417 54.1401ZM161.021 68H156.065V49.5088H161.021V68ZM155.775 44.7236C155.775 43.9831 156.02 43.3735 156.51 42.895C157.011 42.4165 157.689 42.1772 158.543 42.1772C159.387 42.1772 160.059 42.4165 160.56 42.895C161.061 43.3735 161.312 43.9831 161.312 44.7236C161.312 45.4756 161.056 46.0908 160.543 46.5693C160.042 47.0479 159.375 47.2871 158.543 47.2871C157.712 47.2871 157.04 47.0479 156.527 46.5693C156.026 46.0908 155.775 45.4756 155.775 44.7236ZM175.821 68C175.593 67.5557 175.428 67.0031 175.326 66.3423C174.129 67.6753 172.574 68.3418 170.66 68.3418C168.849 68.3418 167.345 67.8177 166.148 66.7695C164.964 65.7214 164.371 64.3997 164.371 62.8047C164.371 60.8451 165.095 59.3411 166.542 58.293C168 57.2448 170.102 56.715 172.848 56.7036H175.121V55.644C175.121 54.7896 174.898 54.106 174.454 53.5933C174.021 53.0806 173.332 52.8242 172.386 52.8242C171.555 52.8242 170.899 53.0236 170.421 53.4224C169.954 53.8211 169.72 54.368 169.72 55.063H164.781C164.781 53.992 165.112 53.0008 165.772 52.0894C166.433 51.1779 167.368 50.4658 168.575 49.9531C169.783 49.429 171.139 49.167 172.643 49.167C174.921 49.167 176.727 49.7424 178.06 50.8931C179.404 52.0324 180.077 53.6388 180.077 55.7124V63.7275C180.088 65.4821 180.333 66.8094 180.812 67.7095V68H175.821ZM171.737 64.5649C172.466 64.5649 173.138 64.4054 173.753 64.0864C174.369 63.756 174.824 63.3174 175.121 62.7705V59.5918H173.275C170.803 59.5918 169.487 60.4463 169.327 62.1553L169.31 62.4458C169.31 63.061 169.527 63.568 169.959 63.9668C170.392 64.3656 170.985 64.5649 171.737 64.5649ZM189.083 68H184.127V41.75H189.083V68Z" fill="#00498D"/>
</svg>
