<svg width="397" height="30" viewBox="0 0 397 30" fill="none" xmlns="http://www.w3.org/2000/svg">
<path d="M11.9639 17.4043C11.9639 16.5742 11.6709 15.9395 11.085 15.5C10.499 15.0508 9.44434 14.582 7.9209 14.0938C6.39746 13.5957 5.19141 13.1074 4.30273 12.6289C1.88086 11.3203 0.669922 9.55762 0.669922 7.34082C0.669922 6.18848 0.992188 5.16309 1.63672 4.26465C2.29102 3.35645 3.22363 2.64844 4.43457 2.14062C5.65527 1.63281 7.02246 1.37891 8.53613 1.37891C10.0596 1.37891 11.417 1.65723 12.6084 2.21387C13.7998 2.76074 14.7227 3.53711 15.377 4.54297C16.041 5.54883 16.373 6.69141 16.373 7.9707H11.9785C11.9785 6.99414 11.6709 6.2373 11.0557 5.7002C10.4404 5.15332 9.57617 4.87988 8.46289 4.87988C7.38867 4.87988 6.55371 5.10938 5.95801 5.56836C5.3623 6.01758 5.06445 6.61328 5.06445 7.35547C5.06445 8.04883 5.41113 8.62988 6.10449 9.09863C6.80762 9.56738 7.83789 10.0068 9.19531 10.417C11.6953 11.1689 13.5166 12.1016 14.6592 13.2148C15.8018 14.3281 16.373 15.7148 16.373 17.375C16.373 19.2207 15.6748 20.6709 14.2783 21.7256C12.8818 22.7705 11.002 23.293 8.63867 23.293C6.99805 23.293 5.50391 22.9951 4.15625 22.3994C2.80859 21.7939 1.77832 20.9688 1.06543 19.9238C0.362305 18.8789 0.0107422 17.668 0.0107422 16.291H4.41992C4.41992 18.6445 5.82617 19.8213 8.63867 19.8213C9.68359 19.8213 10.499 19.6113 11.085 19.1914C11.6709 18.7617 11.9639 18.166 11.9639 17.4043ZM18.4238 14.9287C18.4238 13.3564 18.7266 11.9551 19.332 10.7246C19.9375 9.49414 20.8066 8.54199 21.9395 7.86816C23.082 7.19434 24.4053 6.85742 25.9092 6.85742C28.0479 6.85742 29.791 7.51172 31.1387 8.82031C32.4961 10.1289 33.2529 11.9062 33.4092 14.1523L33.4385 15.2363C33.4385 17.668 32.7598 19.6211 31.4023 21.0957C30.0449 22.5605 28.2236 23.293 25.9385 23.293C23.6533 23.293 21.8271 22.5605 20.46 21.0957C19.1025 19.6309 18.4238 17.6387 18.4238 15.1191V14.9287ZM22.6572 15.2363C22.6572 16.7402 22.9404 17.8926 23.5068 18.6934C24.0732 19.4844 24.8838 19.8799 25.9385 19.8799C26.9639 19.8799 27.7646 19.4893 28.3408 18.708C28.917 17.917 29.2051 16.6572 29.2051 14.9287C29.2051 13.4541 28.917 12.3115 28.3408 11.501C27.7646 10.6904 26.9541 10.2852 25.9092 10.2852C24.874 10.2852 24.0732 10.6904 23.5068 11.501C22.9404 12.3018 22.6572 13.5469 22.6572 15.2363ZM40.5137 23H36.2656V0.5H40.5137V23ZM53.5068 21.3887C52.4619 22.6582 51.0166 23.293 49.1709 23.293C47.4717 23.293 46.1729 22.8047 45.2744 21.8281C44.3857 20.8516 43.9316 19.4209 43.9121 17.5361V7.15039H48.1455V17.3896C48.1455 19.04 48.8975 19.8652 50.4014 19.8652C51.8369 19.8652 52.8232 19.3672 53.3604 18.3711V7.15039H57.6084V23H53.624L53.5068 21.3887ZM67.3936 19.8799C68.1748 19.8799 68.8096 19.665 69.2979 19.2354C69.7861 18.8057 70.04 18.2344 70.0596 17.5215H74.0293C74.0195 18.5957 73.7266 19.582 73.1504 20.4805C72.5742 21.3691 71.7832 22.0625 70.7773 22.5605C69.7812 23.0488 68.6777 23.293 67.4668 23.293C65.2012 23.293 63.4141 22.5752 62.1055 21.1396C60.7969 19.6943 60.1426 17.7021 60.1426 15.1631V14.8848C60.1426 12.4434 60.792 10.4951 62.0908 9.04004C63.3896 7.58496 65.1719 6.85742 67.4375 6.85742C69.4199 6.85742 71.0068 7.42383 72.1982 8.55664C73.3994 9.67969 74.0098 11.1787 74.0293 13.0537H70.0596C70.04 12.2334 69.7861 11.5693 69.2979 11.0615C68.8096 10.5439 68.165 10.2852 67.3643 10.2852C66.3779 10.2852 65.6309 10.6465 65.123 11.3691C64.625 12.082 64.376 13.2441 64.376 14.8555V15.2949C64.376 16.9258 64.625 18.0977 65.123 18.8105C65.6211 19.5234 66.3779 19.8799 67.3936 19.8799ZM80.9141 23H76.666V7.15039H80.9141V23ZM76.417 3.04883C76.417 2.41406 76.627 1.8916 77.0469 1.48145C77.4766 1.07129 78.0576 0.866211 78.79 0.866211C79.5127 0.866211 80.0889 1.07129 80.5186 1.48145C80.9482 1.8916 81.1631 2.41406 81.1631 3.04883C81.1631 3.69336 80.9434 4.2207 80.5039 4.63086C80.0742 5.04102 79.5029 5.24609 78.79 5.24609C78.0771 5.24609 77.501 5.04102 77.0615 4.63086C76.6318 4.2207 76.417 3.69336 76.417 3.04883ZM83.7559 14.9287C83.7559 13.3564 84.0586 11.9551 84.6641 10.7246C85.2695 9.49414 86.1387 8.54199 87.2715 7.86816C88.4141 7.19434 89.7373 6.85742 91.2412 6.85742C93.3799 6.85742 95.123 7.51172 96.4707 8.82031C97.8281 10.1289 98.585 11.9062 98.7412 14.1523L98.7705 15.2363C98.7705 17.668 98.0918 19.6211 96.7344 21.0957C95.377 22.5605 93.5557 23.293 91.2705 23.293C88.9854 23.293 87.1592 22.5605 85.792 21.0957C84.4346 19.6309 83.7559 17.6387 83.7559 15.1191V14.9287ZM87.9893 15.2363C87.9893 16.7402 88.2725 17.8926 88.8389 18.6934C89.4053 19.4844 90.2158 19.8799 91.2705 19.8799C92.2959 19.8799 93.0967 19.4893 93.6729 18.708C94.249 17.917 94.5371 16.6572 94.5371 14.9287C94.5371 13.4541 94.249 12.3115 93.6729 11.501C93.0967 10.6904 92.2861 10.2852 91.2412 10.2852C90.2061 10.2852 89.4053 10.6904 88.8389 11.501C88.2725 12.3018 87.9893 13.5469 87.9893 15.2363ZM105.274 7.15039L105.406 8.98145C106.539 7.56543 108.058 6.85742 109.962 6.85742C111.642 6.85742 112.892 7.35059 113.712 8.33691C114.532 9.32324 114.952 10.7979 114.972 12.7607V23H110.738V12.8633C110.738 11.9648 110.543 11.3154 110.152 10.915C109.762 10.5049 109.112 10.2998 108.204 10.2998C107.013 10.2998 106.119 10.8076 105.523 11.8232V23H101.29V7.15039H105.274ZM125.489 23.293C123.165 23.293 121.271 22.5801 119.806 21.1543C118.351 19.7285 117.623 17.8291 117.623 15.4561V15.0459C117.623 13.4541 117.931 12.0332 118.546 10.7832C119.161 9.52344 120.03 8.55664 121.153 7.88281C122.286 7.19922 123.575 6.85742 125.021 6.85742C127.188 6.85742 128.893 7.54102 130.133 8.9082C131.383 10.2754 132.008 12.2139 132.008 14.7236V16.4521H121.915C122.052 17.4873 122.462 18.3174 123.146 18.9424C123.839 19.5674 124.713 19.8799 125.768 19.8799C127.398 19.8799 128.673 19.2891 129.591 18.1074L131.671 20.4365C131.036 21.335 130.177 22.0381 129.093 22.5459C128.009 23.0439 126.808 23.293 125.489 23.293ZM125.006 10.2852C124.166 10.2852 123.482 10.5684 122.955 11.1348C122.438 11.7012 122.105 12.5117 121.959 13.5664H127.848V13.2295C127.828 12.292 127.574 11.5693 127.086 11.0615C126.598 10.5439 125.904 10.2852 125.006 10.2852ZM143.009 18.6201C143.009 18.1025 142.75 17.6973 142.232 17.4043C141.725 17.1016 140.904 16.833 139.771 16.5986C136.002 15.8076 134.117 14.2061 134.117 11.7939C134.117 10.3877 134.698 9.21582 135.86 8.27832C137.032 7.33105 138.561 6.85742 140.445 6.85742C142.457 6.85742 144.063 7.33105 145.265 8.27832C146.476 9.22559 147.081 10.4561 147.081 11.9697H142.848C142.848 11.3643 142.652 10.8662 142.262 10.4756C141.871 10.0752 141.261 9.875 140.431 9.875C139.718 9.875 139.166 10.0361 138.775 10.3584C138.385 10.6807 138.189 11.0908 138.189 11.5889C138.189 12.0576 138.409 12.4385 138.849 12.7314C139.298 13.0146 140.05 13.2637 141.104 13.4785C142.159 13.6836 143.048 13.918 143.771 14.1816C146.007 15.002 147.125 16.4229 147.125 18.4443C147.125 19.8896 146.505 21.0615 145.265 21.96C144.024 22.8486 142.423 23.293 140.46 23.293C139.132 23.293 137.95 23.0586 136.915 22.5898C135.89 22.1113 135.084 21.4619 134.498 20.6416C133.912 19.8115 133.619 18.918 133.619 17.9609H137.633C137.672 18.7129 137.95 19.2891 138.468 19.6895C138.985 20.0898 139.679 20.29 140.548 20.29C141.358 20.29 141.969 20.1387 142.379 19.8359C142.799 19.5234 143.009 19.1182 143.009 18.6201ZM164.63 23.293C162.306 23.293 160.411 22.5801 158.946 21.1543C157.491 19.7285 156.764 17.8291 156.764 15.4561V15.0459C156.764 13.4541 157.071 12.0332 157.687 10.7832C158.302 9.52344 159.171 8.55664 160.294 7.88281C161.427 7.19922 162.716 6.85742 164.161 6.85742C166.329 6.85742 168.033 7.54102 169.273 8.9082C170.523 10.2754 171.148 12.2139 171.148 14.7236V16.4521H161.056C161.192 17.4873 161.603 18.3174 162.286 18.9424C162.979 19.5674 163.854 19.8799 164.908 19.8799C166.539 19.8799 167.813 19.2891 168.731 18.1074L170.812 20.4365C170.177 21.335 169.317 22.0381 168.233 22.5459C167.149 23.0439 165.948 23.293 164.63 23.293ZM164.146 10.2852C163.307 10.2852 162.623 10.5684 162.096 11.1348C161.578 11.7012 161.246 12.5117 161.1 13.5664H166.988V13.2295C166.969 12.292 166.715 11.5693 166.227 11.0615C165.738 10.5439 165.045 10.2852 164.146 10.2852ZM177.462 7.15039L177.594 8.98145C178.727 7.56543 180.245 6.85742 182.149 6.85742C183.829 6.85742 185.079 7.35059 185.899 8.33691C186.72 9.32324 187.14 10.7979 187.159 12.7607V23H182.926V12.8633C182.926 11.9648 182.73 11.3154 182.34 10.915C181.949 10.5049 181.3 10.2998 180.392 10.2998C179.2 10.2998 178.307 10.8076 177.711 11.8232V23H173.478V7.15039H177.462ZM204.444 19.8799C205.226 19.8799 205.86 19.665 206.349 19.2354C206.837 18.8057 207.091 18.2344 207.11 17.5215H211.08C211.07 18.5957 210.777 19.582 210.201 20.4805C209.625 21.3691 208.834 22.0625 207.828 22.5605C206.832 23.0488 205.729 23.293 204.518 23.293C202.252 23.293 200.465 22.5752 199.156 21.1396C197.848 19.6943 197.193 17.7021 197.193 15.1631V14.8848C197.193 12.4434 197.843 10.4951 199.142 9.04004C200.44 7.58496 202.223 6.85742 204.488 6.85742C206.471 6.85742 208.058 7.42383 209.249 8.55664C210.45 9.67969 211.061 11.1787 211.08 13.0537H207.11C207.091 12.2334 206.837 11.5693 206.349 11.0615C205.86 10.5439 205.216 10.2852 204.415 10.2852C203.429 10.2852 202.682 10.6465 202.174 11.3691C201.676 12.082 201.427 13.2441 201.427 14.8555V15.2949C201.427 16.9258 201.676 18.0977 202.174 18.8105C202.672 19.5234 203.429 19.8799 204.444 19.8799ZM217.965 23H213.717V7.15039H217.965V23ZM213.468 3.04883C213.468 2.41406 213.678 1.8916 214.098 1.48145C214.527 1.07129 215.108 0.866211 215.841 0.866211C216.563 0.866211 217.14 1.07129 217.569 1.48145C217.999 1.8916 218.214 2.41406 218.214 3.04883C218.214 3.69336 217.994 4.2207 217.555 4.63086C217.125 5.04102 216.554 5.24609 215.841 5.24609C215.128 5.24609 214.552 5.04102 214.112 4.63086C213.683 4.2207 213.468 3.69336 213.468 3.04883ZM235.748 15.2217C235.748 17.7607 235.206 19.7432 234.122 21.1689C233.038 22.585 231.524 23.293 229.581 23.293C227.862 23.293 226.49 22.6338 225.465 21.3154L225.274 23H221.466V0.5H225.699V8.57129C226.676 7.42871 227.96 6.85742 229.552 6.85742C231.485 6.85742 232.999 7.57031 234.093 8.99609C235.196 10.4121 235.748 12.4092 235.748 14.9873V15.2217ZM231.515 14.9141C231.515 13.3125 231.261 12.1455 230.753 11.4131C230.245 10.6709 229.488 10.2998 228.482 10.2998C227.135 10.2998 226.207 10.8516 225.699 11.9551V18.21C226.217 19.3232 227.154 19.8799 228.512 19.8799C229.879 19.8799 230.777 19.2061 231.207 17.8584C231.412 17.2139 231.515 16.2324 231.515 14.9141ZM245.665 23.293C243.341 23.293 241.446 22.5801 239.981 21.1543C238.526 19.7285 237.799 17.8291 237.799 15.4561V15.0459C237.799 13.4541 238.106 12.0332 238.722 10.7832C239.337 9.52344 240.206 8.55664 241.329 7.88281C242.462 7.19922 243.751 6.85742 245.196 6.85742C247.364 6.85742 249.068 7.54102 250.309 8.9082C251.559 10.2754 252.184 12.2139 252.184 14.7236V16.4521H242.091C242.228 17.4873 242.638 18.3174 243.321 18.9424C244.015 19.5674 244.889 19.8799 245.943 19.8799C247.574 19.8799 248.849 19.2891 249.767 18.1074L251.847 20.4365C251.212 21.335 250.353 22.0381 249.269 22.5459C248.185 23.0439 246.983 23.293 245.665 23.293ZM245.182 10.2852C244.342 10.2852 243.658 10.5684 243.131 11.1348C242.613 11.7012 242.281 12.5117 242.135 13.5664H248.023V13.2295C248.004 12.292 247.75 11.5693 247.262 11.0615C246.773 10.5439 246.08 10.2852 245.182 10.2852ZM263.507 11.1201C262.931 11.042 262.423 11.0029 261.983 11.0029C260.382 11.0029 259.332 11.5449 258.834 12.6289V23H254.601V7.15039H258.6L258.717 9.04004C259.566 7.58496 260.743 6.85742 262.247 6.85742C262.716 6.85742 263.155 6.9209 263.565 7.04785L263.507 11.1201ZM274.142 18.6201C274.142 18.1025 273.883 17.6973 273.365 17.4043C272.857 17.1016 272.037 16.833 270.904 16.5986C267.135 15.8076 265.25 14.2061 265.25 11.7939C265.25 10.3877 265.831 9.21582 266.993 8.27832C268.165 7.33105 269.693 6.85742 271.578 6.85742C273.59 6.85742 275.196 7.33105 276.397 8.27832C277.608 9.22559 278.214 10.4561 278.214 11.9697H273.98C273.98 11.3643 273.785 10.8662 273.395 10.4756C273.004 10.0752 272.394 9.875 271.563 9.875C270.851 9.875 270.299 10.0361 269.908 10.3584C269.518 10.6807 269.322 11.0908 269.322 11.5889C269.322 12.0576 269.542 12.4385 269.981 12.7314C270.431 13.0146 271.183 13.2637 272.237 13.4785C273.292 13.6836 274.181 13.918 274.903 14.1816C277.14 15.002 278.258 16.4229 278.258 18.4443C278.258 19.8896 277.638 21.0615 276.397 21.96C275.157 22.8486 273.556 23.293 271.593 23.293C270.265 23.293 269.083 23.0586 268.048 22.5898C267.022 22.1113 266.217 21.4619 265.631 20.6416C265.045 19.8115 264.752 18.918 264.752 17.9609H268.766C268.805 18.7129 269.083 19.2891 269.601 19.6895C270.118 20.0898 270.812 20.29 271.681 20.29C272.491 20.29 273.102 20.1387 273.512 19.8359C273.932 19.5234 274.142 19.1182 274.142 18.6201ZM288.292 23.293C285.968 23.293 284.073 22.5801 282.608 21.1543C281.153 19.7285 280.426 17.8291 280.426 15.4561V15.0459C280.426 13.4541 280.733 12.0332 281.349 10.7832C281.964 9.52344 282.833 8.55664 283.956 7.88281C285.089 7.19922 286.378 6.85742 287.823 6.85742C289.991 6.85742 291.695 7.54102 292.936 8.9082C294.186 10.2754 294.811 12.2139 294.811 14.7236V16.4521H284.718C284.854 17.4873 285.265 18.3174 285.948 18.9424C286.642 19.5674 287.516 19.8799 288.57 19.8799C290.201 19.8799 291.476 19.2891 292.394 18.1074L294.474 20.4365C293.839 21.335 292.979 22.0381 291.896 22.5459C290.812 23.0439 289.61 23.293 288.292 23.293ZM287.809 10.2852C286.969 10.2852 286.285 10.5684 285.758 11.1348C285.24 11.7012 284.908 12.5117 284.762 13.5664H290.65V13.2295C290.631 12.292 290.377 11.5693 289.889 11.0615C289.4 10.5439 288.707 10.2852 287.809 10.2852ZM296.612 14.958C296.612 12.5264 297.188 10.5684 298.341 9.08398C299.503 7.59961 301.065 6.85742 303.028 6.85742C304.767 6.85742 306.119 7.45313 307.086 8.64453L307.262 7.15039H311.1V22.4727C311.1 23.8594 310.782 25.0654 310.147 26.0908C309.522 27.1162 308.639 27.8975 307.496 28.4346C306.354 28.9717 305.016 29.2402 303.482 29.2402C302.32 29.2402 301.188 29.0059 300.084 28.5371C298.98 28.0781 298.146 27.4824 297.579 26.75L299.454 24.1719C300.509 25.3535 301.788 25.9443 303.292 25.9443C304.415 25.9443 305.289 25.6416 305.914 25.0361C306.539 24.4404 306.852 23.5908 306.852 22.4873V21.6377C305.875 22.7412 304.591 23.293 302.999 23.293C301.095 23.293 299.552 22.5508 298.37 21.0664C297.198 19.5723 296.612 17.5947 296.612 15.1338V14.958ZM300.846 15.2656C300.846 16.7012 301.134 17.8291 301.71 18.6494C302.286 19.46 303.077 19.8652 304.083 19.8652C305.372 19.8652 306.295 19.3818 306.852 18.415V11.75C306.285 10.7832 305.372 10.2998 304.112 10.2998C303.097 10.2998 302.296 10.7148 301.71 11.5449C301.134 12.375 300.846 13.6152 300.846 15.2656ZM323.858 21.3887C322.813 22.6582 321.368 23.293 319.522 23.293C317.823 23.293 316.524 22.8047 315.626 21.8281C314.737 20.8516 314.283 19.4209 314.264 17.5361V7.15039H318.497V17.3896C318.497 19.04 319.249 19.8652 320.753 19.8652C322.188 19.8652 323.175 19.3672 323.712 18.3711V7.15039H327.96V23H323.976L323.858 21.3887ZM340.06 11.1201C339.483 11.042 338.976 11.0029 338.536 11.0029C336.935 11.0029 335.885 11.5449 335.387 12.6289V23H331.153V7.15039H335.152L335.27 9.04004C336.119 7.58496 337.296 6.85742 338.8 6.85742C339.269 6.85742 339.708 6.9209 340.118 7.04785L340.06 11.1201ZM346.578 23H342.33V7.15039H346.578V23ZM342.081 3.04883C342.081 2.41406 342.291 1.8916 342.711 1.48145C343.141 1.07129 343.722 0.866211 344.454 0.866211C345.177 0.866211 345.753 1.07129 346.183 1.48145C346.612 1.8916 346.827 2.41406 346.827 3.04883C346.827 3.69336 346.607 4.2207 346.168 4.63086C345.738 5.04102 345.167 5.24609 344.454 5.24609C343.741 5.24609 343.165 5.04102 342.726 4.63086C342.296 4.2207 342.081 3.69336 342.081 3.04883ZM349.42 14.958C349.42 12.4873 349.972 10.5195 351.075 9.05469C352.188 7.58984 353.707 6.85742 355.631 6.85742C357.174 6.85742 358.448 7.43359 359.454 8.58594V0.5H363.702V23H359.879L359.674 21.3154C358.619 22.6338 357.262 23.293 355.602 23.293C353.736 23.293 352.237 22.5605 351.104 21.0957C349.981 19.6211 349.42 17.5752 349.42 14.958ZM353.653 15.2656C353.653 16.75 353.912 17.8877 354.43 18.6787C354.947 19.4697 355.699 19.8652 356.686 19.8652C357.994 19.8652 358.917 19.3135 359.454 18.21V11.9551C358.927 10.8516 358.014 10.2998 356.715 10.2998C354.674 10.2998 353.653 11.9551 353.653 15.2656ZM376.168 23C375.973 22.6191 375.831 22.1455 375.743 21.5791C374.718 22.7217 373.385 23.293 371.744 23.293C370.191 23.293 368.902 22.8438 367.877 21.9453C366.861 21.0469 366.354 19.9141 366.354 18.5469C366.354 16.8672 366.974 15.5781 368.214 14.6797C369.464 13.7812 371.266 13.3271 373.619 13.3174H375.567V12.4092C375.567 11.6768 375.377 11.0908 374.996 10.6514C374.625 10.2119 374.034 9.99219 373.224 9.99219C372.511 9.99219 371.949 10.1631 371.539 10.5049C371.139 10.8467 370.938 11.3154 370.938 11.9111H366.705C366.705 10.9932 366.988 10.1436 367.555 9.3623C368.121 8.58105 368.922 7.9707 369.957 7.53125C370.992 7.08203 372.154 6.85742 373.443 6.85742C375.396 6.85742 376.944 7.35059 378.087 8.33691C379.239 9.31348 379.815 10.6904 379.815 12.4678V19.3379C379.825 20.8418 380.035 21.9795 380.445 22.751V23H376.168ZM372.667 20.0557C373.292 20.0557 373.868 19.9189 374.396 19.6455C374.923 19.3623 375.313 18.9863 375.567 18.5176V15.793H373.985C371.866 15.793 370.738 16.5254 370.602 17.9902L370.587 18.2393C370.587 18.7666 370.772 19.2012 371.144 19.543C371.515 19.8848 372.022 20.0557 372.667 20.0557ZM382.408 14.958C382.408 12.4873 382.96 10.5195 384.063 9.05469C385.177 7.58984 386.695 6.85742 388.619 6.85742C390.162 6.85742 391.437 7.43359 392.442 8.58594V0.5H396.69V23H392.867L392.662 21.3154C391.607 22.6338 390.25 23.293 388.59 23.293C386.725 23.293 385.226 22.5605 384.093 21.0957C382.97 19.6211 382.408 17.5752 382.408 14.958ZM386.642 15.2656C386.642 16.75 386.9 17.8877 387.418 18.6787C387.936 19.4697 388.688 19.8652 389.674 19.8652C390.982 19.8652 391.905 19.3135 392.442 18.21V11.9551C391.915 10.8516 391.002 10.2998 389.703 10.2998C387.662 10.2998 386.642 11.9551 386.642 15.2656Z" fill="#00498D"/>
</svg>
